TiroDevaSanskrit-Regular.ufo
<glyph name="dVisarga" format="2">
  <unicode hex="0903"/>
  <outline>
    <contour>
      <point x="125" y="485" type="line"/>
      <point x="50" y="409" type="line"/>
      <point x="125" y="336" type="line"/>
      <point x="202" y="409" type="line"/>
    </contour>
    <contour>
      <point x="125" y="213" type="line"/>
      <point x="50" y="137" type="line"/>
      <point x="125" y="64" type="line"/>
      <point x="202" y="137" type="line"/>
    </contour>
  </outline>
</glyph>
<glyph name="dU" format="2">
  <advance width="565"/>
  <unicode hex="0909"/>
  <outline>
    <contour>
      <point x="361" y="316" type="line"/>
      <point x="412" y="316"/>
      <point x="448" y="261"/>
      <point x="448" y="208" type="curve" smooth="yes"/>
      <point x="448" y="138"/>
      <point x="388" y="95"/>
      <point x="315" y="95" type="curve" smooth="yes"/>
      <point x="189" y="95"/>
      <point x="121" y="225"/>
      <point x="72" y="319" type="curve"/>
      <point x="34" y="297" type="line"/>
      <point x="106" y="155"/>
      <point x="189" y="21"/>
      <point x="340" y="21" type="curve" smooth="yes"/>
      <point x="452" y="21"/>
      <point x="521" y="95"/>
      <point x="521" y="180" type="curve" smooth="yes"/>
      <point x="521" y="251"/>
      <point x="471" y="320"/>
      <point x="401" y="367" type="curve"/>
    </contour>
    <contour>
      <point x="353" y="565" type="line"/>
      <point x="372" y="527"/>
      <point x="381" y="498"/>
      <point x="381" y="473" type="curve" smooth="yes"/>
      <point x="381" y="418"/>
      <point x="339" y="393"/>
      <point x="184" y="362" type="curve"/>
      <point x="184" y="356" type="line"/>
      <point x="226" y="286" type="line"/>
      <point x="299" y="298"/>
      <point x="331" y="316"/>
      <point x="361" y="316" type="curve"/>
      <point x="409" y="340"/>
      <point x="452" y="387"/>
      <point x="452" y="442" type="curve" smooth="yes"/>
      <point x="452" y="482"/>
      <point x="431" y="528"/>
      <point x="408" y="566" type="curve"/>
    </contour>
    <contour>
      <point x="593" y="545" type="line"/>
      <point x="593" y="555" type="line"/>
      <point x="559" y="620" type="line"/>
      <point x="-28" y="620" type="line"/>
      <point x="-28" y="610" type="line"/>
      <point x="6" y="545" type="line"/>
    </contour>
  </outline>
</glyph>
<glyph name="dKha" format="2">
  <advance width="815"/>
  <unicode hex="0916"/>
  <outline>
    <contour>
      <point x="322" y="-20" type="line"/>
      <point x="373" y="22" type="line"/>
      <point x="156" y="246" type="line"/>
      <point x="155" y="235" type="line"/>
      <point x="228" y="249"/>
      <point x="268" y="300"/>
      <point x="268" y="471" type="curve" smooth="yes"/>
      <point x="268" y="487"/>
      <point x="267" y="544"/>
      <point x="261" y="575" type="curve"/>
      <point x="180" y="575" type="line"/>
      <point x="182" y="543"/>
      <point x="184" y="523"/>
      <point x="184" y="482" type="curve" smooth="yes"/>
      <point x="184" y="446"/>
      <point x="183" y="391"/>
      <point x="174" y="358" type="curve"/>
      <point x="186" y="367" type="line"/>
      <point x="163" y="370"/>
      <point x="119" y="374"/>
      <point x="97" y="374" type="curve" smooth="yes"/>
      <point x="61" y="374"/>
      <point x="46" y="364"/>
      <point x="46" y="342" type="curve" smooth="yes"/>
      <point x="46" y="319"/>
      <point x="65" y="283"/>
      <point x="114" y="223" type="curve" smooth="yes"/>
      <point x="312" y="-20" type="line"/>
    </contour>
    <contour>
      <point x="501" y="155" type="curve" smooth="yes"/>
      <point x="558" y="155"/>
      <point x="591" y="171"/>
      <point x="661" y="228" type="curve"/>
      <point x="661" y="332" type="line"/>
      <point x="564" y="238"/>
      <point x="515" y="217"/>
      <point x="473" y="217" type="curve" smooth="yes"/>
      <point x="433" y="217"/>
      <point x="399" y="239"/>
      <point x="399" y="289" type="curve" smooth="yes"/>
      <point x="399" y="357"/>
      <point x="446" y="389"/>
      <point x="504" y="389" type="curve" smooth="yes"/>
      <point x="558" y="389"/>
      <point x="618" y="357"/>
      <point x="658" y="303" type="curve"/>
      <point x="658" y="354" type="line"/>
      <point x="610" y="426"/>
      <point x="553" y="463"/>
      <point x="480" y="463" type="curve" smooth="yes"/>
      <point x="398" y="463"/>
      <point x="327" y="412"/>
      <point x="327" y="331" type="curve" smooth="yes"/>
      <point x="327" y="236"/>
      <point x="415" y="155"/>
    </contour>
    <contour>
      <point x="728" y="-10" type="line"/>
      <point x="726" y="601" type="line"/>
      <point x="642" y="601" type="line"/>
      <point x="638" y="42" type="line"/>
      <point x="718" y="-10" type="line"/>
    </contour>
    <contour>
      <point x="843" y="545" type="line"/>
      <point x="843" y="555" type="line"/>
      <point x="809" y="620" type="line"/>
      <point x="-28" y="620" type="line"/>
      <point x="-28" y="610" type="line"/>
      <point x="6" y="545" type="line"/>
    </contour>
  </outline>
</glyph>
<glyph name="dGa" format="2">
  <advance width="583"/>
  <unicode hex="0917"/>
  <outline>
    <contour>
      <point x="143" y="581" type="line"/>
      <point x="142" y="347" type="line"/>
      <point x="78" y="347" type="line" smooth="yes"/>
      <point x="60" y="347"/>
      <point x="53" y="336"/>
      <point x="53" y="324" type="curve" smooth="yes"/>
      <point x="53" y="270"/>
      <point x="160" y="170"/>
      <point x="204" y="170" type="curve" smooth="yes"/>
      <point x="219" y="170"/>
      <point x="227" y="178"/>
      <point x="227" y="195" type="curve" smooth="yes"/>
      <point x="225" y="581" type="line"/>
    </contour>
    <contour>
      <point x="611" y="545" type="line"/>
      <point x="611" y="555" type="line"/>
      <point x="577" y="620" type="line"/>
      <point x="-28" y="620" type="line"/>
      <point x="-28" y="610" type="line"/>
      <point x="6" y="545" type="line"/>
    </contour>
    <contour>
      <point x="411" y="581" type="line"/>
      <point x="407" y="41" type="line"/>
      <point x="486" y="-10" type="line"/>
      <point x="496" y="-10" type="line"/>
      <point x="494" y="581" type="line"/>
    </contour>
  </outline>
</glyph>
<glyph name="dCa" format="2">
  <advance width="676"/>
  <unicode hex="091A"/>
  <outline>
    <contour>
      <point x="361" y="128" type="curve" smooth="yes"/>
      <point x="405" y="128"/>
      <point x="448" y="138"/>
      <point x="520" y="195" type="curve"/>
      <point x="522" y="301" type="line"/>
      <point x="418" y="209"/>
      <point x="355" y="192"/>
      <point x="314" y="192" type="curve" smooth="yes"/>
      <point x="266" y="192"/>
      <point x="221" y="215"/>
      <point x="221" y="277" type="curve" smooth="yes"/>
      <point x="221" y="365"/>
      <point x="314" y="373"/>
      <point x="402" y="373" type="curve"/>
      <point x="402" y="398" type="line"/>
      <point x="193" y="398" type="line"/>
      <point x="158" y="369"/>
      <point x="149" y="336"/>
      <point x="149" y="310" type="curve" smooth="yes"/>
      <point x="149" y="232"/>
      <point x="226" y="128"/>
    </contour>
    <contour>
      <point x="183" y="370" type="line"/>
      <point x="286" y="388" type="line"/>
      <point x="402" y="373" type="line"/>
      <point x="416" y="373"/>
      <point x="422" y="373"/>
      <point x="444" y="372" type="curve"/>
      <point x="444" y="382" type="line"/>
      <point x="411" y="446" type="line"/>
      <point x="37" y="446" type="line"/>
      <point x="37" y="436" type="line"/>
      <point x="72" y="370" type="line"/>
    </contour>
    <contour>
      <point x="589" y="-10" type="line"/>
      <point x="587" y="581" type="line"/>
      <point x="503" y="581" type="line"/>
      <point x="499" y="42" type="line"/>
      <point x="579" y="-10" type="line"/>
    </contour>
    <contour>
      <point x="704" y="545" type="line"/>
      <point x="704" y="555" type="line"/>
      <point x="670" y="620" type="line"/>
      <point x="-28" y="620" type="line"/>
      <point x="-28" y="610" type="line"/>
      <point x="6" y="545" type="line"/>
    </contour>
  </outline>
</glyph>
<glyph name="dNya" format="2">
  <advance width="775"/>
  <unicode hex="091E"/>
  <outline>
    <contour>
      <point x="321" y="117" type="curve" smooth="yes"/>
      <point x="409" y="117"/>
      <point x="488" y="165"/>
      <point x="488" y="262" type="curve" smooth="yes"/>
      <point x="488" y="353"/>
      <point x="423" y="470"/>
      <point x="310" y="470" type="curve" smooth="yes"/>
      <point x="275" y="470"/>
      <point x="229" y="459"/>
      <point x="185" y="437" type="curve"/>
      <point x="228" y="360" type="line"/>
      <point x="264" y="377"/>
      <point x="308" y="394"/>
      <point x="346" y="394" type="curve" smooth="yes"/>
      <point x="396" y="394"/>
      <point x="421" y="364"/>
      <point x="421" y="311" type="curve" smooth="yes"/>
      <point x="421" y="227"/>
      <point x="362" y="193"/>
      <point x="299" y="193" type="curve" smooth="yes"/>
      <point x="201" y="193"/>
      <point x="131" y="278"/>
      <point x="64" y="393" type="curve"/>
      <point x="26" y="370" type="line"/>
      <point x="134" y="181"/>
      <point x="219" y="117"/>
    </contour>
    <contour>
      <point x="576" y="217" type="curve" smooth="yes"/>
      <point x="593" y="217"/>
      <point x="611" y="222"/>
      <point x="629" y="232" type="curve"/>
      <point x="620" y="341" type="line"/>
      <point x="590" y="307"/>
      <point x="566" y="295"/>
      <point x="532" y="295" type="curve" smooth="yes"/>
      <point x="504" y="295"/>
      <point x="489" y="305"/>
      <point x="473" y="314" type="curve"/>
      <point x="476" y="249" type="line"/>
      <point x="492" y="257" type="line"/>
      <point x="508" y="241"/>
      <point x="540" y="217"/>
    </contour>
    <contour>
      <point x="688" y="-10" type="line"/>
      <point x="686" y="581" type="line"/>
      <point x="602" y="581" type="line"/>
      <point x="598" y="42" type="line"/>
      <point x="678" y="-10" type="line"/>
    </contour>
    <contour>
      <point x="803" y="545" type="line"/>
      <point x="803" y="555" type="line"/>
      <point x="769" y="620" type="line"/>
      <point x="-28" y="620" type="line"/>
      <point x="-28" y="610" type="line"/>
      <point x="6" y="545" type="line"/>
    </contour>
  </outline>
</glyph>
<glyph name="dTtha" format="2">
  <advance width="577"/>
  <unicode hex="0920"/>
  <outline>
    <contour>
      <point x="322" y="37" type="curve" smooth="yes"/>
      <point x="439" y="37"/>
      <point x="533" y="118"/>
      <point x="533" y="218" type="curve" smooth="yes"/>
      <point x="533" y="294"/>
      <point x="478" y="366"/>
      <point x="395" y="415" type="curve"/>
      <point x="366" y="377" type="line"/>
      <point x="413" y="358"/>
      <point x="454" y="303"/>
      <point x="454" y="247" type="curve" smooth="yes"/>
      <point x="454" y="166"/>
      <point x="368" y="108"/>
      <point x="277" y="108" type="curve" smooth="yes"/>
      <point x="196" y="108"/>
      <point x="125" y="152"/>
      <point x="125" y="238" type="curve" smooth="yes"/>
      <point x="125" y="324"/>
      <point x="187" y="363"/>
      <point x="358" y="363" type="curve" smooth="yes"/>
      <point x="410" y="363"/>
      <point x="419" y="374"/>
      <point x="419" y="438" type="curve" smooth="yes"/>
      <point x="419" y="514"/>
      <point x="416" y="546"/>
      <point x="417" y="576" type="curve"/>
      <point x="337" y="576" type="line"/>
      <point x="337" y="485" type="line" smooth="yes"/>
      <point x="337" y="441"/>
      <point x="332" y="438"/>
      <point x="305" y="438" type="curve" smooth="yes"/>
      <point x="118" y="438"/>
      <point x="49" y="375"/>
      <point x="49" y="283" type="curve" smooth="yes"/>
      <point x="49" y="164"/>
      <point x="172" y="37"/>
    </contour>
    <contour>
      <point x="605" y="545" type="line"/>
      <point x="605" y="555" type="line"/>
      <point x="571" y="620" type="line"/>
      <point x="-28" y="620" type="line"/>
      <point x="-28" y="610" type="line"/>
      <point x="6" y="545" type="line"/>
    </contour>
  </outline>
</glyph>
<glyph name="dDdha" format="2">
  <advance width="558"/>
  <unicode hex="0922"/>
  <outline>
    <contour>
      <point x="355" y="17" type="curve" smooth="yes"/>
      <point x="450" y="17"/>
      <point x="516" y="77"/>
      <point x="516" y="152" type="curve" smooth="yes"/>
      <point x="516" y="260"/>
      <point x="424" y="306"/>
      <point x="358" y="306" type="curve" smooth="yes"/>
      <point x="298" y="306"/>
      <point x="239" y="260"/>
      <point x="239" y="197" type="curve" smooth="yes"/>
      <point x="239" y="163"/>
      <point x="247" y="124"/>
      <point x="276" y="64" type="curve"/>
      <point x="316" y="58" type="line"/>
      <point x="303" y="91"/>
      <point x="298" y="101"/>
      <point x="298" y="127" type="curve" smooth="yes"/>
      <point x="298" y="191"/>
      <point x="335" y="239"/>
      <point x="397" y="239" type="curve" smooth="yes"/>
      <point x="431" y="239"/>
      <point x="460" y="217"/>
      <point x="460" y="185" type="curve" smooth="yes"/>
      <point x="460" y="140"/>
      <point x="409" y="92"/>
      <point x="325" y="92" type="curve" smooth="yes"/>
      <point x="215" y="92"/>
      <point x="126" y="145"/>
      <point x="126" y="257" type="curve" smooth="yes"/>
      <point x="126" y="338"/>
      <point x="180" y="378"/>
      <point x="265" y="378" type="curve" smooth="yes"/>
      <point x="441" y="378" type="line"/>
      <point x="453" y="386" type="line"/>
      <point x="453" y="438"/>
      <point x="452" y="508"/>
      <point x="451" y="575" type="curve"/>
      <point x="370" y="575" type="line"/>
      <point x="370" y="453" type="line"/>
      <point x="262" y="453" type="line" smooth="yes"/>
      <point x="136" y="453"/>
      <point x="51" y="418"/>
      <point x="51" y="311" type="curve" smooth="yes"/>
      <point x="51" y="138"/>
      <point x="220" y="17"/>
    </contour>
    <contour>
      <point x="586" y="545" type="line"/>
      <point x="586" y="555" type="line"/>
      <point x="552" y="620" type="line"/>
      <point x="-28" y="620" type="line"/>
      <point x="-28" y="610" type="line"/>
      <point x="6" y="545" type="line"/>
    </contour>
  </outline>
</glyph>
<glyph name="dDa" format="2">
  <advance width="527"/>
  <unicode hex="0926"/>
  <outline>
    <contour>
      <point x="487" y="-98" type="line"/>
      <point x="539" y="-65" type="line"/>
      <point x="386" y="147" type="line"/>
      <point x="354" y="147" type="line"/>
      <point x="335" y="130"/>
      <point x="298" y="124"/>
      <point x="270" y="124" type="curve" smooth="yes"/>
      <point x="200" y="124"/>
      <point x="130" y="178"/>
      <point x="130" y="273" type="curve" smooth="yes"/>
      <point x="130" y="341"/>
      <point x="185" y="374"/>
      <point x="270" y="374" type="curve" smooth="yes"/>
      <point x="411" y="374" type="line"/>
      <point x="423" y="382" type="line"/>
      <point x="423" y="434"/>
      <point x="422" y="518"/>
      <point x="421" y="580" type="curve"/>
      <point x="340" y="580" type="line"/>
      <point x="340" y="449" type="line"/>
      <point x="265" y="449" type="line" smooth="yes"/>
      <point x="139" y="449"/>
      <point x="55" y="420"/>
      <point x="55" y="316" type="curve" smooth="yes"/>
      <point x="55" y="181"/>
      <point x="185" y="55"/>
      <point x="323" y="55" type="curve" smooth="yes"/>
      <point x="448" y="55"/>
      <point x="475" y="135"/>
      <point x="475" y="159" type="curve" smooth="yes"/>
      <point x="475" y="206"/>
      <point x="397" y="250"/>
      <point x="352" y="250" type="curve" smooth="yes"/>
      <point x="331" y="250"/>
      <point x="317" y="240"/>
      <point x="317" y="218" type="curve" smooth="yes"/>
      <point x="317" y="188"/>
      <point x="343" y="139"/>
      <point x="375" y="82" type="curve" smooth="yes"/>
      <point x="478" y="-98" type="line"/>
    </contour>
    <contour>
      <point x="555" y="545" type="line"/>
      <point x="555" y="555" type="line"/>
      <point x="521" y="620" type="line"/>
      <point x="-28" y="620" type="line"/>
      <point x="-28" y="610" type="line"/>
      <point x="6" y="545" type="line"/>
    </contour>
  </outline>
</glyph>
<glyph name="dPa" format="2">
  <advance width="557"/>
  <unicode hex="092A"/>
  <outline>
    <contour>
      <point x="278" y="168" type="curve" smooth="yes"/>
      <point x="319" y="168"/>
      <point x="351" y="180"/>
      <point x="398" y="211" type="curve"/>
      <point x="402" y="319" type="line"/>
      <point x="329" y="265"/>
      <point x="274" y="233"/>
      <point x="230" y="233" type="curve" smooth="yes"/>
      <point x="197" y="233"/>
      <point x="161" y="261"/>
      <point x="161" y="325" type="curve" smooth="yes"/>
      <point x="159" y="582" type="line"/>
      <point x="74" y="582" type="line"/>
      <point x="74" y="519"/>
      <point x="73" y="449"/>
      <point x="73" y="396" type="curve" smooth="yes"/>
      <point x="73" y="381"/>
      <point x="73" y="365"/>
      <point x="74" y="347" type="curve" smooth="yes"/>
      <point x="76" y="279"/>
      <point x="175" y="168"/>
    </contour>
    <contour>
      <point x="470" y="-10" type="line"/>
      <point x="468" y="582" type="line"/>
      <point x="384" y="582" type="line"/>
      <point x="380" y="42" type="line"/>
      <point x="460" y="-10" type="line"/>
    </contour>
    <contour>
      <point x="585" y="545" type="line"/>
      <point x="585" y="555" type="line"/>
      <point x="551" y="620" type="line"/>
      <point x="-28" y="620" type="line"/>
      <point x="-28" y="610" type="line"/>
      <point x="6" y="545" type="line"/>
    </contour>
  </outline>
</glyph>
<glyph name="dBa" format="2">
  <advance width="602"/>
  <unicode hex="092C"/>
  <outline>
    <contour>
      <point x="256" y="128" type="curve" smooth="yes"/>
      <point x="341" y="128"/>
      <point x="444" y="171"/>
      <point x="444" y="269" type="curve" smooth="yes"/>
      <point x="444" y="389"/>
      <point x="352" y="467"/>
      <point x="235" y="467" type="curve" smooth="yes"/>
      <point x="128" y="467"/>
      <point x="41" y="408"/>
      <point x="41" y="321" type="curve" smooth="yes"/>
      <point x="41" y="244"/>
      <point x="111" y="128"/>
    </contour>
    <contour>
      <point x="226" y="192" type="curve" smooth="yes"/>
      <point x="162" y="192"/>
      <point x="112" y="229"/>
      <point x="112" y="282" type="curve" smooth="yes"/>
      <point x="112" y="354"/>
      <point x="192" y="394"/>
      <point x="268" y="394" type="curve" smooth="yes"/>
      <point x="329" y="394"/>
      <point x="384" y="373"/>
      <point x="384" y="315" type="curve" smooth="yes"/>
      <point x="384" y="244"/>
      <point x="310" y="192"/>
    </contour>
    <contour>
      <point x="351" y="202" type="line"/>
      <point x="183" y="412" type="line"/>
      <point x="140" y="397" type="line"/>
      <point x="319" y="173" type="line"/>
    </contour>
    <contour>
      <point x="515" y="-10" type="line"/>
      <point x="513" y="581" type="line"/>
      <point x="429" y="581" type="line"/>
      <point x="428" y="357" type="line"/>
      <point x="402" y="357" type="line"/>
      <point x="402" y="202" type="line"/>
      <point x="426" y="202" type="line"/>
      <point x="425" y="42" type="line"/>
      <point x="505" y="-10" type="line"/>
    </contour>
    <contour>
      <point x="630" y="545" type="line"/>
      <point x="630" y="555" type="line"/>
      <point x="596" y="620" type="line"/>
      <point x="-28" y="620" type="line"/>
      <point x="-28" y="610" type="line"/>
      <point x="6" y="545" type="line"/>
    </contour>
  </outline>
</glyph>
<glyph name="dYa" format="2">
  <advance width="582"/>
  <unicode hex="092F"/>
  <outline>
    <contour>
      <point x="289" y="136" type="curve" smooth="yes"/>
      <point x="334" y="136"/>
      <point x="385" y="151"/>
      <point x="434" y="193" type="curve"/>
      <point x="432" y="292" type="line"/>
      <point x="362" y="227"/>
      <point x="301" y="199"/>
      <point x="250" y="199" type="curve" smooth="yes"/>
      <point x="182" y="199"/>
      <point x="129" y="250"/>
      <point x="127" y="310" type="curve"/>
      <point x="224" y="337"/>
      <point x="263" y="375"/>
      <point x="263" y="426" type="curve" smooth="yes"/>
      <point x="263" y="463"/>
      <point x="242" y="513"/>
      <point x="198" y="572" type="curve"/>
      <point x="141" y="572" type="line"/>
      <point x="178" y="530"/>
      <point x="191" y="491"/>
      <point x="191" y="469" type="curve" smooth="yes"/>
      <point x="191" y="424"/>
      <point x="144" y="396"/>
      <point x="40" y="371" type="curve"/>
      <point x="64" y="239"/>
      <point x="170" y="136"/>
    </contour>
    <contour>
      <point x="495" y="-10" type="line"/>
      <point x="493" y="572" type="line"/>
      <point x="409" y="572" type="line"/>
      <point x="405" y="42" type="line"/>
      <point x="485" y="-10" type="line"/>
    </contour>
    <contour>
      <point x="610" y="545" type="line"/>
      <point x="610" y="555" type="line"/>
      <point x="576" y="620" type="line"/>
      <point x="-28" y="620" type="line"/>
      <point x="-28" y="610" type="line"/>
      <point x="6" y="545" type="line"/>
    </contour>
  </outline>
</glyph>
<glyph name="dVa" format="2">
  <advance width="597"/>
  <unicode hex="0935"/>
  <outline>
    <contour>
      <point x="251" y="133" type="curve" smooth="yes"/>
      <point x="320" y="133"/>
      <point x="358" y="159"/>
      <point x="440" y="213" type="curve"/>
      <point x="443" y="322" type="line"/>
      <point x="325" y="228"/>
      <point x="261" y="197"/>
      <point x="208" y="197" type="curve" smooth="yes"/>
      <point x="157" y="197"/>
      <point x="114" y="225"/>
      <point x="114" y="279" type="curve" smooth="yes"/>
      <point x="114" y="350"/>
      <point x="174" y="389"/>
      <point x="247" y="389" type="curve" smooth="yes"/>
      <point x="316" y="389"/>
      <point x="389" y="349"/>
      <point x="431" y="304" type="curve"/>
      <point x="436" y="352" type="line"/>
      <point x="384" y="417"/>
      <point x="313" y="467"/>
      <point x="225" y="467" type="curve" smooth="yes"/>
      <point x="126" y="467"/>
      <point x="41" y="406"/>
      <point x="41" y="322" type="curve" smooth="yes"/>
      <point x="41" y="244"/>
      <point x="113" y="133"/>
    </contour>
    <contour>
      <point x="510" y="-10" type="line"/>
      <point x="508" y="581" type="line"/>
      <point x="424" y="581" type="line"/>
      <point x="420" y="42" type="line"/>
      <point x="500" y="-10" type="line"/>
    </contour>
    <contour>
      <point x="625" y="545" type="line"/>
      <point x="625" y="555" type="line"/>
      <point x="591" y="620" type="line"/>
      <point x="-28" y="620" type="line"/>
      <point x="-28" y="610" type="line"/>
      <point x="6" y="545" type="line"/>
    </contour>
  </outline>
</glyph>
<glyph name="dNukta" format="2">
  <unicode hex="093C"/>
  <outline>
    <contour>
      <point x="-131" y="-40" type="line"/>
      <point x="-200" y="-110" type="line"/>
      <point x="-131" y="-178" type="line"/>
      <point x="-61" y="-110" type="line"/>
    </contour>
  </outline>
</glyph>
<glyph name="dSignUu" format="2">
  <unicode hex="0942"/>
  <outline>
    <contour>
      <point x="131" y="-286" type="line"/>
      <point x="168" y="-245" type="line"/>
      <point x="116" y="-179"/>
      <point x="-39" y="-29"/>
      <point x="-160" y="-29" type="curve" smooth="yes"/>
      <point x="-226" y="-29"/>
      <point x="-273" y="-74"/>
      <point x="-273" y="-136" type="curve" smooth="yes"/>
      <point x="-273" y="-207"/>
      <point x="-209" y="-280"/>
      <point x="-123" y="-280" type="curve" smooth="yes"/>
      <point x="-83" y="-280"/>
      <point x="-49" y="-265"/>
      <point x="-21" y="-241" type="curve"/>
      <point x="-72" y="-175" type="line"/>
      <point x="-97" y="-196"/>
      <point x="-127" y="-218"/>
      <point x="-160" y="-218" type="curve" smooth="yes"/>
      <point x="-192" y="-218"/>
      <point x="-212" y="-198"/>
      <point x="-212" y="-167" type="curve" smooth="yes"/>
      <point x="-212" y="-128"/>
      <point x="-178" y="-97"/>
      <point x="-125" y="-97" type="curve" smooth="yes"/>
      <point x="-19" y="-97"/>
      <point x="77" y="-222"/>
      <point x="124" y="-286" type="curve"/>
    </contour>
  </outline>
  <guideline angle="0" x="0" y="-271"/>
</glyph>
<glyph name="dSignShortE" format="2">
  <unicode hex="0946"/>
  <outline>
    <contour>
      <point x="-96" y="608" type="line"/>
      <point x="-115" y="706"/>
      <point x="-154" y="756"/>
      <point x="-188" y="785" type="curve" smooth="yes"/>
      <point x="-272" y="856"/>
      <point x="-441" y="820"/>
      <point x="-524" y="854" type="curve" smooth="yes"/>
      <point x="-553" y="866"/>
      <point x="-578" y="895"/>
      <point x="-592" y="924" type="curve"/>
      <point x="-623" y="908" type="line"/>
      <point x="-598" y="855"/>
      <point x="-568" y="807"/>
      <point x="-548" y="789" type="curve" smooth="yes"/>
      <point x="-484" y="728"/>
      <point x="-306" y="766"/>
      <point x="-207" y="722" type="curve" smooth="yes"/>
      <point x="-181" y="711"/>
      <point x="-156" y="679"/>
      <point x="-156" y="648" type="curve" smooth="yes"/>
      <point x="-156" y="639"/>
      <point x="-158" y="626"/>
      <point x="-169" y="608" type="curve"/>
    </contour>
  </outline>
  <guideline angle="90" x="-83" y="0"/>
</glyph>
<glyph name="dAnudatta" format="2">
  <unicode hex="0952"/>
  <outline>
    <contour>
      <point x="-382" y="-77" type="line"/>
      <point x="-382" y="-129" type="line"/>
      <point x="-63" y="-129" type="line"/>
      <point x="-63" y="-77" type="line"/>
    </contour>
  </outline>
</glyph>
<glyph name="dSignVocalicLl" format="2">
  <unicode hex="0963"/>
  <outline>
    <contour>
      <point x="-77" y="-369" type="line"/>
      <point x="-115" y="-358"/>
      <point x="-126" y="-344"/>
      <point x="-126" y="-328" type="curve" smooth="yes"/>
      <point x="-126" y="-284"/>
      <point x="-24" y="-247"/>
      <point x="-24" y="-157" type="curve" smooth="yes"/>
      <point x="-24" y="-83"/>
      <point x="-93" y="-29"/>
      <point x="-150" y="-29" type="curve" smooth="yes"/>
      <point x="-218" y="-29"/>
      <point x="-285" y="-111"/>
      <point x="-313" y="-181" type="curve"/>
      <point x="-249" y="-213" type="line"/>
      <point x="-207" y="-127"/>
      <point x="-161" y="-89"/>
      <point x="-122" y="-89" type="curve" smooth="yes"/>
      <point x="-96" y="-89"/>
      <point x="-81" y="-102"/>
      <point x="-81" y="-129" type="curve" smooth="yes"/>
      <point x="-81" y="-196"/>
      <point x="-187" y="-241"/>
      <point x="-187" y="-300" type="curve" smooth="yes"/>
      <point x="-187" y="-337"/>
      <point x="-158" y="-371"/>
      <point x="-96" y="-402" type="curve"/>
    </contour>
    <contour>
      <point x="-309" y="-366" type="line"/>
      <point x="-271" y="-335" type="line"/>
      <point x="-368" y="-262"/>
      <point x="-395" y="-223"/>
      <point x="-395" y="-174" type="curve" smooth="yes"/>
      <point x="-395" y="-118"/>
      <point x="-362" y="-85"/>
      <point x="-317" y="-85" type="curve" smooth="yes"/>
      <point x="-295" y="-85"/>
      <point x="-274" y="-93"/>
      <point x="-260" y="-106" type="curve"/>
      <point x="-237" y="-81" type="line"/>
      <point x="-266" y="-51"/>
      <point x="-298" y="-23"/>
      <point x="-347" y="-23" type="curve" smooth="yes"/>
      <point x="-418" y="-23"/>
      <point x="-462" y="-80"/>
      <point x="-462" y="-146" type="curve" smooth="yes"/>
      <point x="-462" y="-221"/>
      <point x="-403" y="-281"/>
      <point x="-316" y="-366" type="curve"/>
    </contour>
    <contour>
      <point x="1" y="-501" type="curve" smooth="yes"/>
      <point x="39" y="-501"/>
      <point x="77" y="-482"/>
      <point x="111" y="-433" type="curve"/>
      <point x="67" y="-388" type="line"/>
      <point x="31" y="-430"/>
      <point x="-1" y="-457"/>
      <point x="-29" y="-457" type="curve" smooth="yes"/>
      <point x="-41" y="-457"/>
      <point x="-54" y="-452"/>
      <point x="-54" y="-436" type="curve" smooth="yes"/>
      <point x="-54" y="-413"/>
      <point x="-27" y="-380"/>
      <point x="30" y="-347" type="curve"/>
      <point x="-14" y="-301" type="line"/>
      <point x="-68" y="-333"/>
      <point x="-110" y="-367"/>
      <point x="-110" y="-413" type="curve" smooth="yes"/>
      <point x="-110" y="-467"/>
      <point x="-48" y="-501"/>
    </contour>
  </outline>
</glyph>
<glyph name="DoubleDanda" format="2">
  <advance width="442"/>
  <unicode hex="0965"/>
  <outline>
    <contour>
      <point x="362" y="-15" type="line"/>
      <point x="362" y="578" type="line"/>
      <point x="286" y="628" type="line"/>
      <point x="276" y="628" type="line"/>
      <point x="276" y="35" type="line"/>
      <point x="352" y="-15" type="line"/>
    </contour>
    <contour>
      <point x="166" y="-13" type="line"/>
      <point x="166" y="580" type="line"/>
      <point x="90" y="630" type="line"/>
      <point x="80" y="630" type="line"/>
      <point x="80" y="37" type="line"/>
      <point x="156" y="-13" type="line"/>
    </contour>
  </outline>
</glyph>
<glyph name="dZero" format="2">
  <advance width="534"/>
  <unicode hex="0966"/>
  <outline>
    <contour>
      <point x="252" y="501" type="curve" smooth="yes"/>
      <point x="150" y="501"/>
      <point x="52" y="422"/>
      <point x="52" y="306" type="curve" smooth="yes"/>
      <point x="52" y="183"/>
      <point x="162" y="79"/>
      <point x="278" y="79" type="curve" smooth="yes"/>
      <point x="385" y="79"/>
      <point x="482" y="165"/>
      <point x="482" y="272" type="curve" smooth="yes"/>
      <point x="482" y="386"/>
      <point x="374" y="501"/>
    </contour>
    <contour>
      <point x="300" y="430" type="curve" smooth="yes"/>
      <point x="369" y="430"/>
      <point x="405" y="384"/>
      <point x="405" y="321" type="curve" smooth="yes"/>
      <point x="405" y="227"/>
      <point x="325" y="150"/>
      <point x="234" y="150" type="curve" smooth="yes"/>
      <point x="159" y="150"/>
      <point x="124" y="203"/>
      <point x="124" y="259" type="curve" smooth="yes"/>
      <point x="124" y="345"/>
      <point x="208" y="430"/>
    </contour>
  </outline>
</glyph>
<glyph name="dFive" format="2">
  <advance width="557"/>
  <unicode hex="096B"/>
  <outline>
    <contour>
      <point x="378" y="264" type="line"/>
      <point x="352" y="221"/>
      <point x="305" y="192"/>
      <point x="252" y="192" type="curve" smooth="yes"/>
      <point x="193" y="192"/>
      <point x="152" y="231"/>
      <point x="152" y="295" type="curve" smooth="yes"/>
      <point x="152" y="343"/>
      <point x="175" y="444"/>
      <point x="204" y="535" type="curve"/>
      <point x="126" y="592" type="line"/>
      <point x="116" y="592" type="line"/>
      <point x="90" y="500"/>
      <point x="71" y="383"/>
      <point x="71" y="339" type="curve" smooth="yes"/>
      <point x="71" y="226"/>
      <point x="196" y="118"/>
      <point x="293" y="118" type="curve" smooth="yes"/>
      <point x="346" y="118"/>
      <point x="400" y="152"/>
      <point x="431" y="180" type="curve" smooth="yes"/>
      <point x="471" y="216"/>
      <point x="492" y="258"/>
      <point x="492" y="279" type="curve" smooth="yes"/>
      <point x="492" y="322"/>
      <point x="421" y="367"/>
      <point x="380" y="367" type="curve" smooth="yes"/>
      <point x="355" y="367"/>
      <point x="346" y="350"/>
      <point x="346" y="336" type="curve" smooth="yes"/>
      <point x="346" y="316"/>
      <point x="366" y="244"/>
      <point x="386" y="220" type="curve"/>
      <point x="517" y="-143" type="line"/>
      <point x="527" y="-145" type="line"/>
      <point x="589" y="-123" type="line"/>
      <point x="412" y="271" type="line"/>
    </contour>
  </outline>
</glyph>
<glyph name="dSix" format="2">
  <advance width="543"/>
  <unicode hex="096C"/>
  <outline>
    <contour>
      <point x="511" y="-137" type="line"/>
      <point x="563" y="-104" type="line"/>
      <point x="400" y="124" type="line"/>
      <point x="371" y="102"/>
      <point x="328" y="85"/>
      <point x="281" y="85" type="curve" smooth="yes"/>
      <point x="209" y="85"/>
      <point x="171" y="117"/>
      <point x="171" y="168" type="curve" smooth="yes"/>
      <point x="171" y="229"/>
      <point x="223" y="300"/>
      <point x="421" y="311" type="curve"/>
      <point x="382" y="385" type="line"/>
      <point x="233" y="371"/>
      <point x="97" y="325"/>
      <point x="97" y="208" type="curve" smooth="yes"/>
      <point x="97" y="124"/>
      <point x="181" y="20"/>
      <point x="323" y="20" type="curve" smooth="yes"/>
      <point x="430" y="20"/>
      <point x="488" y="70"/>
      <point x="488" y="121" type="curve" smooth="yes"/>
      <point x="488" y="171"/>
      <point x="419" y="212"/>
      <point x="374" y="212" type="curve" smooth="yes"/>
      <point x="347" y="212"/>
      <point x="338" y="197"/>
      <point x="338" y="179" type="curve" smooth="yes"/>
      <point x="338" y="151"/>
      <point x="359" y="113"/>
      <point x="372" y="91" type="curve" smooth="yes"/>
      <point x="502" y="-137" type="line"/>
    </contour>
    <contour>
      <point x="228" y="348" type="line"/>
      <point x="193" y="352"/>
      <point x="149" y="382"/>
      <point x="149" y="432" type="curve" smooth="yes"/>
      <point x="149" y="497"/>
      <point x="225" y="517"/>
      <point x="293" y="517" type="curve" smooth="yes"/>
      <point x="326" y="517"/>
      <point x="362" y="513"/>
      <point x="387" y="509" type="curve"/>
      <point x="359" y="588" type="line"/>
      <point x="330" y="593"/>
      <point x="299" y="596"/>
      <point x="269" y="596" type="curve" smooth="yes"/>
      <point x="158" y="596"/>
      <point x="70" y="553"/>
      <point x="70" y="471" type="curve" smooth="yes"/>
      <point x="70" y="415"/>
      <point x="113" y="363"/>
      <point x="179" y="313" type="curve"/>
    </contour>
  </outline>
</glyph>
<glyph name="dSeven" format="2">
  <advance width="633"/>
  <unicode hex="096D"/>
  <outline>
    <contour>
      <point x="357" y="24" type="curve" smooth="yes"/>
      <point x="469" y="24"/>
      <point x="573" y="104"/>
      <point x="573" y="277" type="curve" smooth="yes"/>
      <point x="573" y="441"/>
      <point x="478" y="543"/>
      <point x="380" y="543" type="curve" smooth="yes"/>
      <point x="310" y="543"/>
      <point x="252" y="491"/>
      <point x="252" y="421" type="curve" smooth="yes"/>
      <point x="252" y="336"/>
      <point x="336" y="251"/>
      <point x="427" y="251" type="curve" smooth="yes"/>
      <point x="456" y="251"/>
      <point x="490" y="260"/>
      <point x="510" y="272" type="curve"/>
      <point x="510" y="357" type="line"/>
      <point x="486" y="330"/>
      <point x="431" y="313"/>
      <point x="400" y="313" type="curve" smooth="yes"/>
      <point x="358" y="313"/>
      <point x="333" y="341"/>
      <point x="333" y="386" type="curve" smooth="yes"/>
      <point x="333" y="439"/>
      <point x="369" y="475"/>
      <point x="413" y="475" type="curve" smooth="yes"/>
      <point x="467" y="475"/>
      <point x="500" y="418"/>
      <point x="500" y="307" type="curve" smooth="yes"/>
      <point x="500" y="190"/>
      <point x="450" y="105"/>
      <point x="344" y="105" type="curve" smooth="yes"/>
      <point x="200" y="105"/>
      <point x="102" y="265"/>
      <point x="73" y="586" type="curve"/>
      <point x="25" y="582" type="line"/>
      <point x="53" y="235"/>
      <point x="174" y="24"/>
    </contour>
  </outline>
</glyph>
<glyph name="SvastiRight" format="2">
  <advance width="826"/>
  <unicode hex="0FD5"/>
  <outline>
    <contour>
      <point x="451" y="7" type="line"/>
      <point x="451" y="545" type="line"/>
      <point x="726" y="545" type="line"/>
      <point x="726" y="555" type="line"/>
      <point x="692" y="620" type="line"/>
      <point x="375" y="620" type="line"/>
      <point x="375" y="82" type="line"/>
      <point x="100" y="82" type="line"/>
      <point x="100" y="72" type="line"/>
      <point x="134" y="7" type="line"/>
    </contour>
    <contour>
      <point x="655" y="0" type="line"/>
      <point x="720" y="34" type="line"/>
      <point x="720" y="351" type="line"/>
      <point x="182" y="351" type="line"/>
      <point x="182" y="626" type="line"/>
      <point x="172" y="626" type="line"/>
      <point x="107" y="592" type="line"/>
      <point x="107" y="275" type="line"/>
      <point x="645" y="275" type="line"/>
      <point x="645" y="0" type="line"/>
    </contour>
  </outline>
  <guideline angle="0" x="0" y="313"/>
  <guideline angle="90" x="409" y="0"/>
</glyph>
<glyph name="SvastiLeft" format="2">
  <advance width="826"/>
  <unicode hex="0FD6"/>
  <outline>
    <contour>
      <point x="692" y="7" type="line"/>
      <point x="726" y="72" type="line"/>
      <point x="726" y="82" type="line"/>
      <point x="451" y="82" type="line"/>
      <point x="451" y="620" type="line"/>
      <point x="134" y="620" type="line"/>
      <point x="100" y="555" type="line"/>
      <point x="100" y="545" type="line"/>
      <point x="375" y="545" type="line"/>
      <point x="375" y="7" type="line"/>
    </contour>
    <contour>
      <point x="181" y="0" type="line"/>
      <point x="181" y="275" type="line"/>
      <point x="719" y="275" type="line"/>
      <point x="719" y="592" type="line"/>
      <point x="654" y="626" type="line"/>
      <point x="644" y="626" type="line"/>
      <point x="644" y="351" type="line"/>
      <point x="106" y="351" type="line"/>
      <point x="106" y="34" type="line"/>
      <point x="171" y="0" type="line"/>
    </contour>
  </outline>
  <guideline angle="0" x="0" y="313"/>
  <guideline angle="90" x="417" y="0"/>
</glyph>
<glyph name="SvastiRightDots" format="2">
  <advance width="826"/>
  <unicode hex="0FD7"/>
  <outline>
    <contour>
      <point x="451" y="7" type="line"/>
      <point x="451" y="545" type="line"/>
      <point x="726" y="545" type="line"/>
      <point x="726" y="555" type="line"/>
      <point x="692" y="620" type="line"/>
      <point x="375" y="620" type="line"/>
      <point x="375" y="82" type="line"/>
      <point x="100" y="82" type="line"/>
      <point x="100" y="72" type="line"/>
      <point x="134" y="7" type="line"/>
    </contour>
    <contour>
      <point x="331" y="178" type="line"/>
      <point x="278" y="232" type="line"/>
      <point x="224" y="178" type="line"/>
      <point x="278" y="125" type="line"/>
    </contour>
    <contour>
      <point x="331" y="448" type="line"/>
      <point x="278" y="502" type="line"/>
      <point x="224" y="448" type="line"/>
      <point x="278" y="394" type="line"/>
    </contour>
    <contour>
      <point x="602" y="178" type="line"/>
      <point x="548" y="232" type="line"/>
      <point x="494" y="178" type="line"/>
      <point x="548" y="125" type="line"/>
    </contour>
    <contour>
      <point x="655" y="0" type="line"/>
      <point x="720" y="34" type="line"/>
      <point x="720" y="351" type="line"/>
      <point x="182" y="351" type="line"/>
      <point x="182" y="626" type="line"/>
      <point x="172" y="626" type="line"/>
      <point x="107" y="592" type="line"/>
      <point x="107" y="275" type="line"/>
      <point x="645" y="275" type="line"/>
      <point x="645" y="0" type="line"/>
    </contour>
    <contour>
      <point x="602" y="448" type="line"/>
      <point x="548" y="502" type="line"/>
      <point x="494" y="448" type="line"/>
      <point x="548" y="394" type="line"/>
    </contour>
  </outline>
  <guideline angle="0" x="0" y="306"/>
  <guideline angle="0" x="0" y="448"/>
  <guideline angle="0" x="0" y="178"/>
  <guideline angle="90" x="413" y="0"/>
  <guideline angle="90" x="278" y="0"/>
  <guideline angle="90" x="548" y="0"/>
</glyph>
<glyph name="vKarshana" format="2">
  <unicode hex="1CD0"/>
  <outline>
    <contour>
      <point x="-320" y="716" type="line"/>
      <point x="-265" y="668" type="line"/>
      <point x="-117" y="808" type="line"/>
      <point x="4" y="672" type="line"/>
      <point x="8" y="672" type="line"/>
      <point x="42" y="703" type="line"/>
      <point x="-130" y="890" type="line"/>
      <point x="-134" y="890" type="line"/>
      <point x="-319" y="724" type="line"/>
    </contour>
  </outline>
</glyph>
<glyph name="vShara" format="2">
  <unicode hex="1CD1"/>
  <outline>
    <contour>
      <point x="-323" y="782" type="line"/>
      <point x="-279" y="745" type="line"/>
      <point x="-127" y="888" type="line"/>
      <point x="1" y="743" type="line"/>
      <point x="5" y="743" type="line"/>
      <point x="38" y="773" type="line"/>
      <point x="-131" y="960" type="line"/>
      <point x="-135" y="960" type="line"/>
      <point x="-322" y="790" type="line"/>
    </contour>
    <contour>
      <point x="-154" y="843" type="line"/>
      <point x="-154" y="662" type="line"/>
      <point x="-108" y="662" type="line"/>
      <point x="-108" y="843" type="line"/>
    </contour>
  </outline>
  <guideline angle="0" x="0" y="712"/>
</glyph>
<glyph name="vPrenkha" format="2">
  <unicode hex="1CD2"/>
  <outline>
    <contour>
      <point x="-291" y="780" type="line"/>
      <point x="-291" y="728" type="line"/>
      <point x="28" y="728" type="line"/>
      <point x="28" y="780" type="line"/>
    </contour>
  </outline>
</glyph>
<glyph name="vSvaritaYajurAggravated" format="2">
  <unicode hex="1CD5"/>
  <outline>
    <contour>
      <point x="-533" y="-68" type="line"/>
      <point x="-507" y="-143"/>
      <point x="-451" y="-206"/>
      <point x="-366" y="-206" type="curve" smooth="yes"/>
      <point x="-303" y="-206"/>
      <point x="-254" y="-170"/>
      <point x="-224" y="-92" type="curve"/>
      <point x="-293" y="-46" type="line"/>
      <point x="-307" y="-85"/>
      <point x="-328" y="-139"/>
      <point x="-392" y="-139" type="curve" smooth="yes"/>
      <point x="-429" y="-139"/>
      <point x="-474" y="-121"/>
      <point x="-500" y="-49" type="curve"/>
    </contour>
    <contour>
      <point x="-252" y="-112" type="line"/>
      <point x="-228" y="-164"/>
      <point x="-187" y="-206"/>
      <point x="-117" y="-206" type="curve" smooth="yes"/>
      <point x="-57" y="-206"/>
      <point x="-6" y="-174"/>
      <point x="25" y="-92" type="curve"/>
      <point x="-46" y="-46" type="line"/>
      <point x="-59" y="-82"/>
      <point x="-80" y="-139"/>
      <point x="-144" y="-139" type="curve" smooth="yes"/>
      <point x="-172" y="-139"/>
      <point x="-206" y="-128"/>
      <point x="-224" y="-92" type="curve"/>
    </contour>
  </outline>
</glyph>
<glyph name="vCandraBelow" format="2">
  <unicode hex="1CD8"/>
  <outline>
    <contour>
      <point x="-448" y="-69" type="line"/>
      <point x="-394" y="-153"/>
      <point x="-318" y="-209"/>
      <point x="-215" y="-209" type="curve" smooth="yes"/>
      <point x="-135" y="-209"/>
      <point x="-54" y="-175"/>
      <point x="-8" y="-87" type="curve"/>
      <point x="-77" y="-36" type="line"/>
      <point x="-104" y="-84"/>
      <point x="-158" y="-142"/>
      <point x="-242" y="-142" type="curve" smooth="yes"/>
      <point x="-298" y="-142"/>
      <point x="-361" y="-116"/>
      <point x="-418" y="-44" type="curve"/>
    </contour>
  </outline>
  <guideline angle="90" x="-87" y="0"/>
</glyph>
<glyph name="vSvaritaYajurKathakaSchroeder" format="2">
  <unicode hex="1CD9"/>
  <outline>
    <contour>
      <point x="-290" y="-208" type="line"/>
      <point x="-235" y="-256" type="line"/>
      <point x="-109" y="-111" type="line"/>
      <point x="43" y="-252" type="line"/>
      <point x="47" y="-252" type="line"/>
      <point x="81" y="-221" type="line"/>
      <point x="-130" y="-36" type="line"/>
      <point x="-134" y="-36" type="line"/>
      <point x="-289" y="-200" type="line"/>
    </contour>
  </outline>
</glyph>
<glyph name="vSvarita3" format="2">
  <unicode hex="1CDB"/>
  <outline>
    <contour>
      <point x="-155" y="917" type="line"/>
      <point x="-155" y="672" type="line"/>
      <point x="-107" y="672" type="line"/>
      <point x="-107" y="917" type="line"/>
    </contour>
    <contour>
      <point x="-255" y="917" type="line"/>
      <point x="-255" y="672" type="line"/>
      <point x="-207" y="672" type="line"/>
      <point x="-207" y="917" type="line"/>
    </contour>
    <contour>
      <point x="-55" y="917" type="line"/>
      <point x="-55" y="672" type="line"/>
      <point x="-7" y="672" type="line"/>
      <point x="-7" y="917" type="line"/>
    </contour>
  </outline>
</glyph>
<glyph name="vAnudattaKathaka" format="2">
  <unicode hex="1CDC"/>
  <outline>
    <contour>
      <point x="-155" y="-50" type="line"/>
      <point x="-155" y="-295" type="line"/>
      <point x="-107" y="-295" type="line"/>
      <point x="-107" y="-50" type="line"/>
    </contour>
  </outline>
</glyph>
<glyph name="vDot3Below" format="2">
  <unicode hex="1CDF"/>
  <outline>
    <contour>
      <point x="-366" y="-100" type="line"/>
      <point x="-430" y="-165" type="line"/>
      <point x="-366" y="-228" type="line"/>
      <point x="-301" y="-165" type="line"/>
    </contour>
    <contour>
      <point x="-220" y="-100" type="line"/>
      <point x="-284" y="-165" type="line"/>
      <point x="-220" y="-228" type="line"/>
      <point x="-155" y="-165" type="line"/>
    </contour>
    <contour>
      <point x="-74" y="-100" type="line"/>
      <point x="-138" y="-165" type="line"/>
      <point x="-74" y="-228" type="line"/>
      <point x="-9" y="-165" type="line"/>
    </contour>
  </outline>
</glyph>
<glyph name="vSvaritaRigKashmiri" format="2">
  <unicode hex="1CE0"/>
  <outline>
    <contour>
      <point x="-73" y="721" type="line"/>
      <point x="-86" y="718"/>
      <point x="-107" y="715"/>
      <point x="-125" y="715" type="curve" smooth="yes"/>
      <point x="-163" y="715"/>
      <point x="-204" y="728"/>
      <point x="-204" y="769" type="curve" smooth="yes"/>
      <point x="-204" y="832"/>
      <point x="-111" y="853"/>
      <point x="-32" y="853" type="curve" smooth="yes"/>
      <point x="7" y="853"/>
      <point x="40" y="848"/>
      <point x="67" y="842" type="curve"/>
      <point x="70" y="852" type="line"/>
      <point x="36" y="919" type="line"/>
      <point x="8" y="925"/>
      <point x="-25" y="927"/>
      <point x="-50" y="927" type="curve" smooth="yes"/>
      <point x="-157" y="927"/>
      <point x="-268" y="892"/>
      <point x="-268" y="794" type="curve" smooth="yes"/>
      <point x="-268" y="736"/>
      <point x="-228" y="673"/>
      <point x="-123" y="673" type="curve" smooth="yes"/>
      <point x="-109" y="673"/>
      <point x="-92" y="674"/>
      <point x="-75" y="676" type="curve"/>
      <point x="-70" y="716" type="line"/>
    </contour>
  </outline>
</glyph>
<glyph name="vVisargaAnudattaReversedcomb" format="2">
  <unicode hex="1CE6"/>
  <outline>
    <contour>
      <point x="-81" y="234" type="line"/>
      <point x="-60" y="237"/>
      <point x="-35" y="239"/>
      <point x="-15" y="239" type="curve" smooth="yes"/>
      <point x="84" y="239"/>
      <point x="137" y="189"/>
      <point x="137" y="120" type="curve" smooth="yes"/>
      <point x="137" y="53"/>
      <point x="87" y="-6"/>
      <point x="5" y="-100" type="curve"/>
      <point x="33" y="-126" type="line"/>
      <point x="119" y="-31"/>
      <point x="199" y="51"/>
      <point x="199" y="150" type="curve" smooth="yes"/>
      <point x="199" y="266"/>
      <point x="96" y="315"/>
      <point x="-20" y="315" type="curve" smooth="yes"/>
      <point x="-53" y="315"/>
      <point x="-88" y="311"/>
      <point x="-121" y="303" type="curve"/>
      <point x="-123" y="299" type="line"/>
    </contour>
  </outline>
</glyph>
<glyph name="vAnusvaraAntargomukha" format="2">
  <advance width="785"/>
  <unicode hex="1CE9"/>
  <outline>
    <contour>
      <point x="124" y="322" type="line"/>
      <point x="298" y="339"/>
      <point x="387" y="396"/>
      <point x="387" y="488" type="curve" smooth="yes"/>
      <point x="387" y="555"/>
      <point x="341" y="630"/>
      <point x="255" y="630" type="curve" smooth="yes"/>
      <point x="163" y="630"/>
      <point x="80" y="545"/>
      <point x="80" y="382" type="curve" smooth="yes"/>
      <point x="80" y="160"/>
      <point x="233" y="7"/>
      <point x="431" y="7" type="curve" smooth="yes"/>
      <point x="618" y="7"/>
      <point x="735" y="144"/>
      <point x="735" y="354" type="curve" smooth="yes"/>
      <point x="735" y="541"/>
      <point x="643" y="633"/>
      <point x="548" y="633" type="curve" smooth="yes"/>
      <point x="482" y="633"/>
      <point x="434" y="588"/>
      <point x="434" y="522" type="curve" smooth="yes"/>
      <point x="434" y="420"/>
      <point x="546" y="366"/>
      <point x="676" y="340" type="curve"/>
      <point x="687" y="379" type="line"/>
      <point x="576" y="401"/>
      <point x="518" y="437"/>
      <point x="518" y="501" type="curve" smooth="yes"/>
      <point x="518" y="548"/>
      <point x="548" y="566"/>
      <point x="578" y="566" type="curve" smooth="yes"/>
      <point x="615" y="566"/>
      <point x="668" y="539"/>
      <point x="668" y="394" type="curve" smooth="yes"/>
      <point x="668" y="132"/>
      <point x="492" y="74"/>
      <point x="389" y="74" type="curve" smooth="yes"/>
      <point x="265" y="74"/>
      <point x="147" y="156"/>
      <point x="147" y="347" type="curve" smooth="yes"/>
      <point x="147" y="495"/>
      <point x="219" y="559"/>
      <point x="285" y="559" type="curve" smooth="yes"/>
      <point x="324" y="559"/>
      <point x="337" y="536"/>
      <point x="337" y="514" type="curve" smooth="yes"/>
      <point x="337" y="458"/>
      <point x="252" y="407"/>
      <point x="130" y="400" type="curve"/>
    </contour>
  </outline>
  <guideline angle="0" x="0" y="373"/>
</glyph>
<glyph name="vAnusvaraVamagomukha" format="2">
  <advance width="811"/>
  <unicode hex="1CEB"/>
  <outline>
    <contour>
      <point x="454" y="7" type="curve" smooth="yes"/>
      <point x="644" y="7"/>
      <point x="761" y="143"/>
      <point x="761" y="354" type="curve" smooth="yes"/>
      <point x="761" y="541"/>
      <point x="669" y="633"/>
      <point x="574" y="633" type="curve" smooth="yes"/>
      <point x="508" y="633"/>
      <point x="460" y="588"/>
      <point x="460" y="522" type="curve" smooth="yes"/>
      <point x="460" y="420"/>
      <point x="572" y="366"/>
      <point x="702" y="340" type="curve"/>
      <point x="713" y="379" type="line"/>
      <point x="602" y="401"/>
      <point x="544" y="437"/>
      <point x="544" y="501" type="curve" smooth="yes"/>
      <point x="544" y="548"/>
      <point x="574" y="566"/>
      <point x="604" y="566" type="curve" smooth="yes"/>
      <point x="641" y="566"/>
      <point x="694" y="539"/>
      <point x="694" y="394" type="curve" smooth="yes"/>
      <point x="694" y="130"/>
      <point x="518" y="73"/>
      <point x="413" y="73" type="curve" smooth="yes"/>
      <point x="304" y="73"/>
      <point x="230" y="133"/>
      <point x="194" y="222" type="curve"/>
      <point x="307" y="269"/>
      <point x="394" y="321"/>
      <point x="394" y="431" type="curve" smooth="yes"/>
      <point x="394" y="531"/>
      <point x="322" y="633"/>
      <point x="215" y="633" type="curve" smooth="yes"/>
      <point x="138" y="633"/>
      <point x="85" y="580"/>
      <point x="85" y="507" type="curve" smooth="yes"/>
      <point x="85" y="444"/>
      <point x="124" y="394"/>
      <point x="187" y="394" type="curve" smooth="yes"/>
      <point x="195" y="394"/>
      <point x="199" y="394"/>
      <point x="212" y="396" type="curve"/>
      <point x="212" y="407" type="line"/>
      <point x="186" y="420"/>
      <point x="161" y="441"/>
      <point x="161" y="479" type="curve" smooth="yes"/>
      <point x="161" y="531"/>
      <point x="210" y="566"/>
      <point x="253" y="566" type="curve" smooth="yes"/>
      <point x="293" y="566"/>
      <point x="325" y="537"/>
      <point x="325" y="475" type="curve" smooth="yes"/>
      <point x="325" y="377"/>
      <point x="245" y="332"/>
      <point x="117" y="285" type="curve"/>
      <point x="154" y="129"/>
      <point x="274" y="7"/>
    </contour>
  </outline>
</glyph>
<glyph name="vAnusvaraVamagomukhaTail" format="2">
  <advance width="927"/>
  <unicode hex="1CEC"/>
  <outline>
    <contour>
      <point x="454" y="7" type="curve" smooth="yes"/>
      <point x="644" y="7"/>
      <point x="761" y="143"/>
      <point x="761" y="354" type="curve" smooth="yes"/>
      <point x="761" y="539"/>
      <point x="669" y="633"/>
      <point x="574" y="633" type="curve" smooth="yes"/>
      <point x="508" y="633"/>
      <point x="460" y="588"/>
      <point x="460" y="522" type="curve" smooth="yes"/>
      <point x="460" y="419"/>
      <point x="575" y="369"/>
      <point x="715" y="343" type="curve" smooth="yes"/>
      <point x="803" y="327"/>
      <point x="841" y="296"/>
      <point x="841" y="235" type="curve" smooth="yes"/>
      <point x="841" y="191"/>
      <point x="815" y="144"/>
      <point x="790" y="102" type="curve"/>
      <point x="856" y="47" type="line"/>
      <point x="863" y="47" type="line"/>
      <point x="895" y="93"/>
      <point x="912" y="143"/>
      <point x="912" y="192" type="curve" smooth="yes"/>
      <point x="912" y="290"/>
      <point x="848" y="364"/>
      <point x="716" y="387" type="curve" smooth="yes"/>
      <point x="620" y="404"/>
      <point x="544" y="431"/>
      <point x="544" y="502" type="curve" smooth="yes"/>
      <point x="544" y="548"/>
      <point x="574" y="566"/>
      <point x="604" y="566" type="curve" smooth="yes"/>
      <point x="641" y="566"/>
      <point x="694" y="539"/>
      <point x="694" y="394" type="curve" smooth="yes"/>
      <point x="694" y="130"/>
      <point x="518" y="73"/>
      <point x="413" y="73" type="curve" smooth="yes"/>
      <point x="304" y="73"/>
      <point x="230" y="133"/>
      <point x="194" y="222" type="curve"/>
      <point x="307" y="269"/>
      <point x="394" y="321"/>
      <point x="394" y="431" type="curve" smooth="yes"/>
      <point x="394" y="531"/>
      <point x="322" y="633"/>
      <point x="215" y="633" type="curve" smooth="yes"/>
      <point x="138" y="633"/>
      <point x="85" y="580"/>
      <point x="85" y="507" type="curve" smooth="yes"/>
      <point x="85" y="444"/>
      <point x="124" y="394"/>
      <point x="187" y="394" type="curve" smooth="yes"/>
      <point x="195" y="394"/>
      <point x="199" y="394"/>
      <point x="212" y="396" type="curve"/>
      <point x="212" y="407" type="line"/>
      <point x="186" y="420"/>
      <point x="161" y="441"/>
      <point x="161" y="479" type="curve" smooth="yes"/>
      <point x="161" y="531"/>
      <point x="210" y="566"/>
      <point x="253" y="566" type="curve" smooth="yes"/>
      <point x="293" y="566"/>
      <point x="325" y="537"/>
      <point x="325" y="475" type="curve" smooth="yes"/>
      <point x="325" y="377"/>
      <point x="245" y="332"/>
      <point x="117" y="285" type="curve"/>
      <point x="154" y="129"/>
      <point x="274" y="7"/>
    </contour>
  </outline>
</glyph>
<glyph name="vAnusvaraLondHexiform" format="2">
  <advance width="640"/>
  <unicode hex="1CEE"/>
  <outline>
    <contour>
      <point x="413" y="-4" type="curve" smooth="yes"/>
      <point x="503" y="-4"/>
      <point x="552" y="54"/>
      <point x="552" y="94" type="curve" smooth="yes"/>
      <point x="552" y="140"/>
      <point x="489" y="177"/>
      <point x="447" y="177" type="curve" smooth="yes"/>
      <point x="421" y="177"/>
      <point x="407" y="162"/>
      <point x="407" y="139" type="curve" smooth="yes"/>
      <point x="407" y="122"/>
      <point x="415" y="102"/>
      <point x="429" y="77" type="curve"/>
      <point x="409" y="67"/>
      <point x="392" y="62"/>
      <point x="369" y="62" type="curve" smooth="yes"/>
      <point x="303" y="62"/>
      <point x="233" y="104"/>
      <point x="233" y="190" type="curve" smooth="yes"/>
      <point x="233" y="280"/>
      <point x="309" y="299"/>
      <point x="391" y="299" type="curve" smooth="yes"/>
      <point x="423" y="299"/>
      <point x="455" y="296"/>
      <point x="481" y="292" type="curve"/>
      <point x="481" y="302" type="line"/>
      <point x="446" y="370" type="line"/>
      <point x="418" y="374"/>
      <point x="389" y="375"/>
      <point x="370" y="375" type="curve" smooth="yes"/>
      <point x="237" y="375"/>
      <point x="159" y="327"/>
      <point x="159" y="235" type="curve" smooth="yes"/>
      <point x="159" y="117"/>
      <point x="285" y="-4"/>
    </contour>
    <contour>
      <point x="263" y="351" type="line"/>
      <point x="199" y="374"/>
      <point x="165" y="417"/>
      <point x="165" y="467" type="curve" smooth="yes"/>
      <point x="165" y="540"/>
      <point x="241" y="557"/>
      <point x="312" y="557" type="curve" smooth="yes"/>
      <point x="357" y="557"/>
      <point x="392" y="550"/>
      <point x="420" y="544" type="curve"/>
      <point x="420" y="554" type="line"/>
      <point x="385" y="623" type="line"/>
      <point x="356" y="629"/>
      <point x="325" y="633"/>
      <point x="288" y="633" type="curve" smooth="yes"/>
      <point x="190" y="633"/>
      <point x="90" y="604"/>
      <point x="90" y="509" type="curve" smooth="yes"/>
      <point x="90" y="441"/>
      <point x="142" y="373"/>
      <point x="218" y="326" type="curve"/>
    </contour>
    <contour>
      <point x="630" y="334" type="line"/>
      <point x="567" y="397" type="line"/>
      <point x="505" y="334" type="line"/>
      <point x="567" y="273" type="line"/>
    </contour>
  </outline>
  <guideline angle="0" x="0" y="402"/>
  <guideline angle="0" x="0" y="331"/>
  <guideline angle="0" x="0" y="56"/>
</glyph>
<glyph name="vAnusvaraLong" format="2">
  <advance width="533"/>
  <unicode hex="1CEF"/>
  <outline>
    <contour>
      <point x="427" y="375" type="line"/>
      <point x="390" y="366"/>
      <point x="356" y="362"/>
      <point x="326" y="362" type="curve" smooth="yes"/>
      <point x="226" y="362"/>
      <point x="165" y="405"/>
      <point x="165" y="469" type="curve" smooth="yes"/>
      <point x="165" y="541"/>
      <point x="241" y="557"/>
      <point x="311" y="557" type="curve" smooth="yes"/>
      <point x="357" y="557"/>
      <point x="392" y="550"/>
      <point x="420" y="544" type="curve"/>
      <point x="420" y="554" type="line"/>
      <point x="385" y="623" type="line"/>
      <point x="356" y="629"/>
      <point x="325" y="633"/>
      <point x="288" y="633" type="curve" smooth="yes"/>
      <point x="191" y="633"/>
      <point x="90" y="605"/>
      <point x="90" y="512" type="curve" smooth="yes"/>
      <point x="90" y="410"/>
      <point x="211" y="287"/>
      <point x="377" y="287" type="curve" smooth="yes"/>
      <point x="398" y="287"/>
      <point x="429" y="289"/>
      <point x="452" y="294" type="curve"/>
    </contour>
    <contour>
      <point x="309" y="523" type="line"/>
      <point x="248" y="461" type="line"/>
      <point x="309" y="401" type="line"/>
      <point x="371" y="461" type="line"/>
    </contour>
    <contour>
      <point x="260" y="361" type="line"/>
      <point x="201" y="286"/>
      <point x="173" y="235"/>
      <point x="173" y="183" type="curve" smooth="yes"/>
      <point x="173" y="84"/>
      <point x="272" y="-10"/>
      <point x="361" y="-10" type="curve" smooth="yes"/>
      <point x="425" y="-10"/>
      <point x="471" y="40"/>
      <point x="471" y="92" type="curve" smooth="yes"/>
      <point x="471" y="173"/>
      <point x="364" y="240"/>
      <point x="280" y="287" type="curve"/>
      <point x="254" y="252" type="line"/>
      <point x="342" y="205"/>
      <point x="392" y="169"/>
      <point x="392" y="123" type="curve" smooth="yes"/>
      <point x="392" y="89"/>
      <point x="366" y="59"/>
      <point x="319" y="59" type="curve" smooth="yes"/>
      <point x="269" y="59"/>
      <point x="243" y="92"/>
      <point x="243" y="134" type="curve" smooth="yes"/>
      <point x="243" y="195"/>
      <point x="300" y="278"/>
      <point x="346" y="334" type="curve"/>
    </contour>
  </outline>
</glyph>
<glyph name="vAnusvaraLongRthang" format="2">
  <advance width="545"/>
  <unicode hex="1CF0"/>
  <outline>
    <contour>
      <point x="302" y="334" type="line"/>
      <point x="384" y="283"/>
      <point x="421" y="242"/>
      <point x="421" y="183" type="curve" smooth="yes"/>
      <point x="421" y="99"/>
      <point x="346" y="65"/>
      <point x="281" y="65" type="curve" smooth="yes"/>
      <point x="210" y="65"/>
      <point x="151" y="106"/>
      <point x="151" y="182" type="curve" smooth="yes"/>
      <point x="151" y="250"/>
      <point x="198" y="275"/>
      <point x="246" y="292" type="curve" smooth="yes"/>
      <point x="296" y="310"/>
      <point x="346" y="321"/>
      <point x="346" y="363" type="curve" smooth="yes"/>
      <point x="346" y="397"/>
      <point x="314" y="426"/>
      <point x="287" y="463" type="curve" smooth="yes"/>
      <point x="269" y="488"/>
      <point x="250" y="516"/>
      <point x="250" y="549" type="curve" smooth="yes"/>
      <point x="250" y="596"/>
      <point x="278" y="632"/>
      <point x="342" y="632" type="curve" smooth="yes"/>
      <point x="370" y="632"/>
      <point x="394" y="625"/>
      <point x="416" y="616" type="curve"/>
      <point x="420" y="622" type="line"/>
      <point x="401" y="676"/>
      <point x="363" y="703"/>
      <point x="305" y="703" type="curve" smooth="yes"/>
      <point x="216" y="703"/>
      <point x="178" y="641"/>
      <point x="178" y="580" type="curve" smooth="yes"/>
      <point x="178" y="530"/>
      <point x="208" y="491"/>
      <point x="231" y="460" type="curve" smooth="yes"/>
      <point x="250" y="435"/>
      <point x="267" y="416"/>
      <point x="267" y="403" type="curve" smooth="yes"/>
      <point x="267" y="383"/>
      <point x="230" y="376"/>
      <point x="188" y="362" type="curve" smooth="yes"/>
      <point x="135" y="344"/>
      <point x="75" y="314"/>
      <point x="75" y="231" type="curve" smooth="yes"/>
      <point x="75" y="115"/>
      <point x="193" y="-6"/>
      <point x="323" y="-6" type="curve" smooth="yes"/>
      <point x="411" y="-6"/>
      <point x="500" y="49"/>
      <point x="500" y="152" type="curve" smooth="yes"/>
      <point x="500" y="228"/>
      <point x="452" y="299"/>
      <point x="332" y="361" type="curve"/>
    </contour>
    <contour>
      <point x="349" y="596" type="line"/>
      <point x="288" y="534" type="line"/>
      <point x="349" y="474" type="line"/>
      <point x="411" y="534" type="line"/>
    </contour>
  </outline>
</glyph>
<glyph name="vAnusvaraUbhayatoMukha" format="2">
  <advance width="496"/>
  <unicode hex="1CF1"/>
  <outline>
    <contour>
      <point x="431" y="555" type="line"/>
      <point x="396" y="622" type="line"/>
      <point x="364" y="628"/>
      <point x="327" y="633"/>
      <point x="287" y="633" type="curve" smooth="yes"/>
      <point x="189" y="633"/>
      <point x="92" y="604"/>
      <point x="92" y="512" type="curve" smooth="yes"/>
      <point x="92" y="443"/>
      <point x="146" y="396"/>
      <point x="227" y="339" type="curve" smooth="yes"/>
      <point x="331" y="266"/>
      <point x="368" y="241"/>
      <point x="368" y="185" type="curve" smooth="yes"/>
      <point x="368" y="119"/>
      <point x="317" y="87"/>
      <point x="256" y="87" type="curve" smooth="yes"/>
      <point x="196" y="87"/>
      <point x="150" y="117"/>
      <point x="90" y="218" type="curve"/>
      <point x="52" y="196" type="line"/>
      <point x="95" y="120"/>
      <point x="166" y="14"/>
      <point x="287" y="14" type="curve" smooth="yes"/>
      <point x="377" y="14"/>
      <point x="449" y="73"/>
      <point x="449" y="158" type="curve" smooth="yes"/>
      <point x="449" y="234"/>
      <point x="392" y="276"/>
      <point x="314" y="336" type="curve" smooth="yes"/>
      <point x="238" y="394"/>
      <point x="177" y="442"/>
      <point x="177" y="493" type="curve" smooth="yes"/>
      <point x="177" y="539"/>
      <point x="227" y="559"/>
      <point x="305" y="559" type="curve" smooth="yes"/>
      <point x="341" y="559"/>
      <point x="384" y="555"/>
      <point x="431" y="545" type="curve"/>
    </contour>
    <contour>
      <point x="247" y="261" type="line"/>
      <point x="186" y="199" type="line"/>
      <point x="247" y="139" type="line"/>
      <point x="309" y="199" type="line"/>
    </contour>
    <contour>
      <point x="315" y="518" type="line"/>
      <point x="254" y="456" type="line"/>
      <point x="315" y="396" type="line"/>
      <point x="377" y="456" type="line"/>
    </contour>
  </outline>
</glyph>
<glyph name="vUpadhmaniya" format="2">
  <advance width="776"/>
  <unicode hex="1CF6"/>
  <outline>
    <contour>
      <point x="141" y="188" type="line"/>
      <point x="296" y="212"/>
      <point x="350" y="292"/>
      <point x="350" y="365" type="curve" smooth="yes"/>
      <point x="350" y="439"/>
      <point x="294" y="508"/>
      <point x="212" y="508" type="curve" smooth="yes"/>
      <point x="134" y="508"/>
      <point x="58" y="446"/>
      <point x="58" y="342" type="curve" smooth="yes"/>
      <point x="58" y="215"/>
      <point x="176" y="32"/>
      <point x="399" y="32" type="curve" smooth="yes"/>
      <point x="573" y="32"/>
      <point x="718" y="144"/>
      <point x="718" y="304" type="curve" smooth="yes"/>
      <point x="718" y="430"/>
      <point x="631" y="511"/>
      <point x="541" y="511" type="curve" smooth="yes"/>
      <point x="474" y="511"/>
      <point x="423" y="465"/>
      <point x="423" y="398" type="curve" smooth="yes"/>
      <point x="423" y="308"/>
      <point x="514" y="247"/>
      <point x="615" y="208" type="curve"/>
      <point x="637" y="241" type="line"/>
      <point x="527" y="281"/>
      <point x="508" y="327"/>
      <point x="508" y="372" type="curve" smooth="yes"/>
      <point x="508" y="422"/>
      <point x="533" y="453"/>
      <point x="573" y="453" type="curve" smooth="yes"/>
      <point x="611" y="453"/>
      <point x="651" y="427"/>
      <point x="651" y="345" type="curve" smooth="yes"/>
      <point x="651" y="188"/>
      <point x="501" y="94"/>
      <point x="361" y="94" type="curve" smooth="yes"/>
      <point x="216" y="94"/>
      <point x="130" y="194"/>
      <point x="130" y="310" type="curve" smooth="yes"/>
      <point x="130" y="407"/>
      <point x="189" y="445"/>
      <point x="237" y="445" type="curve" smooth="yes"/>
      <point x="276" y="445"/>
      <point x="290" y="420"/>
      <point x="290" y="391" type="curve" smooth="yes"/>
      <point x="290" y="337"/>
      <point x="240" y="277"/>
      <point x="114" y="259" type="curve"/>
    </contour>
  </outline>
  <guideline angle="0" x="0" y="408"/>
</glyph>
<glyph name="vAtikrama" format="2">
  <advance width="250"/>
  <unicode hex="1CF7"/>
  <outline>
    <contour>
      <point x="120" y="-213" type="line"/>
      <point x="130" y="-213" type="line"/>
      <point x="163" y="677" type="line" smooth="yes"/>
      <point x="167" y="778"/>
      <point x="203" y="809"/>
      <point x="270" y="809" type="curve" smooth="yes"/>
      <point x="291" y="809"/>
      <point x="309" y="806"/>
      <point x="331" y="799" type="curve"/>
      <point x="333" y="808" type="line"/>
      <point x="300" y="870" type="line"/>
      <point x="287" y="877"/>
      <point x="263" y="881"/>
      <point x="241" y="881" type="curve" smooth="yes"/>
      <point x="150" y="881"/>
      <point x="117" y="816"/>
      <point x="111" y="721" type="curve" smooth="yes"/>
      <point x="54" y="-169" type="line"/>
    </contour>
  </outline>
  <guideline angle="0" x="0" y="375"/>
  <guideline angle="100.819" x="194" y="0"/>
</glyph>
<glyph name="vRing2Above" format="2">
  <unicode hex="1CF9"/>
  <outline>
    <contour>
      <point x="-365" y="786" type="curve" smooth="yes"/>
      <point x="-365" y="726"/>
      <point x="-318" y="679"/>
      <point x="-257" y="679" type="curve" smooth="yes"/>
      <point x="-198" y="679"/>
      <point x="-151" y="724"/>
      <point x="-151" y="784" type="curve" smooth="yes"/>
      <point x="-151" y="844"/>
      <point x="-197" y="892"/>
      <point x="-258" y="892" type="curve" smooth="yes"/>
      <point x="-317" y="892"/>
      <point x="-365" y="847"/>
    </contour>
    <contour>
      <point x="-324" y="784" type="curve" smooth="yes"/>
      <point x="-324" y="822"/>
      <point x="-297" y="851"/>
      <point x="-257" y="851" type="curve" smooth="yes"/>
      <point x="-221" y="851"/>
      <point x="-193" y="824"/>
      <point x="-193" y="786" type="curve" smooth="yes"/>
      <point x="-193" y="748"/>
      <point x="-220" y="720"/>
      <point x="-258" y="720" type="curve" smooth="yes"/>
      <point x="-296" y="720"/>
      <point x="-324" y="746"/>
    </contour>
    <contour>
      <point x="-111" y="786" type="curve" smooth="yes"/>
      <point x="-111" y="726"/>
      <point x="-64" y="679"/>
      <point x="-3" y="679" type="curve" smooth="yes"/>
      <point x="56" y="679"/>
      <point x="103" y="724"/>
      <point x="103" y="784" type="curve" smooth="yes"/>
      <point x="103" y="844"/>
      <point x="57" y="892"/>
      <point x="-4" y="892" type="curve" smooth="yes"/>
      <point x="-63" y="892"/>
      <point x="-111" y="847"/>
    </contour>
    <contour>
      <point x="-70" y="784" type="curve" smooth="yes"/>
      <point x="-70" y="822"/>
      <point x="-43" y="851"/>
      <point x="-3" y="851" type="curve" smooth="yes"/>
      <point x="33" y="851"/>
      <point x="61" y="824"/>
      <point x="61" y="786" type="curve" smooth="yes"/>
      <point x="61" y="748"/>
      <point x="34" y="720"/>
      <point x="-4" y="720" type="curve" smooth="yes"/>
      <point x="-42" y="720"/>
      <point x="-70" y="746"/>
    </contour>
  </outline>
</glyph>
<glyph name="vAnusvaraDblAntargomukha" format="2">
  <advance width="700"/>
  <unicode hex="1CFA"/>
  <outline>
    <contour>
      <point x="161" y="411" type="line"/>
      <point x="287" y="431"/>
      <point x="328" y="479"/>
      <point x="328" y="528" type="curve" smooth="yes"/>
      <point x="328" y="577"/>
      <point x="287" y="633"/>
      <point x="214" y="633" type="curve" smooth="yes"/>
      <point x="141" y="633"/>
      <point x="90" y="578"/>
      <point x="90" y="516" type="curve" smooth="yes"/>
      <point x="90" y="426"/>
      <point x="200" y="310"/>
      <point x="383" y="310" type="curve" smooth="yes"/>
      <point x="527" y="310"/>
      <point x="640" y="382"/>
      <point x="640" y="497" type="curve" smooth="yes"/>
      <point x="640" y="580"/>
      <point x="581" y="633"/>
      <point x="509" y="633" type="curve" smooth="yes"/>
      <point x="444" y="633"/>
      <point x="417" y="591"/>
      <point x="417" y="549" type="curve" smooth="yes"/>
      <point x="417" y="486"/>
      <point x="478" y="444"/>
      <point x="559" y="419" type="curve"/>
      <point x="581" y="446" type="line"/>
      <point x="493" y="473"/>
      <point x="487" y="511"/>
      <point x="487" y="527" type="curve" smooth="yes"/>
      <point x="487" y="556"/>
      <point x="506" y="578"/>
      <point x="537" y="578" type="curve" smooth="yes"/>
      <point x="562" y="578"/>
      <point x="582" y="564"/>
      <point x="582" y="524" type="curve" smooth="yes"/>
      <point x="582" y="436"/>
      <point x="482" y="373"/>
      <point x="357" y="373" type="curve" smooth="yes"/>
      <point x="232" y="373"/>
      <point x="157" y="437"/>
      <point x="157" y="501" type="curve" smooth="yes"/>
      <point x="157" y="548"/>
      <point x="196" y="573"/>
      <point x="234" y="573" type="curve" smooth="yes"/>
      <point x="264" y="573"/>
      <point x="272" y="557"/>
      <point x="272" y="543" type="curve" smooth="yes"/>
      <point x="272" y="512"/>
      <point x="231" y="485"/>
      <point x="133" y="471" type="curve"/>
    </contour>
    <contour>
      <point x="161" y="91" type="line"/>
      <point x="287" y="112"/>
      <point x="328" y="162"/>
      <point x="328" y="211" type="curve" smooth="yes"/>
      <point x="328" y="260"/>
      <point x="287" y="316"/>
      <point x="214" y="316" type="curve" smooth="yes"/>
      <point x="141" y="316"/>
      <point x="90" y="260"/>
      <point x="90" y="198" type="curve" smooth="yes"/>
      <point x="90" y="108"/>
      <point x="200" y="-10"/>
      <point x="384" y="-10" type="curve" smooth="yes"/>
      <point x="527" y="-10"/>
      <point x="640" y="62"/>
      <point x="640" y="175" type="curve" smooth="yes"/>
      <point x="640" y="255"/>
      <point x="583" y="311"/>
      <point x="510" y="311" type="curve" smooth="yes"/>
      <point x="446" y="311"/>
      <point x="419" y="269"/>
      <point x="419" y="227" type="curve" smooth="yes"/>
      <point x="419" y="165"/>
      <point x="478" y="125"/>
      <point x="559" y="99" type="curve"/>
      <point x="581" y="127" type="line"/>
      <point x="493" y="153"/>
      <point x="489" y="189"/>
      <point x="489" y="203" type="curve" smooth="yes"/>
      <point x="489" y="235"/>
      <point x="508" y="256"/>
      <point x="537" y="256" type="curve" smooth="yes"/>
      <point x="564" y="256"/>
      <point x="582" y="239"/>
      <point x="582" y="202" type="curve" smooth="yes"/>
      <point x="582" y="115"/>
      <point x="482" y="54"/>
      <point x="359" y="54" type="curve" smooth="yes"/>
      <point x="232" y="54"/>
      <point x="157" y="119"/>
      <point x="157" y="184" type="curve" smooth="yes"/>
      <point x="157" y="231"/>
      <point x="196" y="256"/>
      <point x="234" y="256" type="curve" smooth="yes"/>
      <point x="264" y="256"/>
      <point x="272" y="241"/>
      <point x="272" y="227" type="curve" smooth="yes"/>
      <point x="272" y="195"/>
      <point x="231" y="166"/>
      <point x="133" y="151" type="curve"/>
    </contour>
  </outline>
  <guideline angle="0" x="0" y="373"/>
</glyph>
<glyph name="dTwocomb" format="2">
  <unicode hex="A8E2"/>
  <outline>
    <contour>
      <point x="-94" y="644" type="line"/>
      <point x="-64" y="660" type="line"/>
      <point x="-139" y="773" type="line"/>
      <point x="-143" y="791" type="line"/>
      <point x="-163" y="816"/>
      <point x="-179" y="838"/>
      <point x="-194" y="838" type="curve" smooth="yes"/>
      <point x="-204" y="838"/>
      <point x="-215" y="827"/>
      <point x="-215" y="797" type="curve" smooth="yes"/>
      <point x="-215" y="764"/>
      <point x="-201" y="753"/>
      <point x="-166" y="753" type="curve" smooth="yes"/>
      <point x="-123" y="753"/>
      <point x="-51" y="784"/>
      <point x="-51" y="853" type="curve" smooth="yes"/>
      <point x="-51" y="907"/>
      <point x="-96" y="945"/>
      <point x="-150" y="945" type="curve" smooth="yes"/>
      <point x="-176" y="945"/>
      <point x="-208" y="936"/>
      <point x="-236" y="921" type="curve"/>
      <point x="-213" y="881" type="line"/>
      <point x="-185" y="896"/>
      <point x="-149" y="908"/>
      <point x="-126" y="908" type="curve" smooth="yes"/>
      <point x="-99" y="908"/>
      <point x="-89" y="895"/>
      <point x="-89" y="872" type="curve" smooth="yes"/>
      <point x="-89" y="831"/>
      <point x="-121" y="802"/>
      <point x="-179" y="798" type="curve"/>
      <point x="-99" y="644" type="line"/>
    </contour>
  </outline>
  <guideline angle="90" x="86" y="0"/>
</glyph>
<glyph name="dThreecomb" format="2">
  <unicode hex="A8E3"/>
  <outline>
    <contour>
      <point x="-121" y="638" type="line"/>
      <point x="-94" y="655" type="line"/>
      <point x="-144" y="720" type="line"/>
      <point x="-144" y="730" type="line"/>
      <point x="-179" y="777"/>
      <point x="-193" y="789"/>
      <point x="-208" y="789" type="curve" smooth="yes"/>
      <point x="-220" y="789"/>
      <point x="-227" y="778"/>
      <point x="-227" y="759" type="curve" smooth="yes"/>
      <point x="-227" y="724"/>
      <point x="-202" y="706"/>
      <point x="-140" y="706" type="curve" smooth="yes"/>
      <point x="-107" y="706"/>
      <point x="-54" y="726"/>
      <point x="-54" y="774" type="curve" smooth="yes"/>
      <point x="-54" y="821"/>
      <point x="-113" y="859"/>
      <point x="-149" y="859" type="curve" smooth="yes"/>
      <point x="-165" y="859"/>
      <point x="-190" y="851"/>
      <point x="-204" y="843" type="curve"/>
      <point x="-182" y="806" type="line"/>
      <point x="-168" y="813"/>
      <point x="-145" y="819"/>
      <point x="-128" y="819" type="curve" smooth="yes"/>
      <point x="-108" y="819"/>
      <point x="-93" y="810"/>
      <point x="-93" y="788" type="curve" smooth="yes"/>
      <point x="-93" y="763"/>
      <point x="-113" y="744"/>
      <point x="-165" y="746" type="curve"/>
      <point x="-168" y="714" type="line"/>
      <point x="-126" y="638" type="line"/>
    </contour>
    <contour>
      <point x="-102" y="826" type="line"/>
      <point x="-82" y="839"/>
      <point x="-75" y="851"/>
      <point x="-75" y="870" type="curve" smooth="yes"/>
      <point x="-75" y="916"/>
      <point x="-120" y="947"/>
      <point x="-161" y="947" type="curve" smooth="yes"/>
      <point x="-182" y="947"/>
      <point x="-210" y="937"/>
      <point x="-234" y="926" type="curve"/>
      <point x="-212" y="888" type="line"/>
      <point x="-187" y="900"/>
      <point x="-160" y="909"/>
      <point x="-140" y="909" type="curve" smooth="yes"/>
      <point x="-123" y="909"/>
      <point x="-111" y="903"/>
      <point x="-111" y="888" type="curve" smooth="yes"/>
      <point x="-111" y="874"/>
      <point x="-124" y="856"/>
      <point x="-143" y="850" type="curve"/>
    </contour>
  </outline>
  <guideline angle="90" x="96" y="0"/>
</glyph>
<glyph name="dFivecomb" format="2">
  <unicode hex="A8E5"/>
  <outline>
    <contour>
      <point x="0" y="651" type="line"/>
      <point x="-79" y="817" type="line"/>
      <point x="-88" y="799"/>
      <point x="-117" y="776"/>
      <point x="-147" y="776" type="curve" smooth="yes"/>
      <point x="-174" y="776"/>
      <point x="-190" y="792"/>
      <point x="-190" y="819" type="curve" smooth="yes"/>
      <point x="-190" y="840"/>
      <point x="-178" y="883"/>
      <point x="-164" y="923" type="curve"/>
      <point x="-207" y="947" type="line"/>
      <point x="-215" y="947" type="line"/>
      <point x="-224" y="909"/>
      <point x="-232" y="861"/>
      <point x="-232" y="843" type="curve" smooth="yes"/>
      <point x="-232" y="789"/>
      <point x="-173" y="736"/>
      <point x="-126" y="736" type="curve" smooth="yes"/>
      <point x="-80" y="736"/>
      <point x="-34" y="783"/>
      <point x="-34" y="810" type="curve" smooth="yes"/>
      <point x="-34" y="831"/>
      <point x="-69" y="858"/>
      <point x="-91" y="858" type="curve" smooth="yes"/>
      <point x="-103" y="858"/>
      <point x="-108" y="849"/>
      <point x="-108" y="842" type="curve" smooth="yes"/>
      <point x="-108" y="834"/>
      <point x="-104" y="813"/>
      <point x="-90" y="784" type="curve"/>
      <point x="-86" y="777" type="line"/>
      <point x="-37" y="641" type="line"/>
      <point x="-32" y="640" type="line"/>
    </contour>
  </outline>
  <guideline angle="90" x="99" y="0"/>
</glyph>
<glyph name="dSixcomb" format="2">
  <unicode hex="A8E6"/>
  <outline>
    <contour>
      <point x="-33" y="638" type="line"/>
      <point x="-6" y="655" type="line"/>
      <point x="-85" y="761" type="line"/>
      <point x="-97" y="751"/>
      <point x="-116" y="741"/>
      <point x="-142" y="741" type="curve" smooth="yes"/>
      <point x="-161" y="741"/>
      <point x="-181" y="747"/>
      <point x="-181" y="771" type="curve" smooth="yes"/>
      <point x="-181" y="795"/>
      <point x="-160" y="820"/>
      <point x="-75" y="821" type="curve"/>
      <point x="-96" y="860" type="line"/>
      <point x="-152" y="859"/>
      <point x="-219" y="840"/>
      <point x="-219" y="788" type="curve" smooth="yes"/>
      <point x="-219" y="744"/>
      <point x="-167" y="705"/>
      <point x="-118" y="705" type="curve" smooth="yes"/>
      <point x="-93" y="705"/>
      <point x="-39" y="718"/>
      <point x="-39" y="751" type="curve" smooth="yes"/>
      <point x="-39" y="773"/>
      <point x="-71" y="793"/>
      <point x="-92" y="793" type="curve" smooth="yes"/>
      <point x="-106" y="793"/>
      <point x="-109" y="786"/>
      <point x="-109" y="777" type="curve" smooth="yes"/>
      <point x="-109" y="758"/>
      <point x="-95" y="739"/>
      <point x="-88" y="726" type="curve" smooth="yes"/>
      <point x="-37" y="638" type="line"/>
    </contour>
    <contour>
      <point x="-166" y="843" type="line"/>
      <point x="-180" y="850"/>
      <point x="-192" y="860"/>
      <point x="-192" y="874" type="curve" smooth="yes"/>
      <point x="-192" y="898"/>
      <point x="-161" y="904"/>
      <point x="-132" y="904" type="curve" smooth="yes"/>
      <point x="-117" y="904"/>
      <point x="-100" y="902"/>
      <point x="-89" y="900" type="curve"/>
      <point x="-103" y="942" type="line"/>
      <point x="-117" y="944"/>
      <point x="-131" y="946"/>
      <point x="-147" y="946" type="curve" smooth="yes"/>
      <point x="-195" y="946"/>
      <point x="-233" y="929"/>
      <point x="-233" y="896" type="curve" smooth="yes"/>
      <point x="-233" y="873"/>
      <point x="-215" y="851"/>
      <point x="-188" y="829" type="curve"/>
    </contour>
  </outline>
  <guideline angle="0" x="0" y="153"/>
  <guideline angle="0" x="0" y="126"/>
  <guideline angle="0" x="0" y="21"/>
  <guideline angle="0" x="0" y="838"/>
  <guideline angle="0" x="0" y="801"/>
  <guideline angle="90" x="100" y="0"/>
</glyph>
<glyph name="dEightcomb" format="2">
  <unicode hex="A8E8"/>
  <outline>
    <contour>
      <point x="-70" y="755" type="line"/>
      <point x="-96" y="731"/>
      <point x="-117" y="718"/>
      <point x="-143" y="718" type="curve" smooth="yes"/>
      <point x="-168" y="718"/>
      <point x="-184" y="730"/>
      <point x="-184" y="751" type="curve" smooth="yes"/>
      <point x="-184" y="777"/>
      <point x="-156" y="814"/>
      <point x="-63" y="899" type="curve"/>
      <point x="-85" y="939" type="line"/>
      <point x="-88" y="939" type="line"/>
      <point x="-199" y="840"/>
      <point x="-223" y="800"/>
      <point x="-223" y="773" type="curve" smooth="yes"/>
      <point x="-223" y="741"/>
      <point x="-187" y="681"/>
      <point x="-122" y="681" type="curve" smooth="yes"/>
      <point x="-89" y="681"/>
      <point x="-63" y="696"/>
      <point x="-37" y="722" type="curve"/>
    </contour>
  </outline>
  <guideline angle="90" x="100" y="0"/>
</glyph>
<glyph name="dNinecomb" format="2">
  <unicode hex="A8E9"/>
  <outline>
    <contour>
      <point x="-133" y="783" type="line"/>
      <point x="-94" y="790"/>
      <point x="-52" y="821"/>
      <point x="-52" y="860" type="curve" smooth="yes"/>
      <point x="-52" y="899"/>
      <point x="-95" y="946"/>
      <point x="-147" y="946" type="curve" smooth="yes"/>
      <point x="-193" y="946"/>
      <point x="-223" y="910"/>
      <point x="-223" y="878" type="curve" smooth="yes"/>
      <point x="-223" y="852"/>
      <point x="-206" y="833"/>
      <point x="-156" y="783" type="curve" smooth="yes"/>
      <point x="-89" y="717"/>
      <point x="-88" y="710"/>
      <point x="-88" y="700" type="curve" smooth="yes"/>
      <point x="-88" y="689"/>
      <point x="-92" y="683"/>
      <point x="-102" y="678" type="curve"/>
      <point x="-71" y="645" type="line"/>
      <point x="-53" y="654"/>
      <point x="-42" y="667"/>
      <point x="-42" y="679" type="curve" smooth="yes"/>
      <point x="-42" y="697"/>
      <point x="-69" y="735"/>
      <point x="-137" y="801" type="curve" smooth="yes"/>
      <point x="-172" y="835"/>
      <point x="-179" y="840"/>
      <point x="-179" y="860" type="curve" smooth="yes"/>
      <point x="-179" y="890"/>
      <point x="-154" y="910"/>
      <point x="-129" y="910" type="curve" smooth="yes"/>
      <point x="-109" y="910"/>
      <point x="-95" y="897"/>
      <point x="-95" y="877" type="curve" smooth="yes"/>
      <point x="-95" y="847"/>
      <point x="-127" y="820"/>
      <point x="-169" y="816" type="curve"/>
    </contour>
  </outline>
</glyph>
<glyph name="dUcomb" format="2">
  <unicode hex="A8EB"/>
  <outline>
    <contour>
      <point x="-125" y="680" type="curve" smooth="yes"/>
      <point x="-77" y="680"/>
      <point x="-41" y="709"/>
      <point x="-41" y="755" type="curve" smooth="yes"/>
      <point x="-41" y="789"/>
      <point x="-62" y="811"/>
      <point x="-95" y="835" type="curve"/>
      <point x="-148" y="800" type="line"/>
      <point x="-137" y="800"/>
      <point x="-128" y="805"/>
      <point x="-116" y="805" type="curve" smooth="yes"/>
      <point x="-95" y="805"/>
      <point x="-82" y="791"/>
      <point x="-82" y="769" type="curve" smooth="yes"/>
      <point x="-82" y="739"/>
      <point x="-107" y="721"/>
      <point x="-138" y="721" type="curve" smooth="yes"/>
      <point x="-191" y="721"/>
      <point x="-224" y="776"/>
      <point x="-245" y="816" type="curve"/>
      <point x="-264" y="804" type="line"/>
      <point x="-230" y="738"/>
      <point x="-194" y="680"/>
    </contour>
    <contour>
      <point x="-175" y="793" type="line"/>
      <point x="-112" y="803"/>
      <point x="-70" y="823"/>
      <point x="-70" y="870" type="curve" smooth="yes"/>
      <point x="-70" y="884"/>
      <point x="-75" y="896"/>
      <point x="-86" y="912" type="curve"/>
      <point x="-119" y="912" type="line"/>
      <point x="-114" y="900"/>
      <point x="-110" y="891"/>
      <point x="-110" y="880" type="curve" smooth="yes"/>
      <point x="-110" y="861"/>
      <point x="-121" y="847"/>
      <point x="-197" y="834" type="curve"/>
      <point x="-197" y="831" type="line"/>
    </contour>
    <contour>
      <point x="-17" y="903" type="line"/>
      <point x="-17" y="907" type="line"/>
      <point x="-35" y="943" type="line"/>
      <point x="-283" y="943" type="line"/>
      <point x="-283" y="938" type="line"/>
      <point x="-264" y="903" type="line"/>
    </contour>
  </outline>
  <guideline angle="90" x="89" y="0"/>
</glyph>
<glyph name="dKacomb" format="2">
  <unicode hex="A8EC"/>
  <outline>
    <contour>
      <point x="-32" y="705" type="line"/>
      <point x="-13" y="731"/>
      <point x="-2" y="752"/>
      <point x="-2" y="779" type="curve" smooth="yes"/>
      <point x="-2" y="829"/>
      <point x="-42" y="860"/>
      <point x="-64" y="860" type="curve" smooth="yes"/>
      <point x="-83" y="860"/>
      <point x="-104" y="841"/>
      <point x="-124" y="827" type="curve"/>
      <point x="-144" y="812" type="line" smooth="yes"/>
      <point x="-172" y="791"/>
      <point x="-201" y="768"/>
      <point x="-226" y="768" type="curve" smooth="yes"/>
      <point x="-240" y="768"/>
      <point x="-252" y="778"/>
      <point x="-252" y="795" type="curve" smooth="yes"/>
      <point x="-252" y="818"/>
      <point x="-231" y="833"/>
      <point x="-208" y="833" type="curve" smooth="yes"/>
      <point x="-189" y="833"/>
      <point x="-177" y="823"/>
      <point x="-164" y="812" type="curve"/>
      <point x="-152" y="801" type="line"/>
      <point x="-152" y="829" type="line"/>
      <point x="-169" y="852"/>
      <point x="-195" y="873"/>
      <point x="-225" y="873" type="curve" smooth="yes"/>
      <point x="-259" y="873"/>
      <point x="-292" y="845"/>
      <point x="-292" y="808" type="curve" smooth="yes"/>
      <point x="-292" y="771"/>
      <point x="-260" y="730"/>
      <point x="-215" y="730" type="curve" smooth="yes"/>
      <point x="-189" y="730"/>
      <point x="-170" y="743"/>
      <point x="-142" y="763" type="curve" smooth="yes"/>
      <point x="-127" y="774" type="line"/>
      <point x="-94" y="800"/>
      <point x="-69" y="821"/>
      <point x="-49" y="821" type="curve" smooth="yes"/>
      <point x="-39" y="821"/>
      <point x="-34" y="814"/>
      <point x="-34" y="805" type="curve" smooth="yes"/>
      <point x="-34" y="787"/>
      <point x="-50" y="757"/>
      <point x="-69" y="734" type="curve"/>
      <point x="-35" y="705" type="line"/>
    </contour>
    <contour>
      <point x="-109" y="668" type="line"/>
      <point x="-110" y="925" type="line"/>
      <point x="-156" y="925" type="line"/>
      <point x="-157" y="690" type="line"/>
      <point x="-124" y="668" type="line"/>
    </contour>
    <contour>
      <point x="24" y="903" type="line"/>
      <point x="24" y="907" type="line"/>
      <point x="5" y="943" type="line"/>
      <point x="-313" y="943" type="line"/>
      <point x="-313" y="939" type="line"/>
      <point x="-294" y="903" type="line"/>
    </contour>
  </outline>
  <guideline angle="90" x="134" y="0"/>
</glyph>
<glyph name="dNacomb" format="2">
  <unicode hex="A8ED"/>
  <outline>
    <contour>
      <point x="-192" y="751" type="curve" smooth="yes"/>
      <point x="-177" y="751"/>
      <point x="-174" y="764"/>
      <point x="-174" y="798" type="curve"/>
      <point x="-96" y="798" type="line"/>
      <point x="-93" y="836" type="line"/>
      <point x="-147" y="839"/>
      <point x="-199" y="840"/>
      <point x="-215" y="840" type="curve" smooth="yes"/>
      <point x="-237" y="840"/>
      <point x="-252" y="838"/>
      <point x="-252" y="818" type="curve" smooth="yes"/>
      <point x="-252" y="787"/>
      <point x="-217" y="751"/>
    </contour>
    <contour>
      <point x="-58" y="668" type="line"/>
      <point x="-59" y="924" type="line"/>
      <point x="-105" y="924" type="line"/>
      <point x="-106" y="690" type="line"/>
      <point x="-73" y="668" type="line"/>
    </contour>
    <contour>
      <point x="-5" y="903" type="line"/>
      <point x="-5" y="907" type="line"/>
      <point x="-24" y="943" type="line"/>
      <point x="-284" y="943" type="line"/>
      <point x="-284" y="939" type="line"/>
      <point x="-265" y="903" type="line"/>
    </contour>
  </outline>
  <guideline angle="90" x="76" y="0"/>
</glyph>
<glyph name="dPacomb" format="2">
  <unicode hex="A8EE"/>
  <outline>
    <contour>
      <point x="-149" y="746" type="curve" smooth="yes"/>
      <point x="-128" y="746"/>
      <point x="-116" y="753"/>
      <point x="-90" y="768" type="curve"/>
      <point x="-91" y="824" type="line"/>
      <point x="-123" y="798"/>
      <point x="-150" y="784"/>
      <point x="-168" y="784" type="curve" smooth="yes"/>
      <point x="-182" y="784"/>
      <point x="-195" y="790"/>
      <point x="-195" y="817" type="curve" smooth="yes"/>
      <point x="-195" y="927" type="line"/>
      <point x="-241" y="927" type="line"/>
      <point x="-241" y="884"/>
      <point x="-242" y="860"/>
      <point x="-242" y="826" type="curve" smooth="yes"/>
      <point x="-242" y="801"/>
      <point x="-203" y="746"/>
    </contour>
    <contour>
      <point x="-58" y="668" type="line"/>
      <point x="-59" y="927" type="line"/>
      <point x="-105" y="927" type="line"/>
      <point x="-105" y="792" type="line"/>
      <point x="-106" y="787" type="line"/>
      <point x="-106" y="690" type="line"/>
      <point x="-72" y="668" type="line"/>
    </contour>
    <contour>
      <point x="-5" y="903" type="line"/>
      <point x="-5" y="907" type="line"/>
      <point x="-24" y="943" type="line"/>
      <point x="-292" y="943" type="line"/>
      <point x="-292" y="939" type="line"/>
      <point x="-273" y="903" type="line"/>
    </contour>
  </outline>
  <guideline angle="90" x="96" y="0"/>
</glyph>
<glyph name="dRacomb" format="2">
  <unicode hex="A8EF"/>
  <outline>
    <contour>
      <point x="-142" y="917" type="line"/>
      <point x="-139" y="901"/>
      <point x="-139" y="888"/>
      <point x="-139" y="873" type="curve" smooth="yes"/>
      <point x="-139" y="861"/>
      <point x="-140" y="849"/>
      <point x="-142" y="841" type="curve"/>
      <point x="-153" y="842"/>
      <point x="-162" y="844"/>
      <point x="-174" y="844" type="curve" smooth="yes"/>
      <point x="-199" y="844"/>
      <point x="-204" y="836"/>
      <point x="-204" y="828" type="curve" smooth="yes"/>
      <point x="-204" y="817"/>
      <point x="-195" y="800"/>
      <point x="-174" y="775" type="curve" smooth="yes"/>
      <point x="-86" y="668" type="line"/>
      <point x="-82" y="668" type="line"/>
      <point x="-56" y="690" type="line"/>
      <point x="-145" y="778" type="line"/>
      <point x="-114" y="784"/>
      <point x="-94" y="798"/>
      <point x="-94" y="865" type="curve" smooth="yes"/>
      <point x="-94" y="884"/>
      <point x="-95" y="899"/>
      <point x="-98" y="917" type="curve"/>
    </contour>
    <contour>
      <point x="-35" y="903" type="line"/>
      <point x="-35" y="907" type="line"/>
      <point x="-54" y="943" type="line"/>
      <point x="-235" y="943" type="line"/>
      <point x="-235" y="939" type="line"/>
      <point x="-216" y="903" type="line"/>
    </contour>
  </outline>
  <guideline angle="90" x="68" y="0"/>
</glyph>
<glyph name="dAvagrahacomb" format="2">
  <unicode hex="A8F1"/>
  <outline>
    <contour>
      <point x="-64" y="910" type="line"/>
      <point x="-82" y="945" type="line"/>
      <point x="-100" y="947"/>
      <point x="-116" y="948"/>
      <point x="-129" y="948" type="curve" smooth="yes"/>
      <point x="-204" y="948"/>
      <point x="-220" y="918"/>
      <point x="-220" y="893" type="curve" smooth="yes"/>
      <point x="-220" y="865"/>
      <point x="-201" y="849"/>
      <point x="-155" y="818" type="curve" smooth="yes"/>
      <point x="-118" y="793"/>
      <point x="-100" y="781"/>
      <point x="-100" y="759" type="curve" smooth="yes"/>
      <point x="-100" y="733"/>
      <point x="-124" y="721"/>
      <point x="-150" y="721" type="curve" smooth="yes"/>
      <point x="-172" y="721"/>
      <point x="-190" y="730"/>
      <point x="-215" y="772" type="curve"/>
      <point x="-236" y="760" type="line"/>
      <point x="-217" y="726"/>
      <point x="-184" y="680"/>
      <point x="-131" y="680" type="curve" smooth="yes"/>
      <point x="-89" y="680"/>
      <point x="-56" y="708"/>
      <point x="-56" y="746" type="curve" smooth="yes"/>
      <point x="-56" y="785"/>
      <point x="-89" y="810"/>
      <point x="-120" y="830" type="curve" smooth="yes"/>
      <point x="-143" y="845"/>
      <point x="-173" y="859"/>
      <point x="-173" y="884" type="curve" smooth="yes"/>
      <point x="-173" y="898"/>
      <point x="-164" y="908"/>
      <point x="-123" y="908" type="curve" smooth="yes"/>
      <point x="-110" y="908"/>
      <point x="-90" y="907"/>
      <point x="-64" y="905" type="curve"/>
    </contour>
  </outline>
  <guideline angle="90" x="81" y="0"/>
</glyph>
<glyph name="dCandrabinduSpacing" format="2">
  <advance width="550"/>
  <unicode hex="A8F2"/>
  <outline>
    <contour>
      <point x="55" y="352" type="line"/>
      <point x="104" y="258"/>
      <point x="181" y="198"/>
      <point x="288" y="198" type="curve" smooth="yes"/>
      <point x="369" y="198"/>
      <point x="454" y="232"/>
      <point x="500" y="328" type="curve"/>
      <point x="431" y="381" type="line"/>
      <point x="405" y="327"/>
      <point x="352" y="263"/>
      <point x="260" y="263" type="curve" smooth="yes"/>
      <point x="211" y="263"/>
      <point x="146" y="282"/>
      <point x="88" y="371" type="curve"/>
    </contour>
    <contour>
      <point x="260" y="460" type="line"/>
      <point x="195" y="394" type="line"/>
      <point x="260" y="329" type="line"/>
      <point x="326" y="393" type="line"/>
    </contour>
  </outline>
</glyph>
<glyph name="dCandrabinduVirama" format="2">
  <advance width="555"/>
  <unicode hex="A8F3"/>
  <outline>
    <contour>
      <point x="80" y="475" type="line"/>
      <point x="127" y="381"/>
      <point x="200" y="321"/>
      <point x="303" y="321" type="curve" smooth="yes"/>
      <point x="380" y="321"/>
      <point x="461" y="355"/>
      <point x="505" y="451" type="curve"/>
      <point x="436" y="504" type="line"/>
      <point x="412" y="450"/>
      <point x="362" y="386"/>
      <point x="275" y="386" type="curve" smooth="yes"/>
      <point x="229" y="386"/>
      <point x="168" y="405"/>
      <point x="113" y="494" type="curve"/>
    </contour>
    <contour>
      <point x="275" y="583" type="line"/>
      <point x="210" y="517" type="line"/>
      <point x="275" y="452" type="line"/>
      <point x="341" y="516" type="line"/>
    </contour>
    <contour>
      <point x="168" y="242" type="line"/>
      <point x="205" y="163" type="line"/>
      <point x="216" y="164"/>
      <point x="237" y="170"/>
      <point x="269" y="170" type="curve" smooth="yes"/>
      <point x="342" y="170"/>
      <point x="374" y="142"/>
      <point x="503" y="-3" type="curve"/>
      <point x="510" y="-3" type="line"/>
      <point x="544" y="35" type="line"/>
      <point x="469" y="106"/>
      <point x="380" y="185"/>
      <point x="354" y="205" type="curve" smooth="yes"/>
      <point x="313" y="237"/>
      <point x="272" y="254"/>
      <point x="228" y="254" type="curve" smooth="yes"/>
      <point x="212" y="254"/>
      <point x="191" y="252"/>
      <point x="170" y="248" type="curve"/>
    </contour>
  </outline>
</glyph>
<glyph name="dCandrabinduDblVirama" format="2">
  <advance width="565"/>
  <unicode hex="A8F4"/>
  <outline>
    <contour>
      <point x="85" y="185" type="line"/>
      <point x="132" y="91"/>
      <point x="205" y="31"/>
      <point x="308" y="31" type="curve" smooth="yes"/>
      <point x="385" y="31"/>
      <point x="466" y="65"/>
      <point x="510" y="161" type="curve"/>
      <point x="441" y="214" type="line"/>
      <point x="417" y="160"/>
      <point x="367" y="96"/>
      <point x="280" y="96" type="curve" smooth="yes"/>
      <point x="234" y="96"/>
      <point x="173" y="115"/>
      <point x="118" y="204" type="curve"/>
    </contour>
    <contour>
      <point x="280" y="288" type="line"/>
      <point x="215" y="222" type="line"/>
      <point x="280" y="157" type="line"/>
      <point x="346" y="221" type="line"/>
    </contour>
    <contour>
      <point x="173" y="-41" type="line"/>
      <point x="210" y="-120" type="line"/>
      <point x="221" y="-119"/>
      <point x="242" y="-113"/>
      <point x="274" y="-113" type="curve" smooth="yes"/>
      <point x="347" y="-113"/>
      <point x="379" y="-141"/>
      <point x="508" y="-286" type="curve"/>
      <point x="515" y="-286" type="line"/>
      <point x="549" y="-248" type="line"/>
      <point x="474" y="-177"/>
      <point x="385" y="-98"/>
      <point x="359" y="-78" type="curve" smooth="yes"/>
      <point x="318" y="-46"/>
      <point x="277" y="-29"/>
      <point x="233" y="-29" type="curve" smooth="yes"/>
      <point x="217" y="-29"/>
      <point x="196" y="-31"/>
      <point x="175" y="-35" type="curve"/>
    </contour>
    <contour>
      <point x="85" y="490" type="line"/>
      <point x="132" y="396"/>
      <point x="205" y="336"/>
      <point x="308" y="336" type="curve" smooth="yes"/>
      <point x="385" y="336"/>
      <point x="466" y="370"/>
      <point x="510" y="466" type="curve"/>
      <point x="441" y="519" type="line"/>
      <point x="417" y="465"/>
      <point x="367" y="401"/>
      <point x="280" y="401" type="curve" smooth="yes"/>
      <point x="234" y="401"/>
      <point x="173" y="420"/>
      <point x="118" y="509" type="curve"/>
    </contour>
    <contour>
      <point x="280" y="593" type="line"/>
      <point x="215" y="527" type="line"/>
      <point x="280" y="462" type="line"/>
      <point x="346" y="526" type="line"/>
    </contour>
  </outline>
</glyph>
<glyph name="dCandrabinduTwo" format="2">
  <advance width="590"/>
  <unicode hex="A8F5"/>
  <outline>
    <contour>
      <point x="379" y="-73" type="line"/>
      <point x="429" y="-47" type="line"/>
      <point x="281" y="175" type="line"/>
      <point x="290" y="180" type="line"/>
      <point x="265" y="216"/>
      <point x="234" y="251"/>
      <point x="213" y="251" type="curve" smooth="yes"/>
      <point x="196" y="251"/>
      <point x="177" y="232"/>
      <point x="177" y="182" type="curve" smooth="yes"/>
      <point x="177" y="127"/>
      <point x="200" y="109"/>
      <point x="259" y="109" type="curve" smooth="yes"/>
      <point x="332" y="109"/>
      <point x="450" y="159"/>
      <point x="450" y="275" type="curve" smooth="yes"/>
      <point x="450" y="366"/>
      <point x="375" y="429"/>
      <point x="285" y="429" type="curve" smooth="yes"/>
      <point x="242" y="429"/>
      <point x="189" y="414"/>
      <point x="142" y="389" type="curve"/>
      <point x="180" y="324" type="line"/>
      <point x="227" y="349"/>
      <point x="287" y="368"/>
      <point x="326" y="368" type="curve" smooth="yes"/>
      <point x="370" y="368"/>
      <point x="388" y="345"/>
      <point x="388" y="307" type="curve" smooth="yes"/>
      <point x="388" y="230"/>
      <point x="319" y="184"/>
      <point x="237" y="183" type="curve"/>
      <point x="370" y="-73" type="line"/>
    </contour>
    <contour>
      <point x="308" y="471" type="curve" smooth="yes"/>
      <point x="385" y="471"/>
      <point x="466" y="505"/>
      <point x="510" y="601" type="curve"/>
      <point x="441" y="654" type="line"/>
      <point x="417" y="600"/>
      <point x="367" y="536"/>
      <point x="280" y="536" type="curve" smooth="yes"/>
      <point x="234" y="536"/>
      <point x="173" y="555"/>
      <point x="118" y="644" type="curve"/>
      <point x="85" y="625" type="line"/>
      <point x="132" y="531"/>
      <point x="205" y="471"/>
    </contour>
    <contour>
      <point x="346" y="666" type="line"/>
      <point x="280" y="733" type="line"/>
      <point x="215" y="667" type="line"/>
      <point x="280" y="602" type="line"/>
    </contour>
  </outline>
</glyph>
<glyph name="dCandrabinduAvagraha" format="2">
  <advance width="590"/>
  <unicode hex="A8F7"/>
  <outline>
    <contour>
      <point x="417" y="371" type="line"/>
      <point x="387" y="429" type="line"/>
      <point x="357" y="432"/>
      <point x="331" y="434"/>
      <point x="309" y="434" type="curve" smooth="yes"/>
      <point x="183" y="434"/>
      <point x="157" y="384"/>
      <point x="157" y="343" type="curve" smooth="yes"/>
      <point x="157" y="295"/>
      <point x="188" y="269"/>
      <point x="265" y="217" type="curve" smooth="yes"/>
      <point x="327" y="176"/>
      <point x="357" y="159"/>
      <point x="357" y="122" type="curve" smooth="yes"/>
      <point x="357" y="79"/>
      <point x="317" y="59"/>
      <point x="273" y="59" type="curve" smooth="yes"/>
      <point x="237" y="59"/>
      <point x="207" y="74"/>
      <point x="165" y="144" type="curve"/>
      <point x="130" y="124" type="line"/>
      <point x="162" y="67"/>
      <point x="217" y="-10"/>
      <point x="306" y="-10" type="curve" smooth="yes"/>
      <point x="375" y="-10"/>
      <point x="430" y="36"/>
      <point x="430" y="100" type="curve" smooth="yes"/>
      <point x="430" y="165"/>
      <point x="375" y="204"/>
      <point x="324" y="237" type="curve" smooth="yes"/>
      <point x="285" y="262"/>
      <point x="235" y="285"/>
      <point x="235" y="328" type="curve" smooth="yes"/>
      <point x="235" y="351"/>
      <point x="250" y="368"/>
      <point x="319" y="368" type="curve" smooth="yes"/>
      <point x="341" y="368"/>
      <point x="374" y="366"/>
      <point x="417" y="363" type="curve"/>
    </contour>
    <contour>
      <point x="85" y="625" type="line"/>
      <point x="132" y="531"/>
      <point x="205" y="471"/>
      <point x="308" y="471" type="curve" smooth="yes"/>
      <point x="385" y="471"/>
      <point x="466" y="505"/>
      <point x="510" y="601" type="curve"/>
      <point x="441" y="654" type="line"/>
      <point x="417" y="600"/>
      <point x="367" y="536"/>
      <point x="280" y="536" type="curve" smooth="yes"/>
      <point x="234" y="536"/>
      <point x="173" y="555"/>
      <point x="118" y="644" type="curve"/>
    </contour>
    <contour>
      <point x="280" y="733" type="line"/>
      <point x="215" y="667" type="line"/>
      <point x="280" y="602" type="line"/>
      <point x="346" y="666" type="line"/>
    </contour>
  </outline>
</glyph>
<glyph name="dShirorekhaa" format="2">
  <advance width="260"/>
  <unicode hex="A8FB"/>
  <outline>
    <contour>
      <point x="288" y="545" type="line"/>
      <point x="288" y="555" type="line"/>
      <point x="254" y="620" type="line"/>
      <point x="-28" y="620" type="line"/>
      <point x="-28" y="610" type="line"/>
      <point x="6" y="545" type="line"/>
    </contour>
  </outline>
</glyph>
<glyph name="dB.half" format="2">
  <advance width="342"/>
  <outline>
    <contour>
      <point x="256" y="128" type="curve" smooth="yes"/>
      <point x="356" y="128"/>
      <point x="450" y="184"/>
      <point x="450" y="277" type="curve" smooth="yes"/>
      <point x="450" y="361"/>
      <point x="374" y="467"/>
      <point x="234" y="467" type="curve" smooth="yes"/>
      <point x="129" y="467"/>
      <point x="41" y="408"/>
      <point x="41" y="321" type="curve" smooth="yes"/>
      <point x="41" y="244"/>
      <point x="111" y="128"/>
    </contour>
    <contour>
      <point x="226" y="192" type="curve" smooth="yes"/>
      <point x="162" y="192"/>
      <point x="112" y="229"/>
      <point x="112" y="282" type="curve" smooth="yes"/>
      <point x="112" y="353"/>
      <point x="191" y="394"/>
      <point x="268" y="394" type="curve" smooth="yes"/>
      <point x="329" y="394"/>
      <point x="384" y="373"/>
      <point x="384" y="315" type="curve" smooth="yes"/>
      <point x="384" y="244"/>
      <point x="310" y="192"/>
    </contour>
    <contour>
      <point x="366" y="184" type="line"/>
      <point x="171" y="427" type="line"/>
      <point x="134" y="404" type="line"/>
      <point x="320" y="171" type="line"/>
    </contour>
    <contour>
      <point x="442" y="545" type="line"/>
      <point x="442" y="555" type="line"/>
      <point x="408" y="620" type="line"/>
      <point x="-28" y="620" type="line"/>
      <point x="-28" y="610" type="line"/>
      <point x="6" y="545" type="line"/>
    </contour>
  </outline>
</glyph>
<glyph name="dBBhYa" format="2">
  <advance width="1307"/>
  <outline>
    <component base="dBh.half" xOffset="271"/>
    <component base="dYa" xOffset="725"/>
    <contour>
      <point x="41" y="291" type="curve" smooth="yes"/>
      <point x="41" y="214"/>
      <point x="111" y="98"/>
      <point x="256" y="98" type="curve" smooth="yes"/>
      <point x="356" y="98"/>
      <point x="450" y="154"/>
      <point x="450" y="247" type="curve" smooth="yes"/>
      <point x="450" y="331"/>
      <point x="374" y="437"/>
      <point x="234" y="437" type="curve" smooth="yes"/>
      <point x="129" y="437"/>
      <point x="41" y="378"/>
    </contour>
    <contour>
      <point x="384" y="285" type="curve" smooth="yes"/>
      <point x="384" y="211"/>
      <point x="304" y="162"/>
      <point x="226" y="162" type="curve" smooth="yes"/>
      <point x="162" y="162"/>
      <point x="112" y="199"/>
      <point x="112" y="252" type="curve" smooth="yes"/>
      <point x="112" y="323"/>
      <point x="191" y="364"/>
      <point x="268" y="364" type="curve" smooth="yes"/>
      <point x="329" y="364"/>
      <point x="384" y="343"/>
    </contour>
    <contour>
      <point x="357" y="165" type="line"/>
      <point x="185" y="380" type="line"/>
      <point x="143" y="364" type="line"/>
      <point x="317" y="145" type="line"/>
    </contour>
    <contour>
      <point x="379" y="545" type="line"/>
      <point x="408" y="620" type="line"/>
      <point x="-28" y="620" type="line"/>
      <point x="-28" y="610" type="line"/>
      <point x="6" y="545" type="line"/>
    </contour>
  </outline>
</glyph>
<glyph name="dBNa" format="2">
  <advance width="612"/>
  <outline>
    <contour>
      <point x="238" y="139" type="curve"/>
      <point x="367" y="139"/>
      <point x="458" y="202"/>
      <point x="458" y="285" type="curve" smooth="yes"/>
      <point x="458" y="337"/>
      <point x="400" y="467"/>
      <point x="245" y="467" type="curve" smooth="yes"/>
      <point x="137" y="467"/>
      <point x="51" y="408"/>
      <point x="51" y="320" type="curve" smooth="yes"/>
      <point x="51" y="248"/>
      <point x="108" y="148"/>
    </contour>
    <contour>
      <point x="212" y="-62" type="curve" smooth="yes"/>
      <point x="232" y="-62"/>
      <point x="239" y="-54"/>
      <point x="239" y="-39" type="curve" smooth="yes"/>
      <point x="239" y="-28"/>
      <point x="236" y="-15"/>
      <point x="215" y="44" type="curve"/>
      <point x="484" y="234" type="line"/>
      <point x="358" y="236" type="line"/>
      <point x="121" y="75" type="line" smooth="yes"/>
      <point x="95" y="58"/>
      <point x="80" y="47"/>
      <point x="80" y="29" type="curve" smooth="yes"/>
      <point x="80" y="-12"/>
      <point x="169" y="-62"/>
    </contour>
    <contour>
      <point x="357" y="195" type="line"/>
      <point x="176" y="421" type="line"/>
      <point x="135" y="403" type="line"/>
      <point x="319" y="173" type="line"/>
    </contour>
    <contour>
      <point x="237" y="192" type="curve" smooth="yes"/>
      <point x="171" y="192"/>
      <point x="122" y="227"/>
      <point x="122" y="286" type="curve" smooth="yes"/>
      <point x="122" y="362"/>
      <point x="187" y="394"/>
      <point x="277" y="394" type="curve" smooth="yes"/>
      <point x="338" y="394"/>
      <point x="394" y="372"/>
      <point x="394" y="318" type="curve" smooth="yes"/>
      <point x="394" y="253"/>
      <point x="305" y="192"/>
    </contour>
    <contour>
      <point x="525" y="-10" type="line"/>
      <point x="523" y="581" type="line"/>
      <point x="439" y="581" type="line"/>
      <point x="438" y="357" type="line"/>
      <point x="417" y="357" type="line"/>
      <point x="436" y="281" type="line"/>
      <point x="435" y="42" type="line"/>
      <point x="515" y="-10" type="line"/>
    </contour>
    <contour>
      <point x="640" y="545" type="line"/>
      <point x="640" y="555" type="line"/>
      <point x="606" y="620" type="line"/>
      <point x="-28" y="620" type="line"/>
      <point x="-28" y="610" type="line"/>
      <point x="6" y="545" type="line"/>
    </contour>
  </outline>
</glyph>
<glyph name="dBhR.half" format="2">
  <advance width="470"/>
  <outline>
    <contour>
      <point x="582" y="210" type="line"/>
      <point x="531" y="323" type="line"/>
      <point x="188" y="323" type="line" smooth="yes"/>
      <point x="170" y="323"/>
      <point x="163" y="312"/>
      <point x="163" y="299" type="curve" smooth="yes"/>
      <point x="163" y="252"/>
      <point x="257" y="154"/>
      <point x="301" y="154" type="curve" smooth="yes"/>
      <point x="330" y="154"/>
      <point x="330" y="186"/>
      <point x="341" y="286" type="curve" smooth="yes"/>
      <point x="348" y="347"/>
      <point x="348" y="406"/>
      <point x="348" y="430" type="curve" smooth="yes"/>
      <point x="348" y="523"/>
      <point x="260" y="633"/>
      <point x="159" y="633" type="curve" smooth="yes"/>
      <point x="108" y="633"/>
      <point x="53" y="600"/>
      <point x="53" y="538" type="curve" smooth="yes"/>
      <point x="53" y="477"/>
      <point x="98" y="422"/>
      <point x="175" y="422" type="curve"/>
      <point x="176" y="422"/>
      <point x="181" y="422"/>
      <point x="195" y="424" type="curve"/>
      <point x="195" y="435" type="line"/>
      <point x="165" y="451"/>
      <point x="131" y="472"/>
      <point x="131" y="507" type="curve" smooth="yes"/>
      <point x="131" y="541"/>
      <point x="163" y="563"/>
      <point x="196" y="563" type="curve" smooth="yes"/>
      <point x="242" y="563"/>
      <point x="267" y="540"/>
      <point x="267" y="457" type="curve" smooth="yes"/>
      <point x="267" y="410"/>
      <point x="264" y="371"/>
      <point x="252" y="249" type="curve"/>
      <point x="532" y="249" type="line"/>
      <point x="527" y="264" type="line"/>
      <point x="286" y="54" type="line"/>
      <point x="349" y="2" type="line"/>
    </contour>
    <contour>
      <point x="530" y="545" type="line"/>
      <point x="530" y="555" type="line"/>
      <point x="496" y="620" type="line"/>
      <point x="369" y="620" type="line"/>
      <point x="369" y="610" type="line"/>
      <point x="403" y="545" type="line"/>
    </contour>
  </outline>
</glyph>
<glyph name="dBhRVa" format="2">
  <advance width="1065"/>
  <outline>
    <component base="dVa" xOffset="468"/>
    <contour>
      <point x="301" y="159" type="curve" smooth="yes"/>
      <point x="325" y="159"/>
      <point x="330" y="174"/>
      <point x="342" y="295" type="curve" smooth="yes"/>
      <point x="347" y="341"/>
      <point x="348" y="403"/>
      <point x="348" y="430" type="curve" smooth="yes"/>
      <point x="348" y="523"/>
      <point x="260" y="633"/>
      <point x="159" y="633" type="curve" smooth="yes"/>
      <point x="108" y="633"/>
      <point x="53" y="600"/>
      <point x="53" y="538" type="curve" smooth="yes"/>
      <point x="53" y="477"/>
      <point x="98" y="422"/>
      <point x="175" y="422" type="curve"/>
      <point x="176" y="422"/>
      <point x="181" y="422"/>
      <point x="195" y="424" type="curve"/>
      <point x="195" y="435" type="line"/>
      <point x="165" y="451"/>
      <point x="131" y="472"/>
      <point x="131" y="507" type="curve" smooth="yes"/>
      <point x="131" y="541"/>
      <point x="163" y="563"/>
      <point x="196" y="563" type="curve" smooth="yes"/>
      <point x="242" y="563"/>
      <point x="267" y="540"/>
      <point x="267" y="457" type="curve" smooth="yes"/>
      <point x="267" y="407"/>
      <point x="263" y="335"/>
      <point x="247" y="254" type="curve"/>
      <point x="566" y="254" type="line"/>
      <point x="566" y="328" type="line"/>
      <point x="188" y="328" type="line" smooth="yes"/>
      <point x="170" y="328"/>
      <point x="163" y="317"/>
      <point x="163" y="304" type="curve" smooth="yes"/>
      <point x="163" y="257"/>
      <point x="257" y="159"/>
    </contour>
    <contour>
      <point x="579" y="212" type="line"/>
      <point x="539" y="279" type="line"/>
      <point x="286" y="59" type="line"/>
      <point x="349" y="7" type="line"/>
    </contour>
    <contour>
      <point x="526" y="545" type="line"/>
      <point x="526" y="620" type="line"/>
      <point x="369" y="620" type="line"/>
      <point x="369" y="610" type="line"/>
      <point x="403" y="545" type="line"/>
    </contour>
  </outline>
</glyph>
<glyph name="dBhRa" format="2">
  <advance width="726"/>
  <outline>
    <contour>
      <point x="301" y="154" type="curve" smooth="yes"/>
      <point x="331" y="154"/>
      <point x="331" y="186"/>
      <point x="344" y="306" type="curve" smooth="yes"/>
      <point x="347" y="337"/>
      <point x="348" y="406"/>
      <point x="348" y="430" type="curve" smooth="yes"/>
      <point x="348" y="523"/>
      <point x="260" y="633"/>
      <point x="159" y="633" type="curve" smooth="yes"/>
      <point x="108" y="633"/>
      <point x="53" y="600"/>
      <point x="53" y="538" type="curve" smooth="yes"/>
      <point x="53" y="477"/>
      <point x="98" y="422"/>
      <point x="175" y="422" type="curve"/>
      <point x="176" y="422"/>
      <point x="181" y="422"/>
      <point x="195" y="424" type="curve"/>
      <point x="195" y="435" type="line"/>
      <point x="165" y="451"/>
      <point x="131" y="472"/>
      <point x="131" y="507" type="curve" smooth="yes"/>
      <point x="131" y="541"/>
      <point x="163" y="563"/>
      <point x="196" y="563" type="curve" smooth="yes"/>
      <point x="242" y="563"/>
      <point x="267" y="540"/>
      <point x="267" y="457" type="curve" smooth="yes"/>
      <point x="267" y="383"/>
      <point x="262" y="350"/>
      <point x="249" y="249" type="curve"/>
      <point x="588" y="249" type="line"/>
      <point x="588" y="323" type="line"/>
      <point x="188" y="323" type="line" smooth="yes"/>
      <point x="170" y="323"/>
      <point x="163" y="312"/>
      <point x="163" y="299" type="curve" smooth="yes"/>
      <point x="163" y="252"/>
      <point x="257" y="154"/>
    </contour>
    <contour>
      <point x="575" y="203" type="line"/>
      <point x="575" y="306" type="line"/>
      <point x="286" y="54" type="line"/>
      <point x="349" y="2" type="line"/>
    </contour>
    <contour>
      <point x="639" y="-10" type="line"/>
      <point x="637" y="581" type="line"/>
      <point x="553" y="581" type="line"/>
      <point x="549" y="42" type="line"/>
      <point x="629" y="-10" type="line"/>
    </contour>
    <contour>
      <point x="754" y="545" type="line"/>
      <point x="754" y="555" type="line"/>
      <point x="720" y="620" type="line"/>
      <point x="369" y="620" type="line"/>
      <point x="369" y="610" type="line"/>
      <point x="403" y="545" type="line"/>
    </contour>
  </outline>
</glyph>
<glyph name="dCCa" format="2">
  <advance width="739"/>
  <outline>
    <contour>
      <point x="386" y="190" type="curve" smooth="yes"/>
      <point x="438" y="190"/>
      <point x="510" y="204"/>
      <point x="614" y="300" type="curve"/>
      <point x="575" y="368" type="line"/>
      <point x="479" y="281"/>
      <point x="395" y="252"/>
      <point x="341" y="252" type="curve" smooth="yes"/>
      <point x="299" y="252"/>
      <point x="260" y="271"/>
      <point x="260" y="319" type="curve" smooth="yes"/>
      <point x="260" y="393"/>
      <point x="348" y="400"/>
      <point x="455" y="400" type="curve"/>
      <point x="455" y="437" type="line"/>
      <point x="234" y="437" type="line"/>
      <point x="196" y="397"/>
      <point x="191" y="369"/>
      <point x="191" y="348" type="curve" smooth="yes"/>
      <point x="191" y="282"/>
      <point x="257" y="190"/>
    </contour>
    <contour>
      <point x="220" y="69" type="line"/>
      <point x="383" y="85" type="line"/>
      <point x="455" y="72" type="line"/>
      <point x="456" y="72"/>
      <point x="462" y="72"/>
      <point x="483" y="71" type="curve"/>
      <point x="483" y="81" type="line"/>
      <point x="451" y="143" type="line"/>
      <point x="68" y="143" type="line"/>
      <point x="68" y="133" type="line"/>
      <point x="102" y="69" type="line"/>
    </contour>
    <contour>
      <point x="386" y="-138" type="curve" smooth="yes"/>
      <point x="438" y="-138"/>
      <point x="510" y="-124"/>
      <point x="614" y="-28" type="curve"/>
      <point x="575" y="40" type="line"/>
      <point x="479" y="-47"/>
      <point x="395" y="-76"/>
      <point x="341" y="-76" type="curve" smooth="yes"/>
      <point x="299" y="-76"/>
      <point x="260" y="-57"/>
      <point x="260" y="-9" type="curve" smooth="yes"/>
      <point x="260" y="65"/>
      <point x="348" y="72"/>
      <point x="455" y="72" type="curve"/>
      <point x="455" y="103" type="line"/>
      <point x="214" y="84" type="line"/>
      <point x="198" y="64"/>
      <point x="191" y="41"/>
      <point x="191" y="20" type="curve" smooth="yes"/>
      <point x="191" y="-46"/>
      <point x="257" y="-138"/>
    </contour>
    <contour>
      <point x="220" y="397" type="line"/>
      <point x="398" y="418" type="line"/>
      <point x="455" y="400" type="line"/>
      <point x="459" y="400"/>
      <point x="465" y="400"/>
      <point x="483" y="399" type="curve"/>
      <point x="483" y="409" type="line"/>
      <point x="451" y="471" type="line"/>
      <point x="68" y="471" type="line"/>
      <point x="68" y="461" type="line"/>
      <point x="102" y="397" type="line"/>
    </contour>
    <contour>
      <point x="652" y="-198" type="line"/>
      <point x="652" y="581" type="line"/>
      <point x="566" y="581" type="line"/>
      <point x="563" y="-147" type="line"/>
      <point x="643" y="-198" type="line"/>
    </contour>
    <contour>
      <point x="767" y="545" type="line"/>
      <point x="767" y="555" type="line"/>
      <point x="733" y="620" type="line"/>
      <point x="-28" y="620" type="line"/>
      <point x="-28" y="610" type="line"/>
      <point x="6" y="545" type="line"/>
    </contour>
  </outline>
</glyph>
<glyph name="dCChLa" format="2">
  <advance width="1092"/>
  <outline>
    <component base="dCha" xOffset="341"/>
    <contour>
      <point x="373" y="125" type="curve" smooth="yes"/>
      <point x="409" y="125"/>
      <point x="462" y="132"/>
      <point x="561" y="206" type="curve"/>
      <point x="518" y="274" type="line"/>
      <point x="419" y="201"/>
      <point x="360" y="189"/>
      <point x="323" y="189" type="curve" smooth="yes"/>
      <point x="262" y="189"/>
      <point x="220" y="221"/>
      <point x="220" y="279" type="curve" smooth="yes"/>
      <point x="220" y="364"/>
      <point x="311" y="373"/>
      <point x="416" y="373" type="curve"/>
      <point x="416" y="408" type="line"/>
      <point x="177" y="382" type="line"/>
      <point x="158" y="362"/>
      <point x="149" y="336"/>
      <point x="149" y="306" type="curve" smooth="yes"/>
      <point x="149" y="210"/>
      <point x="246" y="125"/>
    </contour>
    <contour>
      <point x="183" y="370" type="line"/>
      <point x="357" y="388" type="line"/>
      <point x="416" y="373" type="line"/>
      <point x="444" y="373" type="line"/>
      <point x="471" y="446" type="line"/>
      <point x="37" y="446" type="line"/>
      <point x="37" y="436" type="line"/>
      <point x="72" y="370" type="line"/>
    </contour>
    <contour>
      <point x="536" y="545" type="line"/>
      <point x="536" y="555" type="line"/>
      <point x="502" y="620" type="line"/>
      <point x="-28" y="620" type="line"/>
      <point x="-28" y="610" type="line"/>
      <point x="6" y="545" type="line"/>
    </contour>
    <contour>
      <point x="648" y="-362" type="line"/>
      <point x="687" y="-330" type="line"/>
      <point x="594" y="-257"/>
      <point x="565" y="-208"/>
      <point x="565" y="-157" type="curve" smooth="yes"/>
      <point x="565" y="-102"/>
      <point x="599" y="-79"/>
      <point x="639" y="-79" type="curve" smooth="yes"/>
      <point x="670" y="-79"/>
      <point x="695" y="-95"/>
      <point x="718" y="-123" type="curve"/>
      <point x="739" y="-92" type="line"/>
      <point x="705" y="-50"/>
      <point x="668" y="-12"/>
      <point x="607" y="-12" type="curve" smooth="yes"/>
      <point x="536" y="-12"/>
      <point x="491" y="-61"/>
      <point x="491" y="-127" type="curve" smooth="yes"/>
      <point x="491" y="-210"/>
      <point x="562" y="-284"/>
      <point x="638" y="-362" type="curve"/>
    </contour>
    <contour>
      <point x="898" y="-318" type="line"/>
      <point x="946" y="-265"/>
      <point x="969" y="-202"/>
      <point x="969" y="-158" type="curve" smooth="yes"/>
      <point x="969" y="-97"/>
      <point x="924" y="-14"/>
      <point x="840" y="-14" type="curve" smooth="yes"/>
      <point x="768" y="-14"/>
      <point x="715" y="-75"/>
      <point x="674" y="-164" type="curve"/>
      <point x="740" y="-205" type="line"/>
      <point x="779" y="-117"/>
      <point x="822" y="-73"/>
      <point x="865" y="-73" type="curve" smooth="yes"/>
      <point x="892" y="-73"/>
      <point x="912" y="-92"/>
      <point x="912" y="-125" type="curve" smooth="yes"/>
      <point x="912" y="-161"/>
      <point x="890" y="-204"/>
      <point x="828" y="-267" type="curve"/>
      <point x="890" y="-318" type="line"/>
    </contour>
    <contour>
      <point x="786" y="-90" type="line"/>
      <point x="786" y="37" type="line"/>
      <point x="710" y="37" type="line"/>
      <point x="709" y="-108" type="line"/>
    </contour>
  </outline>
  <guideline angle="90" x="759" y="0"/>
  <guideline angle="90" x="830" y="0"/>
</glyph>
<glyph name="dCChVa" format="2">
  <advance width="1092"/>
  <outline>
    <component base="dChVa" xOffset="341"/>
    <contour>
      <point x="373" y="125" type="curve" smooth="yes"/>
      <point x="406" y="125"/>
      <point x="453" y="131"/>
      <point x="537" y="189" type="curve"/>
      <point x="490" y="254" type="line"/>
      <point x="408" y="198"/>
      <point x="356" y="189"/>
      <point x="323" y="189" type="curve" smooth="yes"/>
      <point x="262" y="189"/>
      <point x="220" y="221"/>
      <point x="220" y="279" type="curve" smooth="yes"/>
      <point x="220" y="364"/>
      <point x="311" y="373"/>
      <point x="416" y="373" type="curve"/>
      <point x="416" y="403" type="line"/>
      <point x="177" y="382" type="line"/>
      <point x="158" y="362"/>
      <point x="149" y="336"/>
      <point x="149" y="306" type="curve" smooth="yes"/>
      <point x="149" y="210"/>
      <point x="246" y="125"/>
    </contour>
    <contour>
      <point x="183" y="370" type="line"/>
      <point x="389" y="386" type="line"/>
      <point x="416" y="373" type="line"/>
      <point x="459" y="373" type="line"/>
      <point x="440" y="446" type="line"/>
      <point x="37" y="446" type="line"/>
      <point x="37" y="436" type="line"/>
      <point x="72" y="370" type="line"/>
    </contour>
    <contour>
      <point x="536" y="545" type="line"/>
      <point x="536" y="555" type="line"/>
      <point x="502" y="620" type="line"/>
      <point x="-28" y="620" type="line"/>
      <point x="-28" y="610" type="line"/>
      <point x="6" y="545" type="line"/>
    </contour>
  </outline>
</glyph>
<glyph name="dCNyYa" format="2">
  <advance width="991"/>
  <outline>
    <contour>
      <point x="698" y="136" type="curve" smooth="yes"/>
      <point x="743" y="136"/>
      <point x="790" y="151"/>
      <point x="831" y="182" type="curve"/>
      <point x="831" y="283" type="line"/>
      <point x="771" y="229"/>
      <point x="710" y="199"/>
      <point x="659" y="199" type="curve" smooth="yes"/>
      <point x="591" y="199"/>
      <point x="538" y="250"/>
      <point x="536" y="310" type="curve"/>
      <point x="633" y="337"/>
      <point x="672" y="375"/>
      <point x="672" y="426" type="curve" smooth="yes"/>
      <point x="672" y="463"/>
      <point x="652" y="503"/>
      <point x="617" y="562" type="curve"/>
      <point x="560" y="563" type="line"/>
      <point x="588" y="520"/>
      <point x="600" y="491"/>
      <point x="600" y="469" type="curve" smooth="yes"/>
      <point x="600" y="424"/>
      <point x="553" y="396"/>
      <point x="449" y="371" type="curve"/>
      <point x="473" y="239"/>
      <point x="579" y="136"/>
    </contour>
    <contour>
      <point x="312" y="-71" type="curve" smooth="yes"/>
      <point x="402" y="-71"/>
      <point x="483" y="-14"/>
      <point x="483" y="61" type="curve" smooth="yes"/>
      <point x="483" y="136"/>
      <point x="402" y="199"/>
      <point x="327" y="199" type="curve" smooth="yes"/>
      <point x="275" y="199"/>
      <point x="215" y="167"/>
      <point x="177" y="122" type="curve"/>
      <point x="241" y="70" type="line"/>
      <point x="276" y="106"/>
      <point x="314" y="141"/>
      <point x="358" y="141" type="curve" smooth="yes"/>
      <point x="392" y="141"/>
      <point x="414" y="119"/>
      <point x="414" y="90" type="curve" smooth="yes"/>
      <point x="414" y="47"/>
      <point x="363" y="-4"/>
      <point x="277" y="-4" type="curve" smooth="yes"/>
      <point x="231" y="-4"/>
      <point x="172" y="10"/>
      <point x="108" y="50" type="curve"/>
      <point x="86" y="14" type="line"/>
      <point x="171" y="-40"/>
      <point x="245" y="-71"/>
    </contour>
    <contour>
      <point x="325" y="229" type="curve" smooth="yes"/>
      <point x="368" y="229"/>
      <point x="423" y="239"/>
      <point x="498" y="296" type="curve"/>
      <point x="460" y="361" type="line"/>
      <point x="388" y="307"/>
      <point x="328" y="287"/>
      <point x="284" y="287" type="curve" smooth="yes"/>
      <point x="248" y="287"/>
      <point x="209" y="301"/>
      <point x="209" y="342" type="curve" smooth="yes"/>
      <point x="209" y="401"/>
      <point x="288" y="410"/>
      <point x="367" y="410" type="curve"/>
      <point x="361" y="445" type="line"/>
      <point x="194" y="445" type="line"/>
      <point x="168" y="428"/>
      <point x="143" y="401"/>
      <point x="143" y="364" type="curve" smooth="yes"/>
      <point x="143" y="307"/>
      <point x="205" y="229"/>
    </contour>
    <contour>
      <point x="171" y="407" type="line"/>
      <point x="331" y="427" type="line"/>
      <point x="367" y="410" type="line"/>
      <point x="382" y="410"/>
      <point x="394" y="410"/>
      <point x="410" y="409" type="curve"/>
      <point x="410" y="418" type="line"/>
      <point x="380" y="476" type="line"/>
      <point x="30" y="476" type="line"/>
      <point x="30" y="467" type="line"/>
      <point x="62" y="407" type="line"/>
    </contour>
    <contour>
      <point x="477" y="101" type="line"/>
      <point x="489" y="99"/>
      <point x="499" y="98"/>
      <point x="509" y="98" type="curve" smooth="yes"/>
      <point x="548" y="98"/>
      <point x="582" y="113"/>
      <point x="614" y="154" type="curve"/>
      <point x="558" y="213" type="line"/>
      <point x="533" y="164"/>
      <point x="493" y="137"/>
      <point x="431" y="138" type="curve"/>
      <point x="464" y="91" type="line"/>
    </contour>
    <contour>
      <point x="1019" y="545" type="line"/>
      <point x="1019" y="555" type="line"/>
      <point x="985" y="620" type="line"/>
      <point x="-28" y="620" type="line"/>
      <point x="-28" y="610" type="line"/>
      <point x="6" y="545" type="line"/>
    </contour>
    <contour>
      <point x="904" y="-40" type="line"/>
      <point x="902" y="591" type="line"/>
      <point x="818" y="591" type="line"/>
      <point x="814" y="12" type="line"/>
      <point x="894" y="-40" type="line"/>
    </contour>
  </outline>
</glyph>
<glyph name="dCandrabinduHeadline" format="2">
  <outline>
    <contour>
      <point x="-331" y="837" type="line"/>
      <point x="-286" y="738"/>
      <point x="-220" y="672"/>
      <point x="-131" y="672" type="curve" smooth="yes"/>
      <point x="-63" y="672"/>
      <point x="7" y="710"/>
      <point x="45" y="812" type="curve"/>
      <point x="-24" y="865" type="line"/>
      <point x="-44" y="810"/>
      <point x="-90" y="737"/>
      <point x="-157" y="737" type="curve" smooth="yes"/>
      <point x="-201" y="737"/>
      <point x="-251" y="768"/>
      <point x="-297" y="855" type="curve"/>
    </contour>
    <contour>
      <point x="-160" y="930" type="line"/>
      <point x="-224" y="865" type="line"/>
      <point x="-160" y="802" type="line"/>
      <point x="-95" y="865" type="line"/>
    </contour>
    <contour>
      <point x="28" y="545" type="line"/>
      <point x="28" y="555" type="line"/>
      <point x="-6" y="620" type="line"/>
      <point x="-276" y="620" type="line"/>
      <point x="-276" y="610" type="line"/>
      <point x="-242" y="545" type="line"/>
    </contour>
  </outline>
</glyph>
<glyph name="dChVa" format="2">
  <advance width="751"/>
  <outline>
    <component base="dCha"/>
    <contour>
      <point x="469" y="-231" type="line"/>
      <point x="539" y="-278" type="line"/>
      <point x="548" y="-278" type="line"/>
      <point x="546" y="113" type="line"/>
      <point x="472" y="76" type="line"/>
    </contour>
    <contour>
      <point x="488" y="-73" type="line"/>
      <point x="434" y="-109"/>
      <point x="391" y="-132"/>
      <point x="347" y="-132" type="curve" smooth="yes"/>
      <point x="312" y="-132"/>
      <point x="281" y="-117"/>
      <point x="281" y="-75" type="curve" smooth="yes"/>
      <point x="281" y="-27"/>
      <point x="324" y="5"/>
      <point x="378" y="14" type="curve"/>
      <point x="263" y="46" type="line"/>
      <point x="232" y="22"/>
      <point x="214" y="-8"/>
      <point x="214" y="-46" type="curve" smooth="yes"/>
      <point x="214" y="-132"/>
      <point x="302" y="-190"/>
      <point x="388" y="-190" type="curve" smooth="yes"/>
      <point x="422" y="-190"/>
      <point x="453" y="-180"/>
      <point x="488" y="-161" type="curve"/>
    </contour>
  </outline>
</glyph>
<glyph name="dDBhRa" format="2">
  <advance width="678"/>
  <outline>
    <contour>
      <point x="674" y="-120" type="line"/>
      <point x="726" y="-87" type="line"/>
      <point x="537" y="170" type="line"/>
      <point x="497" y="138"/>
      <point x="459" y="134"/>
      <point x="430" y="134" type="curve" smooth="yes"/>
      <point x="360" y="134"/>
      <point x="291" y="180"/>
      <point x="291" y="275" type="curve" smooth="yes"/>
      <point x="291" y="343"/>
      <point x="346" y="376"/>
      <point x="431" y="376" type="curve" smooth="yes"/>
      <point x="572" y="376" type="line"/>
      <point x="584" y="384" type="line"/>
      <point x="584" y="436"/>
      <point x="583" y="508"/>
      <point x="582" y="580" type="curve"/>
      <point x="501" y="580" type="line"/>
      <point x="501" y="451" type="line"/>
      <point x="426" y="451" type="line" smooth="yes"/>
      <point x="300" y="451"/>
      <point x="216" y="422"/>
      <point x="216" y="318" type="curve" smooth="yes"/>
      <point x="216" y="196"/>
      <point x="326" y="72"/>
      <point x="489" y="72" type="curve" smooth="yes"/>
      <point x="609" y="72"/>
      <point x="634" y="144"/>
      <point x="634" y="167" type="curve" smooth="yes"/>
      <point x="634" y="214"/>
      <point x="559" y="257"/>
      <point x="514" y="257" type="curve" smooth="yes"/>
      <point x="493" y="257"/>
      <point x="479" y="247"/>
      <point x="479" y="225" type="curve" smooth="yes"/>
      <point x="479" y="200"/>
      <point x="497" y="158"/>
      <point x="515" y="129" type="curve" smooth="yes"/>
      <point x="665" y="-120" type="line"/>
    </contour>
    <contour>
      <point x="586" y="83" type="line"/>
      <point x="522" y="86" type="line"/>
      <point x="466" y="-161" type="line"/>
      <point x="541" y="-172" type="line"/>
    </contour>
    <contour>
      <point x="706" y="545" type="line"/>
      <point x="706" y="555" type="line"/>
      <point x="672" y="620" type="line"/>
      <point x="-28" y="620" type="line"/>
      <point x="-28" y="610" type="line"/>
      <point x="6" y="545" type="line"/>
    </contour>
    <contour>
      <point x="356" y="-169" type="curve" smooth="yes"/>
      <point x="384" y="-169"/>
      <point x="403" y="-162"/>
      <point x="403" y="-144" type="curve" smooth="yes"/>
      <point x="403" y="-131"/>
      <point x="392" y="-103"/>
      <point x="362" y="-51" type="curve"/>
      <point x="340" y="-22" type="line"/>
      <point x="274" y="90"/>
      <point x="215" y="161"/>
      <point x="116" y="161" type="curve" smooth="yes"/>
      <point x="42" y="161"/>
      <point x="3" y="123"/>
      <point x="3" y="72" type="curve" smooth="yes"/>
      <point x="3" y="20"/>
      <point x="42" y="-13"/>
      <point x="91" y="-13" type="curve" smooth="yes"/>
      <point x="124" y="-13"/>
      <point x="158" y="0"/>
      <point x="181" y="26" type="curve"/>
      <point x="176" y="33" type="line"/>
      <point x="163" y="31"/>
      <point x="150" y="28"/>
      <point x="135" y="28" type="curve" smooth="yes"/>
      <point x="106" y="28"/>
      <point x="76" y="43"/>
      <point x="76" y="74" type="curve" smooth="yes"/>
      <point x="76" y="104"/>
      <point x="101" y="118"/>
      <point x="122" y="118" type="curve" smooth="yes"/>
      <point x="172" y="118"/>
      <point x="224" y="25"/>
      <point x="305" y="-110" type="curve"/>
      <point x="556" y="74" type="line"/>
      <point x="518" y="127" type="line"/>
      <point x="221" y="-84" type="line" smooth="yes"/>
      <point x="213" y="-90"/>
      <point x="209" y="-96"/>
      <point x="209" y="-102" type="curve" smooth="yes"/>
      <point x="209" y="-137"/>
      <point x="298" y="-169"/>
    </contour>
  </outline>
</glyph>
<glyph name="dDBhVa" format="2">
  <advance width="693"/>
  <outline>
    <contour>
      <point x="727" y="-165" type="line"/>
      <point x="777" y="-133" type="line"/>
      <point x="552" y="170" type="line"/>
      <point x="512" y="138"/>
      <point x="474" y="134"/>
      <point x="445" y="134" type="curve" smooth="yes"/>
      <point x="375" y="134"/>
      <point x="306" y="180"/>
      <point x="306" y="275" type="curve" smooth="yes"/>
      <point x="306" y="343"/>
      <point x="361" y="376"/>
      <point x="446" y="376" type="curve" smooth="yes"/>
      <point x="587" y="376" type="line"/>
      <point x="599" y="384" type="line"/>
      <point x="599" y="436"/>
      <point x="598" y="508"/>
      <point x="597" y="580" type="curve"/>
      <point x="516" y="580" type="line"/>
      <point x="516" y="451" type="line"/>
      <point x="441" y="451" type="line" smooth="yes"/>
      <point x="315" y="451"/>
      <point x="231" y="422"/>
      <point x="231" y="318" type="curve" smooth="yes"/>
      <point x="231" y="203"/>
      <point x="333" y="72"/>
      <point x="505" y="72" type="curve" smooth="yes"/>
      <point x="624" y="72"/>
      <point x="649" y="144"/>
      <point x="649" y="167" type="curve" smooth="yes"/>
      <point x="649" y="214"/>
      <point x="574" y="257"/>
      <point x="529" y="257" type="curve" smooth="yes"/>
      <point x="508" y="257"/>
      <point x="494" y="247"/>
      <point x="494" y="225" type="curve" smooth="yes"/>
      <point x="494" y="200"/>
      <point x="511" y="154"/>
      <point x="565" y="71" type="curve" smooth="yes"/>
      <point x="718" y="-165" type="line"/>
    </contour>
    <contour>
      <point x="358" y="-179" type="curve" smooth="yes"/>
      <point x="387" y="-179"/>
      <point x="405" y="-173"/>
      <point x="405" y="-154" type="curve" smooth="yes"/>
      <point x="405" y="-126"/>
      <point x="364" y="-63"/>
      <point x="335" y="-18" type="curve" smooth="yes"/>
      <point x="268" y="87"/>
      <point x="214" y="151"/>
      <point x="118" y="151" type="curve"/>
      <point x="45" y="151"/>
      <point x="5" y="113"/>
      <point x="5" y="62" type="curve" smooth="yes"/>
      <point x="5" y="12"/>
      <point x="44" y="-23"/>
      <point x="93" y="-23" type="curve" smooth="yes"/>
      <point x="126" y="-23"/>
      <point x="160" y="-10"/>
      <point x="183" y="16" type="curve"/>
      <point x="178" y="23" type="line"/>
      <point x="165" y="21"/>
      <point x="152" y="18"/>
      <point x="137" y="18" type="curve" smooth="yes"/>
      <point x="107" y="18"/>
      <point x="78" y="34"/>
      <point x="78" y="64" type="curve" smooth="yes"/>
      <point x="78" y="94"/>
      <point x="104" y="108"/>
      <point x="124" y="108" type="curve" smooth="yes"/>
      <point x="165" y="108"/>
      <point x="216" y="44"/>
      <point x="302" y="-118" type="curve"/>
      <point x="593" y="94" type="line"/>
      <point x="486" y="93" type="line"/>
      <point x="223" y="-94" type="line" smooth="yes"/>
      <point x="215" y="-100"/>
      <point x="211" y="-105"/>
      <point x="211" y="-112" type="curve" smooth="yes"/>
      <point x="211" y="-145"/>
      <point x="300" y="-179"/>
    </contour>
    <contour>
      <point x="562" y="-139" type="curve" smooth="yes"/>
      <point x="599" y="-139"/>
      <point x="643" y="-128"/>
      <point x="679" y="-72" type="curve"/>
      <point x="637" y="-13" type="line"/>
      <point x="607" y="-66"/>
      <point x="557" y="-83"/>
      <point x="526" y="-83" type="curve" smooth="yes"/>
      <point x="491" y="-83"/>
      <point x="465" y="-62"/>
      <point x="465" y="-30" type="curve" smooth="yes"/>
      <point x="465" y="-8"/>
      <point x="478" y="10"/>
      <point x="495" y="23" type="curve"/>
      <point x="409" y="25" type="line"/>
      <point x="407" y="17"/>
      <point x="403" y="14"/>
      <point x="403" y="0" type="curve" smooth="yes"/>
      <point x="403" y="-53"/>
      <point x="461" y="-139"/>
    </contour>
    <contour>
      <point x="721" y="545" type="line"/>
      <point x="721" y="555" type="line"/>
      <point x="687" y="620" type="line"/>
      <point x="-28" y="620" type="line"/>
      <point x="-28" y="610" type="line"/>
      <point x="6" y="545" type="line"/>
    </contour>
  </outline>
</glyph>
<glyph name="dDDVYa" format="2">
  <advance width="980"/>
  <outline>
    <contour>
      <point x="553" y="-287" type="line"/>
      <point x="607" y="-252" type="line"/>
      <point x="396" y="46" type="line"/>
      <point x="352" y="15"/>
      <point x="311" y="8"/>
      <point x="278" y="8" type="curve" smooth="yes"/>
      <point x="205" y="8"/>
      <point x="172" y="44"/>
      <point x="172" y="86" type="curve" smooth="yes"/>
      <point x="172" y="125"/>
      <point x="197" y="168"/>
      <point x="290" y="186" type="curve"/>
      <point x="232" y="244" type="line"/>
      <point x="158" y="251"/>
      <point x="124" y="296"/>
      <point x="124" y="334" type="curve" smooth="yes"/>
      <point x="124" y="365"/>
      <point x="147" y="380"/>
      <point x="189" y="380" type="curve" smooth="yes"/>
      <point x="563" y="380" type="line" smooth="yes"/>
      <point x="629" y="380"/>
      <point x="635" y="365"/>
      <point x="635" y="349" type="curve" smooth="yes"/>
      <point x="635" y="308"/>
      <point x="587" y="280"/>
      <point x="492" y="255" type="curve"/>
      <point x="512" y="143"/>
      <point x="596" y="55"/>
      <point x="697" y="55" type="curve" smooth="yes"/>
      <point x="732" y="55"/>
      <point x="770" y="65"/>
      <point x="802" y="85" type="curve"/>
      <point x="819" y="77" type="line"/>
      <point x="819" y="194" type="line"/>
      <point x="765" y="145"/>
      <point x="709" y="118"/>
      <point x="666" y="118" type="curve" smooth="yes"/>
      <point x="617" y="118"/>
      <point x="579" y="154"/>
      <point x="578" y="195" type="curve"/>
      <point x="669" y="223"/>
      <point x="705" y="257"/>
      <point x="705" y="308" type="curve" smooth="yes"/>
      <point x="705" y="363"/>
      <point x="661" y="456"/>
      <point x="537" y="456" type="curve" smooth="yes"/>
      <point x="171" y="455" type="line" smooth="yes"/>
      <point x="89" y="455"/>
      <point x="52" y="423"/>
      <point x="52" y="371" type="curve" smooth="yes"/>
      <point x="52" y="304"/>
      <point x="128" y="179"/>
      <point x="296" y="179" type="curve" smooth="yes"/>
      <point x="365" y="179"/>
      <point x="379" y="195"/>
      <point x="379" y="208" type="curve" smooth="yes"/>
      <point x="379" y="221"/>
      <point x="367" y="267"/>
      <point x="336" y="267" type="curve" smooth="yes"/>
      <point x="273" y="267"/>
      <point x="98" y="242"/>
      <point x="98" y="127" type="curve" smooth="yes"/>
      <point x="98" y="34"/>
      <point x="197" y="-56"/>
      <point x="316" y="-56" type="curve" smooth="yes"/>
      <point x="419" y="-56"/>
      <point x="483" y="-7"/>
      <point x="483" y="43" type="curve" smooth="yes"/>
      <point x="483" y="93"/>
      <point x="419" y="129"/>
      <point x="374" y="129" type="curve" smooth="yes"/>
      <point x="353" y="129"/>
      <point x="339" y="120"/>
      <point x="339" y="95" type="curve" smooth="yes"/>
      <point x="339" y="76"/>
      <point x="343" y="58"/>
      <point x="376" y="2" type="curve" smooth="yes"/>
      <point x="544" y="-287" type="line"/>
    </contour>
    <contour>
      <point x="298" y="-234" type="curve" smooth="yes"/>
      <point x="350" y="-234"/>
      <point x="424" y="-221"/>
      <point x="461" y="-104" type="curve"/>
      <point x="403" y="-14" type="line"/>
      <point x="380" y="-149"/>
      <point x="304" y="-172"/>
      <point x="255" y="-172" type="curve" smooth="yes"/>
      <point x="227" y="-172"/>
      <point x="198" y="-163"/>
      <point x="198" y="-127" type="curve" smooth="yes"/>
      <point x="198" y="-85"/>
      <point x="233" y="-56"/>
      <point x="272" y="-42" type="curve"/>
      <point x="191" y="5" type="line"/>
      <point x="139" y="-23"/>
      <point x="127" y="-51"/>
      <point x="127" y="-87" type="curve" smooth="yes"/>
      <point x="127" y="-154"/>
      <point x="180" y="-234"/>
    </contour>
    <contour>
      <point x="409" y="420" type="line"/>
      <point x="408" y="464"/>
      <point x="407" y="534"/>
      <point x="407" y="581" type="curve"/>
      <point x="326" y="581" type="line"/>
      <point x="326" y="420" type="line"/>
    </contour>
    <contour>
      <point x="1008" y="545" type="line"/>
      <point x="1008" y="555" type="line"/>
      <point x="974" y="620" type="line"/>
      <point x="-28" y="620" type="line"/>
      <point x="-28" y="610" type="line"/>
      <point x="6" y="545" type="line"/>
    </contour>
    <contour>
      <point x="893" y="-65" type="line"/>
      <point x="891" y="581" type="line"/>
      <point x="807" y="581" type="line"/>
      <point x="803" y="-13" type="line"/>
      <point x="883" y="-65" type="line"/>
    </contour>
  </outline>
</glyph>
<glyph name="dDDVa" format="2">
  <advance width="521"/>
  <outline>
    <contour>
      <point x="553" y="-287" type="line"/>
      <point x="607" y="-252" type="line"/>
      <point x="396" y="46" type="line"/>
      <point x="352" y="15"/>
      <point x="311" y="8"/>
      <point x="278" y="8" type="curve" smooth="yes"/>
      <point x="205" y="8"/>
      <point x="172" y="44"/>
      <point x="172" y="86" type="curve" smooth="yes"/>
      <point x="172" y="125"/>
      <point x="200" y="168"/>
      <point x="290" y="186" type="curve"/>
      <point x="232" y="244" type="line"/>
      <point x="158" y="251"/>
      <point x="124" y="296"/>
      <point x="124" y="334" type="curve" smooth="yes"/>
      <point x="124" y="365"/>
      <point x="147" y="380"/>
      <point x="189" y="380" type="curve" smooth="yes"/>
      <point x="397" y="380" type="line"/>
      <point x="409" y="388" type="line"/>
      <point x="409" y="440"/>
      <point x="408" y="507"/>
      <point x="407" y="581" type="curve"/>
      <point x="326" y="581" type="line"/>
      <point x="326" y="455" type="line"/>
      <point x="171" y="455" type="line" smooth="yes"/>
      <point x="89" y="455"/>
      <point x="52" y="423"/>
      <point x="52" y="371" type="curve" smooth="yes"/>
      <point x="52" y="304"/>
      <point x="128" y="179"/>
      <point x="296" y="179" type="curve" smooth="yes"/>
      <point x="365" y="179"/>
      <point x="379" y="195"/>
      <point x="379" y="208" type="curve" smooth="yes"/>
      <point x="379" y="221"/>
      <point x="367" y="267"/>
      <point x="336" y="267" type="curve" smooth="yes"/>
      <point x="273" y="267"/>
      <point x="98" y="242"/>
      <point x="98" y="127" type="curve" smooth="yes"/>
      <point x="98" y="34"/>
      <point x="197" y="-56"/>
      <point x="316" y="-56" type="curve" smooth="yes"/>
      <point x="361" y="-56"/>
      <point x="408" y="-42"/>
      <point x="432" y="-30" type="curve" smooth="yes"/>
      <point x="461" y="-16"/>
      <point x="483" y="14"/>
      <point x="483" y="43" type="curve" smooth="yes"/>
      <point x="483" y="93"/>
      <point x="419" y="129"/>
      <point x="374" y="129" type="curve" smooth="yes"/>
      <point x="353" y="129"/>
      <point x="339" y="120"/>
      <point x="339" y="95" type="curve" smooth="yes"/>
      <point x="339" y="76"/>
      <point x="343" y="58"/>
      <point x="376" y="2" type="curve" smooth="yes"/>
      <point x="544" y="-287" type="line"/>
    </contour>
    <contour>
      <point x="298" y="-234" type="curve" smooth="yes"/>
      <point x="350" y="-234"/>
      <point x="424" y="-221"/>
      <point x="461" y="-104" type="curve"/>
      <point x="403" y="-14" type="line"/>
      <point x="380" y="-149"/>
      <point x="304" y="-172"/>
      <point x="255" y="-172" type="curve" smooth="yes"/>
      <point x="227" y="-172"/>
      <point x="198" y="-163"/>
      <point x="198" y="-127" type="curve" smooth="yes"/>
      <point x="198" y="-85"/>
      <point x="233" y="-56"/>
      <point x="272" y="-42" type="curve"/>
      <point x="191" y="5" type="line"/>
      <point x="139" y="-23"/>
      <point x="127" y="-51"/>
      <point x="127" y="-87" type="curve" smooth="yes"/>
      <point x="127" y="-154"/>
      <point x="180" y="-234"/>
    </contour>
    <contour>
      <point x="549" y="545" type="line"/>
      <point x="549" y="555" type="line"/>
      <point x="515" y="620" type="line"/>
      <point x="-28" y="620" type="line"/>
      <point x="-28" y="610" type="line"/>
      <point x="6" y="545" type="line"/>
    </contour>
  </outline>
</glyph>
<glyph name="dDDhMa" format="2">
  <advance width="791"/>
  <outline>
    <component base="dDMa" xOffset="92"/>
    <contour>
      <point x="405" y="80" type="line"/>
      <point x="374" y="-2"/>
      <point x="306" y="-37"/>
      <point x="261" y="-37" type="curve" smooth="yes"/>
      <point x="231" y="-37"/>
      <point x="213" y="-21"/>
      <point x="213" y="6" type="curve" smooth="yes"/>
      <point x="213" y="35"/>
      <point x="236" y="59"/>
      <point x="289" y="75" type="curve"/>
      <point x="230" y="135" type="line"/>
      <point x="158" y="105"/>
      <point x="139" y="66"/>
      <point x="139" y="33" type="curve" smooth="yes"/>
      <point x="139" y="-40"/>
      <point x="231" y="-91"/>
      <point x="303" y="-91" type="curve" smooth="yes"/>
      <point x="357" y="-91"/>
      <point x="443" y="-62"/>
      <point x="484" y="67" type="curve"/>
    </contour>
    <contour>
      <point x="183" y="97" type="line"/>
      <point x="141" y="113"/>
      <point x="125" y="136"/>
      <point x="125" y="161" type="curve" smooth="yes"/>
      <point x="125" y="181"/>
      <point x="135" y="198"/>
      <point x="135" y="222" type="curve" smooth="yes"/>
      <point x="135" y="257"/>
      <point x="115" y="285"/>
      <point x="44" y="312" type="curve"/>
      <point x="40" y="305" type="line"/>
      <point x="54" y="288"/>
      <point x="57" y="271"/>
      <point x="57" y="261" type="curve" smooth="yes"/>
      <point x="57" y="240"/>
      <point x="44" y="203"/>
      <point x="44" y="176" type="curve" smooth="yes"/>
      <point x="44" y="113"/>
      <point x="115" y="85"/>
      <point x="162" y="66" type="curve"/>
    </contour>
    <contour>
      <point x="298" y="620" type="line"/>
      <point x="-28" y="620" type="line"/>
      <point x="-28" y="610" type="line"/>
      <point x="6" y="545" type="line"/>
      <point x="298" y="545" type="line"/>
    </contour>
  </outline>
</glyph>
<glyph name="dDGhNa" format="2">
  <advance width="630"/>
  <outline>
    <contour>
      <point x="633" y="-165" type="line"/>
      <point x="685" y="-132" type="line"/>
      <point x="473" y="176" type="line"/>
      <point x="457" y="147"/>
      <point x="417" y="132"/>
      <point x="371" y="132" type="curve" smooth="yes"/>
      <point x="299" y="132"/>
      <point x="233" y="183"/>
      <point x="233" y="268" type="curve" smooth="yes"/>
      <point x="233" y="347"/>
      <point x="288" y="376"/>
      <point x="373" y="376" type="curve" smooth="yes"/>
      <point x="514" y="376" type="line"/>
      <point x="526" y="384" type="line"/>
      <point x="526" y="436"/>
      <point x="525" y="508"/>
      <point x="523" y="570" type="curve"/>
      <point x="443" y="570" type="line"/>
      <point x="443" y="451" type="line"/>
      <point x="368" y="451" type="line" smooth="yes"/>
      <point x="240" y="451"/>
      <point x="158" y="423"/>
      <point x="158" y="314" type="curve" smooth="yes"/>
      <point x="158" y="183"/>
      <point x="278" y="65"/>
      <point x="424" y="65" type="curve" smooth="yes"/>
      <point x="541" y="65"/>
      <point x="572" y="134"/>
      <point x="572" y="164" type="curve" smooth="yes"/>
      <point x="572" y="211"/>
      <point x="498" y="254"/>
      <point x="453" y="254" type="curve" smooth="yes"/>
      <point x="432" y="254"/>
      <point x="418" y="245"/>
      <point x="418" y="221" type="curve" smooth="yes"/>
      <point x="418" y="191"/>
      <point x="442" y="142"/>
      <point x="486" y="69" type="curve" smooth="yes"/>
      <point x="624" y="-165" type="line"/>
    </contour>
    <contour>
      <point x="314" y="-284" type="curve" smooth="yes"/>
      <point x="328" y="-284"/>
      <point x="360" y="-282"/>
      <point x="360" y="-262" type="curve" smooth="yes"/>
      <point x="360" y="-242"/>
      <point x="330" y="-204"/>
      <point x="316" y="-186" type="curve"/>
      <point x="529" y="69" type="line"/>
      <point x="451" y="92" type="line"/>
      <point x="216" y="-182" type="line" smooth="yes"/>
      <point x="203" y="-197"/>
      <point x="191" y="-211"/>
      <point x="191" y="-226" type="curve" smooth="yes"/>
      <point x="191" y="-262"/>
      <point x="265" y="-284"/>
    </contour>
    <contour>
      <point x="444" y="0" type="line"/>
      <point x="444" y="92" type="line"/>
      <point x="375" y="-9"/>
      <point x="310" y="-57"/>
      <point x="258" y="-57" type="curve" smooth="yes"/>
      <point x="230" y="-57"/>
      <point x="208" y="-44"/>
      <point x="208" y="-13" type="curve" smooth="yes"/>
      <point x="208" y="18"/>
      <point x="229" y="43"/>
      <point x="275" y="61" type="curve"/>
      <point x="216" y="121" type="line"/>
      <point x="184" y="106"/>
      <point x="163" y="90"/>
      <point x="148" y="72" type="curve"/>
      <point x="118" y="92"/>
      <point x="108" y="119"/>
      <point x="108" y="139" type="curve" smooth="yes"/>
      <point x="108" y="168"/>
      <point x="132" y="199"/>
      <point x="191" y="208" type="curve"/>
      <point x="168" y="272" type="line"/>
      <point x="46" y="256"/>
      <point x="22" y="187"/>
      <point x="22" y="149" type="curve" smooth="yes"/>
      <point x="22" y="86"/>
      <point x="87" y="49"/>
      <point x="129" y="30" type="curve"/>
      <point x="128" y="26"/>
      <point x="128" y="21"/>
      <point x="128" y="16" type="curve" smooth="yes"/>
      <point x="128" y="-61"/>
      <point x="222" y="-109"/>
      <point x="299" y="-109" type="curve"/>
    </contour>
    <contour>
      <point x="658" y="545" type="line"/>
      <point x="658" y="555" type="line"/>
      <point x="624" y="620" type="line"/>
      <point x="-28" y="620" type="line"/>
      <point x="-28" y="610" type="line"/>
      <point x="6" y="545" type="line"/>
    </contour>
  </outline>
</glyph>
<glyph name="dDGhRa" format="2">
  <advance width="630"/>
  <outline>
    <contour>
      <point x="633" y="-165" type="line"/>
      <point x="685" y="-132" type="line"/>
      <point x="473" y="176" type="line"/>
      <point x="457" y="147"/>
      <point x="417" y="132"/>
      <point x="371" y="132" type="curve" smooth="yes"/>
      <point x="299" y="132"/>
      <point x="233" y="183"/>
      <point x="233" y="268" type="curve" smooth="yes"/>
      <point x="233" y="347"/>
      <point x="288" y="376"/>
      <point x="373" y="376" type="curve" smooth="yes"/>
      <point x="514" y="376" type="line"/>
      <point x="526" y="384" type="line"/>
      <point x="526" y="436"/>
      <point x="525" y="508"/>
      <point x="523" y="570" type="curve"/>
      <point x="443" y="570" type="line"/>
      <point x="443" y="451" type="line"/>
      <point x="368" y="451" type="line" smooth="yes"/>
      <point x="240" y="451"/>
      <point x="158" y="423"/>
      <point x="158" y="314" type="curve" smooth="yes"/>
      <point x="158" y="183"/>
      <point x="278" y="65"/>
      <point x="424" y="65" type="curve" smooth="yes"/>
      <point x="541" y="65"/>
      <point x="572" y="134"/>
      <point x="572" y="164" type="curve" smooth="yes"/>
      <point x="572" y="211"/>
      <point x="498" y="254"/>
      <point x="453" y="254" type="curve" smooth="yes"/>
      <point x="432" y="254"/>
      <point x="418" y="245"/>
      <point x="418" y="221" type="curve" smooth="yes"/>
      <point x="418" y="191"/>
      <point x="442" y="142"/>
      <point x="486" y="69" type="curve" smooth="yes"/>
      <point x="624" y="-165" type="line"/>
    </contour>
    <contour>
      <point x="162" y="64" type="line"/>
      <point x="121" y="84"/>
      <point x="108" y="116"/>
      <point x="108" y="139" type="curve" smooth="yes"/>
      <point x="108" y="168"/>
      <point x="132" y="199"/>
      <point x="191" y="208" type="curve"/>
      <point x="168" y="272" type="line"/>
      <point x="46" y="256"/>
      <point x="22" y="187"/>
      <point x="22" y="149" type="curve" smooth="yes"/>
      <point x="22" y="82"/>
      <point x="96" y="44"/>
      <point x="137" y="26" type="curve"/>
    </contour>
    <contour>
      <point x="529" y="70" type="line"/>
      <point x="456" y="94" type="line"/>
      <point x="177" y="-226" type="line"/>
      <point x="248" y="-267" type="line"/>
    </contour>
    <contour>
      <point x="444" y="-14" type="line"/>
      <point x="444" y="92" type="line"/>
      <point x="375" y="-9"/>
      <point x="310" y="-57"/>
      <point x="258" y="-57" type="curve" smooth="yes"/>
      <point x="230" y="-57"/>
      <point x="208" y="-44"/>
      <point x="208" y="-13" type="curve" smooth="yes"/>
      <point x="208" y="18"/>
      <point x="229" y="43"/>
      <point x="275" y="61" type="curve"/>
      <point x="216" y="121" type="line"/>
      <point x="163" y="97"/>
      <point x="128" y="61"/>
      <point x="128" y="16" type="curve" smooth="yes"/>
      <point x="128" y="-61"/>
      <point x="222" y="-109"/>
      <point x="299" y="-109" type="curve"/>
    </contour>
    <contour>
      <point x="658" y="545" type="line"/>
      <point x="658" y="555" type="line"/>
      <point x="624" y="620" type="line"/>
      <point x="-28" y="620" type="line"/>
      <point x="-28" y="610" type="line"/>
      <point x="6" y="545" type="line"/>
    </contour>
  </outline>
</glyph>
<glyph name="dDa_dSignVocalicR" format="2">
  <advance width="511"/>
  <outline>
    <contour>
      <point x="316" y="-59" type="curve" smooth="yes"/>
      <point x="378" y="-59"/>
      <point x="446" y="-38"/>
      <point x="496" y="-7" type="curve"/>
      <point x="444" y="60" type="line"/>
      <point x="397" y="29"/>
      <point x="337" y="6"/>
      <point x="279" y="6" type="curve" smooth="yes"/>
      <point x="206" y="6"/>
      <point x="180" y="44"/>
      <point x="180" y="86" type="curve" smooth="yes"/>
      <point x="180" y="126"/>
      <point x="206" y="167"/>
      <point x="287" y="184" type="curve"/>
      <point x="287" y="241" type="line"/>
      <point x="227" y="241" type="line" smooth="yes"/>
      <point x="174" y="241"/>
      <point x="126" y="283"/>
      <point x="126" y="331" type="curve" smooth="yes"/>
      <point x="126" y="368"/>
      <point x="149" y="381"/>
      <point x="191" y="381" type="curve" smooth="yes"/>
      <point x="403" y="381" type="line"/>
      <point x="415" y="389" type="line"/>
      <point x="415" y="434"/>
      <point x="414" y="502"/>
      <point x="413" y="573" type="curve"/>
      <point x="332" y="573" type="line"/>
      <point x="332" y="456" type="line"/>
      <point x="173" y="456" type="line" smooth="yes"/>
      <point x="91" y="456"/>
      <point x="54" y="424"/>
      <point x="54" y="371" type="curve" smooth="yes"/>
      <point x="54" y="320"/>
      <point x="107" y="176"/>
      <point x="300" y="176" type="curve" smooth="yes"/>
      <point x="340" y="176"/>
      <point x="389" y="181"/>
      <point x="389" y="205" type="curve" smooth="yes"/>
      <point x="389" y="220"/>
      <point x="370" y="264"/>
      <point x="336" y="264" type="curve" smooth="yes"/>
      <point x="224" y="264"/>
      <point x="106" y="219"/>
      <point x="106" y="125" type="curve" smooth="yes"/>
      <point x="106" y="49"/>
      <point x="183" y="-59"/>
    </contour>
    <contour>
      <point x="539" y="545" type="line"/>
      <point x="539" y="555" type="line"/>
      <point x="505" y="620" type="line"/>
      <point x="-28" y="620" type="line"/>
      <point x="-28" y="610" type="line"/>
      <point x="6" y="545" type="line"/>
    </contour>
  </outline>
  <guideline angle="117.447" x="491" y="0"/>
</glyph>
<glyph name="dDdBhRa" format="2">
  <advance width="561"/>
  <outline>
    <contour>
      <point x="352" y="80" type="curve" smooth="yes"/>
      <point x="514" y="80"/>
      <point x="515" y="193"/>
      <point x="515" y="194" type="curve"/>
      <point x="515" y="263"/>
      <point x="439" y="335"/>
      <point x="384" y="335" type="curve" smooth="yes"/>
      <point x="353" y="335"/>
      <point x="259" y="313"/>
      <point x="236" y="313" type="curve" smooth="yes"/>
      <point x="215" y="313"/>
      <point x="190" y="333"/>
      <point x="190" y="365" type="curve" smooth="yes"/>
      <point x="190" y="397"/>
      <point x="213" y="410"/>
      <point x="255" y="410" type="curve" smooth="yes"/>
      <point x="445" y="410" type="line"/>
      <point x="457" y="418" type="line"/>
      <point x="457" y="469"/>
      <point x="457" y="523"/>
      <point x="456" y="583" type="curve"/>
      <point x="376" y="583" type="line"/>
      <point x="376" y="482" type="line"/>
      <point x="237" y="482" type="line" smooth="yes"/>
      <point x="156" y="482"/>
      <point x="118" y="451"/>
      <point x="118" y="402" type="curve" smooth="yes"/>
      <point x="118" y="326"/>
      <point x="207" y="243"/>
      <point x="271" y="243" type="curve" smooth="yes"/>
      <point x="303" y="243"/>
      <point x="378" y="264"/>
      <point x="412" y="264" type="curve" smooth="yes"/>
      <point x="438" y="264"/>
      <point x="447" y="252"/>
      <point x="447" y="226" type="curve" smooth="yes"/>
      <point x="447" y="201"/>
      <point x="439" y="152"/>
      <point x="325" y="152" type="curve" smooth="yes"/>
      <point x="198" y="152"/>
      <point x="140" y="213"/>
      <point x="85" y="304" type="curve"/>
      <point x="48" y="284" type="line"/>
      <point x="118" y="157"/>
      <point x="218" y="80"/>
    </contour>
    <contour>
      <point x="116" y="-83" type="line" smooth="yes"/>
      <point x="98" y="-83"/>
      <point x="91" y="-94"/>
      <point x="91" y="-106" type="curve" smooth="yes"/>
      <point x="91" y="-148"/>
      <point x="173" y="-233"/>
      <point x="212" y="-233" type="curve" smooth="yes"/>
      <point x="238" y="-233"/>
      <point x="239" y="-206"/>
      <point x="248" y="-131" type="curve"/>
      <point x="251" y="-114"/>
      <point x="254" y="-56"/>
      <point x="254" y="-43" type="curve" smooth="yes"/>
      <point x="254" y="48"/>
      <point x="185" y="120"/>
      <point x="116" y="120" type="curve" smooth="yes"/>
      <point x="76" y="120"/>
      <point x="36" y="98"/>
      <point x="36" y="52" type="curve" smooth="yes"/>
      <point x="36" y="-3"/>
      <point x="85" y="-31"/>
      <point x="126" y="-31" type="curve" smooth="yes"/>
      <point x="131" y="-31"/>
      <point x="134" y="-31"/>
      <point x="141" y="-30" type="curve"/>
      <point x="141" y="-22" type="line"/>
      <point x="116" y="-11"/>
      <point x="100" y="8"/>
      <point x="100" y="29" type="curve" smooth="yes"/>
      <point x="100" y="50"/>
      <point x="120" y="63"/>
      <point x="140" y="63" type="curve" smooth="yes"/>
      <point x="176" y="63"/>
      <point x="182" y="22"/>
      <point x="182" y="-24" type="curve" smooth="yes"/>
      <point x="182" y="-49"/>
      <point x="180" y="-78"/>
      <point x="171" y="-149" type="curve"/>
      <point x="448" y="-149" type="line"/>
      <point x="449" y="-83" type="line"/>
    </contour>
    <contour>
      <point x="452" y="-161" type="line"/>
      <point x="417" y="-106" type="line"/>
      <point x="195" y="-300" type="line"/>
      <point x="248" y="-343" type="line"/>
    </contour>
    <contour>
      <point x="481" y="-340" type="line"/>
      <point x="477" y="155" type="line"/>
      <point x="403" y="124" type="line"/>
      <point x="401" y="-295" type="line"/>
      <point x="472" y="-340" type="line"/>
    </contour>
    <contour>
      <point x="589" y="545" type="line"/>
      <point x="589" y="555" type="line"/>
      <point x="555" y="620" type="line"/>
      <point x="-28" y="620" type="line"/>
      <point x="-28" y="610" type="line"/>
      <point x="6" y="545" type="line"/>
    </contour>
  </outline>
</glyph>
<glyph name="dDdBhYa" format="2">
  <advance width="1052"/>
  <outline>
    <component base="dDdBha"/>
    <contour>
      <point x="891" y="206" type="line"/>
      <point x="837" y="157"/>
      <point x="781" y="130"/>
      <point x="738" y="130" type="curve" smooth="yes"/>
      <point x="688" y="130"/>
      <point x="650" y="169"/>
      <point x="649" y="212" type="curve"/>
      <point x="740" y="240"/>
      <point x="776" y="277"/>
      <point x="776" y="329" type="curve" smooth="yes"/>
      <point x="776" y="385"/>
      <point x="731" y="482"/>
      <point x="607" y="482" type="curve" smooth="yes"/>
      <point x="390" y="482" type="line"/>
      <point x="390" y="410" type="line"/>
      <point x="633" y="410" type="line" smooth="yes"/>
      <point x="699" y="410"/>
      <point x="706" y="388"/>
      <point x="706" y="370" type="curve" smooth="yes"/>
      <point x="706" y="328"/>
      <point x="658" y="298"/>
      <point x="563" y="272" type="curve"/>
      <point x="583" y="158"/>
      <point x="668" y="67"/>
      <point x="769" y="67" type="curve" smooth="yes"/>
      <point x="804" y="67"/>
      <point x="842" y="77"/>
      <point x="874" y="97" type="curve"/>
      <point x="890" y="89" type="line"/>
    </contour>
    <contour>
      <point x="879" y="591" type="line"/>
      <point x="875" y="7" type="line"/>
      <point x="955" y="-45" type="line"/>
      <point x="965" y="-45" type="line"/>
      <point x="963" y="591" type="line"/>
    </contour>
    <contour>
      <point x="1080" y="545" type="line"/>
      <point x="1080" y="555" type="line"/>
      <point x="1046" y="620" type="line"/>
      <point x="482" y="620" type="line"/>
      <point x="482" y="545" type="line"/>
    </contour>
  </outline>
</glyph>
<glyph name="dDdJNya" format="2">
  <advance width="552"/>
  <outline>
    <contour>
      <point x="338" y="80" type="curve" smooth="yes"/>
      <point x="500" y="80"/>
      <point x="501" y="196"/>
      <point x="501" y="194" type="curve"/>
      <point x="501" y="263"/>
      <point x="425" y="335"/>
      <point x="370" y="335" type="curve" smooth="yes"/>
      <point x="339" y="335"/>
      <point x="245" y="313"/>
      <point x="222" y="313" type="curve" smooth="yes"/>
      <point x="201" y="313"/>
      <point x="176" y="333"/>
      <point x="176" y="365" type="curve" smooth="yes"/>
      <point x="176" y="397"/>
      <point x="199" y="410"/>
      <point x="241" y="410" type="curve" smooth="yes"/>
      <point x="431" y="410" type="line"/>
      <point x="443" y="418" type="line"/>
      <point x="443" y="469"/>
      <point x="443" y="523"/>
      <point x="442" y="583" type="curve"/>
      <point x="362" y="583" type="line"/>
      <point x="362" y="482" type="line"/>
      <point x="223" y="482" type="line" smooth="yes"/>
      <point x="142" y="482"/>
      <point x="104" y="451"/>
      <point x="104" y="402" type="curve" smooth="yes"/>
      <point x="104" y="326"/>
      <point x="193" y="243"/>
      <point x="257" y="243" type="curve" smooth="yes"/>
      <point x="289" y="243"/>
      <point x="364" y="264"/>
      <point x="398" y="264" type="curve" smooth="yes"/>
      <point x="424" y="264"/>
      <point x="433" y="252"/>
      <point x="433" y="226" type="curve" smooth="yes"/>
      <point x="433" y="201"/>
      <point x="425" y="152"/>
      <point x="311" y="152" type="curve" smooth="yes"/>
      <point x="184" y="152"/>
      <point x="124" y="214"/>
      <point x="69" y="305" type="curve"/>
      <point x="32" y="285" type="line"/>
      <point x="102" y="158"/>
      <point x="204" y="80"/>
    </contour>
    <contour>
      <point x="265" y="-381" type="line"/>
      <point x="308" y="-353" type="line"/>
      <point x="218" y="-233" type="line"/>
      <point x="174" y="-235" type="line"/>
      <point x="257" y="-381" type="line"/>
    </contour>
    <contour>
      <point x="201" y="-255" type="curve" smooth="yes"/>
      <point x="293" y="-255"/>
      <point x="319" y="-204"/>
      <point x="319" y="-158" type="curve" smooth="yes"/>
      <point x="319" y="-110"/>
      <point x="287" y="-67"/>
      <point x="243" y="-32" type="curve"/>
      <point x="243" y="-14" type="line"/>
      <point x="160" y="-22" type="line"/>
      <point x="217" y="-42"/>
      <point x="256" y="-87"/>
      <point x="256" y="-133" type="curve" smooth="yes"/>
      <point x="256" y="-164"/>
      <point x="240" y="-195"/>
      <point x="195" y="-196" type="curve"/>
      <point x="158" y="-148"/>
      <point x="121" y="-123"/>
      <point x="99" y="-123" type="curve" smooth="yes"/>
      <point x="79" y="-123"/>
      <point x="69" y="-144"/>
      <point x="69" y="-167" type="curve" smooth="yes"/>
      <point x="69" y="-229"/>
      <point x="145" y="-255"/>
    </contour>
    <contour>
      <point x="433" y="-30" type="line"/>
      <point x="433" y="33" type="line"/>
      <point x="138" y="33" type="line"/>
      <point x="138" y="24" type="line"/>
      <point x="160" y="-22" type="line"/>
      <point x="227" y="-30" type="line"/>
    </contour>
    <contour>
      <point x="462" y="-335" type="line"/>
      <point x="460" y="172" type="line"/>
      <point x="390" y="142" type="line"/>
      <point x="385" y="-292" type="line"/>
      <point x="453" y="-335" type="line"/>
    </contour>
    <contour>
      <point x="580" y="545" type="line"/>
      <point x="580" y="555" type="line"/>
      <point x="546" y="620" type="line"/>
      <point x="-28" y="620" type="line"/>
      <point x="-28" y="610" type="line"/>
      <point x="6" y="545" type="line"/>
    </contour>
  </outline>
  <guideline angle="90" x="443" y="0"/>
</glyph>
<glyph name="dDdhYa" format="2">
  <advance width="1048"/>
  <outline>
    <contour>
      <point x="355" y="22" type="curve" smooth="yes"/>
      <point x="450" y="22"/>
      <point x="516" y="82"/>
      <point x="516" y="157" type="curve" smooth="yes"/>
      <point x="516" y="265"/>
      <point x="424" y="311"/>
      <point x="358" y="311" type="curve" smooth="yes"/>
      <point x="298" y="311"/>
      <point x="239" y="265"/>
      <point x="239" y="202" type="curve" smooth="yes"/>
      <point x="239" y="168"/>
      <point x="249" y="129"/>
      <point x="266" y="93" type="curve"/>
      <point x="308" y="84" type="line"/>
      <point x="300" y="107"/>
      <point x="298" y="115"/>
      <point x="298" y="132" type="curve" smooth="yes"/>
      <point x="298" y="196"/>
      <point x="335" y="244"/>
      <point x="397" y="244" type="curve" smooth="yes"/>
      <point x="431" y="244"/>
      <point x="460" y="222"/>
      <point x="460" y="190" type="curve" smooth="yes"/>
      <point x="460" y="145"/>
      <point x="409" y="97"/>
      <point x="325" y="97" type="curve" smooth="yes"/>
      <point x="212" y="97"/>
      <point x="126" y="153"/>
      <point x="126" y="262" type="curve" smooth="yes"/>
      <point x="126" y="343"/>
      <point x="180" y="384"/>
      <point x="265" y="384" type="curve" smooth="yes"/>
      <point x="630" y="384" type="line" smooth="yes"/>
      <point x="696" y="384"/>
      <point x="703" y="366"/>
      <point x="703" y="350" type="curve" smooth="yes"/>
      <point x="703" y="309"/>
      <point x="655" y="279"/>
      <point x="560" y="254" type="curve"/>
      <point x="580" y="142"/>
      <point x="664" y="55"/>
      <point x="765" y="55" type="curve" smooth="yes"/>
      <point x="800" y="55"/>
      <point x="838" y="65"/>
      <point x="870" y="85" type="curve"/>
      <point x="886" y="77" type="line"/>
      <point x="887" y="194" type="line"/>
      <point x="833" y="145"/>
      <point x="777" y="118"/>
      <point x="734" y="118" type="curve" smooth="yes"/>
      <point x="685" y="118"/>
      <point x="647" y="153"/>
      <point x="646" y="194" type="curve"/>
      <point x="737" y="222"/>
      <point x="773" y="258"/>
      <point x="773" y="309" type="curve" smooth="yes"/>
      <point x="773" y="364"/>
      <point x="729" y="458"/>
      <point x="605" y="458" type="curve" smooth="yes"/>
      <point x="262" y="458" type="line" smooth="yes"/>
      <point x="136" y="458"/>
      <point x="51" y="423"/>
      <point x="51" y="316" type="curve" smooth="yes"/>
      <point x="51" y="143"/>
      <point x="220" y="22"/>
    </contour>
    <contour>
      <point x="452" y="442" type="line"/>
      <point x="452" y="481"/>
      <point x="451" y="543"/>
      <point x="451" y="581" type="curve"/>
      <point x="370" y="581" type="line"/>
      <point x="370" y="442" type="line"/>
    </contour>
    <contour>
      <point x="1076" y="545" type="line"/>
      <point x="1076" y="555" type="line"/>
      <point x="1042" y="620" type="line"/>
      <point x="-28" y="620" type="line"/>
      <point x="-28" y="610" type="line"/>
      <point x="6" y="545" type="line"/>
    </contour>
    <contour>
      <point x="961" y="-45" type="line"/>
      <point x="959" y="581" type="line"/>
      <point x="875" y="581" type="line"/>
      <point x="871" y="7" type="line"/>
      <point x="951" y="-45" type="line"/>
    </contour>
  </outline>
</glyph>
<glyph name="dFive.ss04" format="2">
  <advance width="545"/>
  <outline>
    <contour>
      <point x="350" y="-169" type="line"/>
      <point x="402" y="-136" type="line"/>
      <point x="269" y="49" type="line" smooth="yes"/>
      <point x="207" y="136"/>
      <point x="171" y="159"/>
      <point x="150" y="159" type="curve" smooth="yes"/>
      <point x="128" y="159"/>
      <point x="115" y="131"/>
      <point x="115" y="96" type="curve" smooth="yes"/>
      <point x="115" y="29"/>
      <point x="179" y="9"/>
      <point x="254" y="9" type="curve" smooth="yes"/>
      <point x="340" y="9"/>
      <point x="457" y="85"/>
      <point x="458" y="273" type="curve" smooth="yes"/>
      <point x="460" y="528" type="line"/>
      <point x="386" y="575" type="line"/>
      <point x="376" y="575" type="line"/>
      <point x="382" y="294" type="line"/>
      <point x="385" y="100"/>
      <point x="263" y="77"/>
      <point x="246" y="76" type="curve"/>
      <point x="218" y="76" type="line"/>
      <point x="236" y="18" type="line"/>
      <point x="341" y="-169" type="line"/>
    </contour>
    <contour>
      <point x="278" y="206" type="curve" smooth="yes"/>
      <point x="317" y="206"/>
      <point x="355" y="217"/>
      <point x="394" y="251" type="curve"/>
      <point x="398" y="363" type="line"/>
      <point x="337" y="292"/>
      <point x="280" y="274"/>
      <point x="245" y="274" type="curve" smooth="yes"/>
      <point x="192" y="274"/>
      <point x="156" y="315"/>
      <point x="156" y="377" type="curve" smooth="yes"/>
      <point x="156" y="416"/>
      <point x="167" y="477"/>
      <point x="186" y="548" type="curve"/>
      <point x="111" y="602" type="line"/>
      <point x="101" y="602" type="line"/>
      <point x="86" y="533"/>
      <point x="75" y="457"/>
      <point x="75" y="423" type="curve" smooth="yes"/>
      <point x="75" y="309"/>
      <point x="188" y="206"/>
    </contour>
  </outline>
</glyph>
<glyph name="dGNYa" format="2">
  <advance width="872"/>
  <outline>
    <component base="dYa" xOffset="290"/>
    <contour>
      <point x="632" y="545" type="line"/>
      <point x="632" y="555" type="line"/>
      <point x="598" y="620" type="line"/>
      <point x="-28" y="620" type="line"/>
      <point x="-28" y="610" type="line"/>
      <point x="6" y="545" type="line"/>
    </contour>
    <contour>
      <point x="402" y="278" type="line"/>
      <point x="225" y="131" type="line" smooth="yes"/>
      <point x="188" y="100"/>
      <point x="167" y="82"/>
      <point x="167" y="62" type="curve" smooth="yes"/>
      <point x="167" y="22"/>
      <point x="266" y="-14"/>
      <point x="304" y="-14" type="curve" smooth="yes"/>
      <point x="326" y="-14"/>
      <point x="336" y="-4"/>
      <point x="336" y="10" type="curve" smooth="yes"/>
      <point x="336" y="22"/>
      <point x="329" y="40"/>
      <point x="303" y="94" type="curve"/>
      <point x="443" y="214" type="line"/>
    </contour>
    <contour>
      <point x="143" y="581" type="line"/>
      <point x="142" y="389" type="line"/>
      <point x="78" y="389" type="line" smooth="yes"/>
      <point x="60" y="389"/>
      <point x="53" y="378"/>
      <point x="53" y="366" type="curve" smooth="yes"/>
      <point x="53" y="312"/>
      <point x="160" y="212"/>
      <point x="204" y="212" type="curve" smooth="yes"/>
      <point x="219" y="212"/>
      <point x="227" y="220"/>
      <point x="227" y="237" type="curve"/>
      <point x="225" y="581" type="line"/>
    </contour>
  </outline>
</glyph>
<glyph name="dGR.half" format="2">
  <advance width="306"/>
  <outline>
    <contour>
      <point x="408" y="285" type="line"/>
      <point x="171" y="79" type="line"/>
      <point x="234" y="27" type="line"/>
      <point x="432" y="202" type="line"/>
    </contour>
    <contour>
      <point x="396" y="545" type="line"/>
      <point x="396" y="555" type="line"/>
      <point x="362" y="620" type="line"/>
      <point x="-28" y="620" type="line"/>
      <point x="-28" y="610" type="line"/>
      <point x="6" y="545" type="line"/>
    </contour>
    <contour>
      <point x="143" y="581" type="line"/>
      <point x="142" y="379" type="line"/>
      <point x="78" y="379" type="line" smooth="yes"/>
      <point x="60" y="379"/>
      <point x="53" y="368"/>
      <point x="53" y="356" type="curve" smooth="yes"/>
      <point x="53" y="302"/>
      <point x="160" y="202"/>
      <point x="204" y="202" type="curve" smooth="yes"/>
      <point x="219" y="202"/>
      <point x="227" y="210"/>
      <point x="227" y="227" type="curve"/>
      <point x="225" y="581" type="line"/>
    </contour>
  </outline>
</glyph>
<glyph name="dGhNYa" format="2">
  <advance width="967"/>
  <outline>
    <component base="dYa" xOffset="385"/>
    <contour>
      <point x="262" y="-62" type="curve" smooth="yes"/>
      <point x="282" y="-62"/>
      <point x="288" y="-53"/>
      <point x="288" y="-38" type="curve" smooth="yes"/>
      <point x="288" y="-27"/>
      <point x="286" y="-15"/>
      <point x="265" y="44" type="curve"/>
      <point x="526" y="228" type="line"/>
      <point x="275" y="190" type="line"/>
      <point x="275" y="144" type="line"/>
      <point x="171" y="75" type="line" smooth="yes"/>
      <point x="147" y="59"/>
      <point x="129" y="46"/>
      <point x="129" y="28" type="curve" smooth="yes"/>
      <point x="129" y="-13"/>
      <point x="219" y="-62"/>
    </contour>
    <contour>
      <point x="512" y="222" type="line"/>
      <point x="470" y="281" type="line"/>
      <point x="384" y="211"/>
      <point x="318" y="198"/>
      <point x="287" y="198" type="curve" smooth="yes"/>
      <point x="243" y="198"/>
      <point x="207" y="227"/>
      <point x="207" y="265" type="curve" smooth="yes"/>
      <point x="207" y="307"/>
      <point x="250" y="344"/>
      <point x="363" y="346" type="curve"/>
      <point x="323" y="428" type="line"/>
      <point x="223" y="421"/>
      <point x="133" y="391"/>
      <point x="133" y="313" type="curve" smooth="yes"/>
      <point x="133" y="257"/>
      <point x="183" y="155"/>
      <point x="296" y="143" type="curve"/>
    </contour>
    <contour>
      <point x="204" y="388" type="line"/>
      <point x="160" y="414"/>
      <point x="145" y="451"/>
      <point x="145" y="476" type="curve" smooth="yes"/>
      <point x="145" y="516"/>
      <point x="181" y="541"/>
      <point x="237" y="549" type="curve"/>
      <point x="87" y="567" type="line"/>
      <point x="64" y="542"/>
      <point x="56" y="522"/>
      <point x="56" y="499" type="curve" smooth="yes"/>
      <point x="56" y="440"/>
      <point x="113" y="397"/>
      <point x="162" y="359" type="curve"/>
    </contour>
    <contour>
      <point x="472" y="545" type="line"/>
      <point x="472" y="555" type="line"/>
      <point x="438" y="620" type="line"/>
      <point x="-28" y="620" type="line"/>
      <point x="-28" y="610" type="line"/>
      <point x="6" y="545" type="line"/>
    </contour>
  </outline>
</glyph>
<glyph name="dGhRa" format="2">
  <advance width="624"/>
  <outline>
    <contour>
      <point x="506" y="214" type="line"/>
      <point x="488" y="289" type="line"/>
      <point x="136" y="52" type="line"/>
      <point x="194" y="-6" type="line"/>
    </contour>
    <contour>
      <point x="468" y="193" type="line"/>
      <point x="488" y="296" type="line"/>
      <point x="395" y="214"/>
      <point x="325" y="198"/>
      <point x="284" y="198" type="curve" smooth="yes"/>
      <point x="240" y="198"/>
      <point x="207" y="228"/>
      <point x="207" y="266" type="curve" smooth="yes"/>
      <point x="207" y="308"/>
      <point x="250" y="344"/>
      <point x="363" y="346" type="curve"/>
      <point x="323" y="428" type="line"/>
      <point x="223" y="421"/>
      <point x="133" y="391"/>
      <point x="133" y="313" type="curve" smooth="yes"/>
      <point x="133" y="257"/>
      <point x="182" y="157"/>
      <point x="295" y="141" type="curve"/>
    </contour>
    <contour>
      <point x="204" y="388" type="line"/>
      <point x="160" y="414"/>
      <point x="145" y="451"/>
      <point x="145" y="476" type="curve" smooth="yes"/>
      <point x="145" y="516"/>
      <point x="181" y="541"/>
      <point x="237" y="549" type="curve"/>
      <point x="98" y="567" type="line"/>
      <point x="64" y="551"/>
      <point x="56" y="522"/>
      <point x="56" y="499" type="curve" smooth="yes"/>
      <point x="56" y="440"/>
      <point x="113" y="397"/>
      <point x="162" y="359" type="curve"/>
    </contour>
    <contour>
      <point x="537" y="-10" type="line"/>
      <point x="535" y="581" type="line"/>
      <point x="451" y="581" type="line"/>
      <point x="447" y="42" type="line"/>
      <point x="527" y="-10" type="line"/>
    </contour>
    <contour>
      <point x="652" y="545" type="line"/>
      <point x="652" y="555" type="line"/>
      <point x="618" y="620" type="line"/>
      <point x="-28" y="620" type="line"/>
      <point x="-28" y="610" type="line"/>
      <point x="6" y="545" type="line"/>
    </contour>
  </outline>
</glyph>
<glyph name="dHMYa" format="2">
  <advance width="1072"/>
  <outline>
    <contour>
      <point x="647" y="197" type="line"/>
      <point x="634" y="171" type="line"/>
      <point x="364" y="171" type="line" smooth="yes"/>
      <point x="346" y="171"/>
      <point x="339" y="160"/>
      <point x="339" y="148" type="curve" smooth="yes"/>
      <point x="339" y="100"/>
      <point x="430" y="12"/>
      <point x="468" y="12" type="curve" smooth="yes"/>
      <point x="483" y="12"/>
      <point x="491" y="20"/>
      <point x="491" y="37" type="curve" smooth="yes"/>
      <point x="491" y="130" type="line" smooth="yes"/>
      <point x="491" y="198"/>
      <point x="441" y="304"/>
      <point x="321" y="304" type="curve" smooth="yes"/>
      <point x="203" y="304"/>
      <point x="96" y="215"/>
      <point x="96" y="105" type="curve" smooth="yes"/>
      <point x="96" y="3"/>
      <point x="184" y="-103"/>
      <point x="429" y="-164" type="curve"/>
      <point x="440" y="-121" type="line"/>
      <point x="233" y="-67"/>
      <point x="178" y="15"/>
      <point x="178" y="86" type="curve" smooth="yes"/>
      <point x="178" y="163"/>
      <point x="252" y="246"/>
      <point x="344" y="246" type="curve" smooth="yes"/>
      <point x="373" y="246"/>
      <point x="425" y="234"/>
      <point x="425" y="164" type="curve"/>
      <point x="424" y="137"/>
      <point x="423" y="121"/>
      <point x="422" y="106" type="curve"/>
      <point x="475" y="106" type="line"/>
      <point x="748" y="106" type="line"/>
    </contour>
    <contour>
      <point x="162" y="229" type="line"/>
      <point x="141" y="245"/>
      <point x="122" y="276"/>
      <point x="122" y="306" type="curve" smooth="yes"/>
      <point x="122" y="360"/>
      <point x="168" y="385"/>
      <point x="247" y="385" type="curve" smooth="yes"/>
      <point x="433" y="385" type="line"/>
      <point x="445" y="393" type="line"/>
      <point x="445" y="445"/>
      <point x="444" y="527"/>
      <point x="443" y="581" type="curve"/>
      <point x="362" y="581" type="line"/>
      <point x="362" y="460" type="line"/>
      <point x="229" y="460" type="line" smooth="yes"/>
      <point x="105" y="460"/>
      <point x="49" y="412"/>
      <point x="49" y="341" type="curve" smooth="yes"/>
      <point x="49" y="285"/>
      <point x="87" y="225"/>
      <point x="133" y="192" type="curve"/>
    </contour>
    <contour>
      <point x="1100" y="545" type="line"/>
      <point x="1100" y="555" type="line"/>
      <point x="1066" y="620" type="line"/>
      <point x="-28" y="620" type="line"/>
      <point x="-28" y="610" type="line"/>
      <point x="6" y="545" type="line"/>
    </contour>
    <contour>
      <point x="985" y="-10" type="line"/>
      <point x="983" y="581" type="line"/>
      <point x="899" y="581" type="line"/>
      <point x="895" y="42" type="line"/>
      <point x="975" y="-10" type="line"/>
    </contour>
    <contour>
      <point x="747" y="106" type="curve" smooth="yes"/>
      <point x="827" y="106"/>
      <point x="851" y="114"/>
      <point x="895" y="142" type="curve"/>
      <point x="913" y="142" type="line"/>
      <point x="912" y="250" type="line"/>
      <point x="853" y="199"/>
      <point x="797" y="169"/>
      <point x="750" y="169" type="curve" smooth="yes"/>
      <point x="680" y="169"/>
      <point x="626" y="235"/>
      <point x="623" y="307" type="curve"/>
      <point x="720" y="335"/>
      <point x="760" y="372"/>
      <point x="760" y="424" type="curve" smooth="yes"/>
      <point x="760" y="462"/>
      <point x="740" y="502"/>
      <point x="704" y="562" type="curve"/>
      <point x="647" y="563" type="line"/>
      <point x="676" y="519"/>
      <point x="688" y="489"/>
      <point x="688" y="467" type="curve" smooth="yes"/>
      <point x="688" y="421"/>
      <point x="641" y="392"/>
      <point x="537" y="366" type="curve"/>
      <point x="564" y="189"/>
      <point x="709" y="106"/>
    </contour>
  </outline>
</glyph>
<glyph name="dHRa" format="2">
  <advance width="576"/>
  <outline>
    <contour>
      <point x="431" y="-147" type="line"/>
      <point x="227" y="-91"/>
      <point x="171" y="-9"/>
      <point x="171" y="73" type="curve" smooth="yes"/>
      <point x="171" y="170"/>
      <point x="250" y="244"/>
      <point x="354" y="244" type="curve" smooth="yes"/>
      <point x="423" y="244"/>
      <point x="481" y="195"/>
      <point x="481" y="133" type="curve" smooth="yes"/>
      <point x="481" y="89"/>
      <point x="458" y="44"/>
      <point x="388" y="9" type="curve"/>
      <point x="434" y="-59" type="line"/>
      <point x="520" y="-18"/>
      <point x="546" y="38"/>
      <point x="546" y="99" type="curve" smooth="yes"/>
      <point x="546" y="200"/>
      <point x="458" y="300"/>
      <point x="326" y="300" type="curve" smooth="yes"/>
      <point x="195" y="300"/>
      <point x="90" y="212"/>
      <point x="90" y="89" type="curve" smooth="yes"/>
      <point x="90" y="-26"/>
      <point x="190" y="-128"/>
      <point x="420" y="-189" type="curve"/>
    </contour>
    <contour>
      <point x="482" y="190" type="line"/>
      <point x="426" y="242" type="line"/>
      <point x="238" y="77" type="line"/>
      <point x="300" y="26" type="line"/>
    </contour>
    <contour>
      <point x="162" y="229" type="line"/>
      <point x="141" y="245"/>
      <point x="122" y="276"/>
      <point x="122" y="306" type="curve" smooth="yes"/>
      <point x="122" y="360"/>
      <point x="168" y="385"/>
      <point x="247" y="385" type="curve" smooth="yes"/>
      <point x="435" y="385" type="line"/>
      <point x="447" y="393" type="line"/>
      <point x="447" y="445"/>
      <point x="446" y="527"/>
      <point x="445" y="581" type="curve"/>
      <point x="364" y="581" type="line"/>
      <point x="364" y="460" type="line"/>
      <point x="229" y="460" type="line" smooth="yes"/>
      <point x="105" y="460"/>
      <point x="49" y="412"/>
      <point x="49" y="341" type="curve" smooth="yes"/>
      <point x="49" y="285"/>
      <point x="87" y="227"/>
      <point x="132" y="193" type="curve"/>
    </contour>
    <contour>
      <point x="604" y="545" type="line"/>
      <point x="604" y="555" type="line"/>
      <point x="570" y="620" type="line"/>
      <point x="-28" y="620" type="line"/>
      <point x="-28" y="610" type="line"/>
      <point x="6" y="545" type="line"/>
    </contour>
  </outline>
</glyph>
<glyph name="dHRa_dSignU" format="2">
  <advance width="576"/>
  <outline>
    <contour>
      <point x="385" y="-108" type="line"/>
      <point x="235" y="-67"/>
      <point x="171" y="3"/>
      <point x="171" y="76" type="curve" smooth="yes"/>
      <point x="171" y="168"/>
      <point x="250" y="244"/>
      <point x="354" y="244" type="curve" smooth="yes"/>
      <point x="423" y="244"/>
      <point x="481" y="194"/>
      <point x="481" y="133" type="curve" smooth="yes"/>
      <point x="481" y="89"/>
      <point x="458" y="44"/>
      <point x="388" y="9" type="curve"/>
      <point x="434" y="-59" type="line"/>
      <point x="520" y="-18"/>
      <point x="546" y="38"/>
      <point x="546" y="99" type="curve" smooth="yes"/>
      <point x="546" y="200"/>
      <point x="458" y="300"/>
      <point x="326" y="300" type="curve" smooth="yes"/>
      <point x="196" y="300"/>
      <point x="90" y="212"/>
      <point x="90" y="91" type="curve" smooth="yes"/>
      <point x="90" y="12"/>
      <point x="153" y="-72"/>
      <point x="321" y="-133" type="curve"/>
    </contour>
    <contour>
      <point x="410" y="-348" type="curve" smooth="yes"/>
      <point x="479" y="-348"/>
      <point x="536" y="-306"/>
      <point x="536" y="-239" type="curve" smooth="yes"/>
      <point x="536" y="-168"/>
      <point x="472" y="-103"/>
      <point x="392" y="-103" type="curve" smooth="yes"/>
      <point x="332" y="-103"/>
      <point x="289" y="-142"/>
      <point x="285" y="-146" type="curve"/>
      <point x="338" y="-208" type="line"/>
      <point x="360" y="-189"/>
      <point x="389" y="-165"/>
      <point x="425" y="-165" type="curve" smooth="yes"/>
      <point x="453" y="-165"/>
      <point x="477" y="-175"/>
      <point x="477" y="-208" type="curve" smooth="yes"/>
      <point x="477" y="-248"/>
      <point x="441" y="-282"/>
      <point x="377" y="-282" type="curve" smooth="yes"/>
      <point x="313" y="-282"/>
      <point x="243" y="-251"/>
      <point x="142" y="-123" type="curve"/>
      <point x="135" y="-123" type="line"/>
      <point x="101" y="-164" type="line"/>
      <point x="152" y="-223"/>
      <point x="295" y="-348"/>
    </contour>
    <contour>
      <point x="493" y="200" type="line"/>
      <point x="439" y="253" type="line"/>
      <point x="238" y="77" type="line"/>
      <point x="300" y="26" type="line"/>
    </contour>
    <contour>
      <point x="174" y="221" type="line"/>
      <point x="142" y="238"/>
      <point x="122" y="276"/>
      <point x="122" y="306" type="curve" smooth="yes"/>
      <point x="122" y="360"/>
      <point x="168" y="385"/>
      <point x="247" y="385" type="curve" smooth="yes"/>
      <point x="435" y="385" type="line"/>
      <point x="447" y="393" type="line"/>
      <point x="447" y="441"/>
      <point x="446" y="495"/>
      <point x="445" y="581" type="curve"/>
      <point x="364" y="581" type="line"/>
      <point x="364" y="460" type="line"/>
      <point x="229" y="460" type="line" smooth="yes"/>
      <point x="105" y="460"/>
      <point x="49" y="412"/>
      <point x="49" y="341" type="curve" smooth="yes"/>
      <point x="49" y="286"/>
      <point x="84" y="226"/>
      <point x="146" y="182" type="curve"/>
    </contour>
    <contour>
      <point x="604" y="545" type="line"/>
      <point x="604" y="555" type="line"/>
      <point x="570" y="620" type="line"/>
      <point x="-28" y="620" type="line"/>
      <point x="-28" y="610" type="line"/>
      <point x="6" y="545" type="line"/>
    </contour>
  </outline>
</glyph>
<glyph name="dJJYa" format="2">
  <advance width="1368"/>
  <outline>
    <contour>
      <point x="937" y="331" type="curve" smooth="yes"/>
      <point x="1022" y="331"/>
      <point x="1052" y="372"/>
      <point x="1052" y="423" type="curve" smooth="yes"/>
      <point x="1052" y="467"/>
      <point x="1032" y="507"/>
      <point x="1000" y="560" type="curve"/>
      <point x="944" y="558" type="line"/>
      <point x="967" y="528"/>
      <point x="982" y="492"/>
      <point x="982" y="463" type="curve" smooth="yes"/>
      <point x="982" y="430"/>
      <point x="962" y="405"/>
      <point x="915" y="405" type="curve" smooth="yes"/>
      <point x="896" y="405"/>
      <point x="860" y="409"/>
      <point x="829" y="425" type="curve"/>
      <point x="264" y="425" type="line"/>
      <point x="264" y="414" type="line"/>
      <point x="291" y="356" type="line"/>
      <point x="380" y="350" type="line"/>
      <point x="852" y="350" type="line"/>
      <point x="867" y="344"/>
      <point x="896" y="331"/>
    </contour>
    <contour>
      <point x="325" y="85" type="curve" smooth="yes"/>
      <point x="395" y="85"/>
      <point x="457" y="125"/>
      <point x="464" y="197" type="curve"/>
      <point x="362" y="371" type="line"/>
      <point x="291" y="356" type="line"/>
      <point x="352" y="328"/>
      <point x="385" y="284"/>
      <point x="385" y="244" type="curve" smooth="yes"/>
      <point x="385" y="201"/>
      <point x="352" y="166"/>
      <point x="298" y="166" type="curve" smooth="yes"/>
      <point x="209" y="166"/>
      <point x="132" y="265"/>
      <point x="63" y="411" type="curve"/>
      <point x="22" y="393" type="line"/>
      <point x="96" y="234"/>
      <point x="189" y="85"/>
    </contour>
    <contour>
      <point x="636" y="85" type="curve" smooth="yes"/>
      <point x="710" y="85"/>
      <point x="775" y="130"/>
      <point x="775" y="208" type="curve" smooth="yes"/>
      <point x="775" y="264"/>
      <point x="742" y="307"/>
      <point x="674" y="371" type="curve"/>
      <point x="580" y="364" type="line"/>
      <point x="660" y="335"/>
      <point x="696" y="291"/>
      <point x="696" y="246" type="curve" smooth="yes"/>
      <point x="696" y="202"/>
      <point x="663" y="166"/>
      <point x="609" y="166" type="curve" smooth="yes"/>
      <point x="524" y="166"/>
      <point x="446" y="256"/>
      <point x="371" y="393" type="curve"/>
      <point x="340" y="371" type="line"/>
      <point x="461" y="124"/>
      <point x="563" y="85"/>
    </contour>
    <contour>
      <point x="1396" y="545" type="line"/>
      <point x="1396" y="555" type="line"/>
      <point x="1362" y="620" type="line"/>
      <point x="-28" y="620" type="line"/>
      <point x="-28" y="610" type="line"/>
      <point x="6" y="545" type="line"/>
    </contour>
    <contour>
      <point x="1079" y="136" type="curve" smooth="yes"/>
      <point x="1123" y="136"/>
      <point x="1167" y="150"/>
      <point x="1208" y="178" type="curve"/>
      <point x="1208" y="279" type="line"/>
      <point x="1150" y="226"/>
      <point x="1093" y="199"/>
      <point x="1039" y="199" type="curve" smooth="yes"/>
      <point x="977" y="199"/>
      <point x="915" y="236"/>
      <point x="904" y="358" type="curve"/>
      <point x="832" y="370" type="line"/>
      <point x="861" y="216"/>
      <point x="974" y="136"/>
    </contour>
    <contour>
      <point x="1281" y="-10" type="line"/>
      <point x="1279" y="572" type="line"/>
      <point x="1195" y="572" type="line"/>
      <point x="1191" y="42" type="line"/>
      <point x="1271" y="-10" type="line"/>
    </contour>
  </outline>
</glyph>
